Commissioner-FlairMedium.ufo
<glyph name="dollar" format="2">
  <advance width="1133.5578947368422"/>
  <unicode hex="0024"/>
  <outline>
    <contour>
      <point x="572.6105263157895" y="-22.926315789473684" type="curve" smooth="yes"/>
      <point x="912.1263157894737" y="-22.926315789473684"/>
      <point x="1061.3684210526317" y="144.14736842105262"/>
      <point x="1061.3684210526317" y="378.63157894736844" type="curve" smooth="yes"/>
      <point x="1061.3684210526317" y="584.1894736842105"/>
      <point x="957.7263157894737" y="681.8315789473684"/>
      <point x="632.1894736842105" y="783.621052631579" type="curve" smooth="yes"/>
      <point x="404.42105263157896" y="856.378947368421"/>
      <point x="306.021052631579" y="894.2105263157895"/>
      <point x="306.021052631579" y="1009.8736842105263" type="curve" smooth="yes"/>
      <point x="306.021052631579" y="1147.4736842105262"/>
      <point x="439.17894736842106" y="1203.3052631578946"/>
      <point x="583.8736842105263" y="1205.6631578947367" type="curve"/>
      <point x="652.2315789473683" y="1205.6631578947367"/>
      <point x="796.8" y="1170.021052631579"/>
      <point x="960.9052631578948" y="1093.3052631578948" type="curve"/>
      <point x="981.4736842105264" y="1301.6" type="line"/>
      <point x="879.8315789473684" y="1335.3894736842105"/>
      <point x="697.8105263157894" y="1395.2842105263157"/>
      <point x="554.5684210526316" y="1395.2842105263157" type="curve" smooth="yes"/>
      <point x="250.44210526315788" y="1395.2842105263157"/>
      <point x="98.33684210526316" y="1232.2526315789473"/>
      <point x="98.33684210526316" y="1009.0526315789474" type="curve" smooth="yes"/>
      <point x="98.33684210526316" y="784.3157894736842"/>
      <point x="244.58947368421053" y="694.9263157894737"/>
      <point x="499.4526315789474" y="616.7789473684211" type="curve" smooth="yes"/>
      <point x="719.6421052631579" y="549.0947368421052"/>
      <point x="854.5052631578948" y="504.90526315789475"/>
      <point x="854.5052631578948" y="376.5263157894737" type="curve" smooth="yes"/>
      <point x="854.5052631578948" y="223.2421052631579"/>
      <point x="732.378947368421" y="165.76842105263157"/>
      <point x="564.4" y="163.41052631578947" type="curve"/>
      <point x="442.1473684210526" y="163.41052631578947"/>
      <point x="280.90526315789475" y="211.87368421052633"/>
      <point x="136.65263157894736" y="278.58947368421053" type="curve"/>
      <point x="117.62105263157895" y="65.83157894736843" type="line"/>
      <point x="219.62105263157895" y="34.86315789473684"/>
      <point x="378.08421052631576" y="-22.926315789473684"/>
    </contour>
    <contour>
      <point x="483.66315789473686" y="-274.0" type="curve"/>
      <point x="674.8210526315789" y="-274.0" type="line"/>
      <point x="663.4315789473684" y="-38.0"/>
      <point x="662.6105263157895" y="168.0"/>
      <point x="662.6105263157895" y="384.0" type="curve"/>
      <point x="662.6105263157895" y="948.0" type="line"/>
      <point x="662.6105263157895" y="1164.0"/>
      <point x="663.4315789473684" y="1370.0"/>
      <point x="674.8210526315789" y="1606.0" type="curve"/>
      <point x="483.66315789473686" y="1606.0" type="line"/>
      <point x="495.0526315789474" y="1370.0"/>
      <point x="495.87368421052633" y="1164.0"/>
      <point x="495.87368421052633" y="948.0" type="curve"/>
      <point x="495.87368421052633" y="384.0" type="line"/>
      <point x="495.87368421052633" y="168.0"/>
      <point x="495.0526315789474" y="-38.0"/>
    </contour>
  </outline>
</glyph>
<glyph name="ampersand" format="2">
  <advance width="1498.896551724138"/>
  <unicode hex="0026"/>
  <outline>
    <contour>
      <point x="1176.0" y="0.0" type="curve"/>
      <point x="1487.5862068965519" y="0.0" type="line"/>
      <point x="1346.6896551724137" y="129.10344827586206"/>
      <point x="1220.7586206896551" y="258.41379310344826"/>
      <point x="1096.4137931034484" y="387.7241379310345" type="curve"/>
      <point x="655.8620689655172" y="841.1724137931035" type="line" smooth="yes"/>
      <point x="548.3448275862069" y="950.0689655172414"/>
      <point x="504.0689655172414" y="1025.7241379310344"/>
      <point x="504.0689655172414" y="1113.8620689655172" type="curve" smooth="yes"/>
      <point x="504.0689655172414" y="1216.6206896551723"/>
      <point x="568.7586206896552" y="1283.5862068965519"/>
      <point x="672.551724137931" y="1289.3793103448277" type="curve"/>
      <point x="768.8965517241379" y="1283.5862068965519"/>
      <point x="843.1724137931035" y="1219.103448275862"/>
      <point x="843.1724137931035" y="1124.896551724138" type="curve" smooth="yes"/>
      <point x="843.1724137931035" y="1007.3103448275863"/>
      <point x="725.6551724137931" y="945.0344827586207"/>
      <point x="610.2758620689656" y="874.9655172413793" type="curve"/>
      <point x="721.7931034482758" y="741.1034482758621" type="line"/>
      <point x="849.1034482758621" y="823.3103448275862"/>
      <point x="1045.0344827586207" y="952.0"/>
      <point x="1045.0344827586207" y="1130.2758620689656" type="curve" smooth="yes"/>
      <point x="1045.0344827586207" y="1336.0"/>
      <point x="875.3793103448276" y="1453.5862068965516"/>
      <point x="661.7931034482758" y="1453.5862068965516" type="curve" smooth="yes"/>
      <point x="452.55172413793105" y="1453.5862068965516"/>
      <point x="284.2758620689655" y="1329.1724137931035"/>
      <point x="284.2758620689655" y="1112.0689655172414" type="curve" smooth="yes"/>
      <point x="284.2758620689655" y="970.8275862068965"/>
      <point x="359.3103448275862" y="861.0344827586207"/>
      <point x="477.37931034482756" y="738.0" type="curve" smooth="yes"/>
      <point x="928.6896551724138" y="272.0" type="line"/>
      <point x="1017.3103448275862" y="182.0"/>
      <point x="1107.9310344827586" y="88.0"/>
    </contour>
    <contour>
      <point x="530.4827586206897" y="-21.586206896551722" type="curve" smooth="yes"/>
      <point x="696.1379310344828" y="-21.586206896551722"/>
      <point x="837.3103448275862" y="58.275862068965516"/>
      <point x="980.1379310344827" y="199.79310344827584" type="curve"/>
      <point x="1005.9310344827586" y="199.79310344827584" type="line"/>
      <point x="998.1379310344828" y="238.13793103448276" type="line"/>
      <point x="876.2068965517242" y="363.58620689655174" type="line"/>
      <point x="768.8275862068966" y="229.17241379310343"/>
      <point x="639.6551724137931" y="160.55172413793105"/>
      <point x="560.9655172413793" y="160.55172413793105" type="curve"/>
      <point x="400.0689655172414" y="166.34482758620692"/>
      <point x="300.3448275862069" y="257.6551724137931"/>
      <point x="300.3448275862069" y="396.0689655172414" type="curve" smooth="yes"/>
      <point x="300.3448275862069" y="535.1034482758621"/>
      <point x="396.7586206896552" y="633.3793103448276"/>
      <point x="540.3448275862069" y="698.0689655172414" type="curve"/>
      <point x="445.7931034482759" y="834.3448275862069" type="line"/>
      <point x="264.62068965517244" y="754.3448275862069"/>
      <point x="87.72413793103448" y="616.7586206896551"/>
      <point x="87.72413793103448" y="372.7586206896552" type="curve" smooth="yes"/>
      <point x="87.72413793103448" y="150.6206896551724"/>
      <point x="235.31034482758622" y="-21.586206896551722"/>
    </contour>
    <contour>
      <point x="1122.344827586207" y="346.2068965517241" type="line"/>
      <point x="1216.896551724138" y="468.82758620689657"/>
      <point x="1309.2413793103449" y="587.2413793103449"/>
      <point x="1411.1724137931035" y="700.4827586206897" type="curve"/>
      <point x="1212.6896551724137" y="827.9310344827586" type="line"/>
      <point x="1149.6551724137933" y="699.9310344827586"/>
      <point x="1077.448275862069" y="585.7241379310345"/>
      <point x="999.0344827586207" y="464.68965517241384" type="curve"/>
    </contour>
  </outline>
</glyph>
<glyph name="quotesingle" format="2">
  <advance width="422.65263157894736"/>
  <unicode hex="0027"/>
  <outline>
    <contour>
      <point x="111.93684210526315" y="844.1473684210526" type="curve"/>
      <point x="273.9578947368421" y="846.1473684210526" type="line"/>
      <point x="279.7052631578947" y="1062.5263157894738"/>
      <point x="292.1684210526316" y="1277.2631578947369"/>
      <point x="316.3789473684211" y="1488.821052631579" type="curve"/>
      <point x="68.69473684210527" y="1483.536842105263" type="line"/>
      <point x="92.90526315789474" y="1272.8"/>
      <point x="106.18947368421053" y="1060.0631578947368"/>
    </contour>
  </outline>
</glyph>
<glyph name="parenleft" format="2">
  <advance width="791.2210526315789"/>
  <unicode hex="0028"/>
  <outline>
    <contour>
      <point x="548.0421052631579" y="-251.09473684210525" type="curve"/>
      <point x="729.3473684210527" y="-182.50526315789475" type="line"/>
      <point x="507.3052631578947" y="39.95789473684211"/>
      <point x="328.8" y="284.46315789473687"/>
      <point x="328.8" y="647.1789473684211" type="curve" smooth="yes"/>
      <point x="328.8" y="1011.0736842105263"/>
      <point x="507.3052631578947" y="1254.4"/>
      <point x="729.3473684210527" y="1476.8631578947368" type="curve"/>
      <point x="548.0421052631579" y="1545.4526315789474" type="line"/>
      <point x="334.46315789473687" y="1340.1894736842105"/>
      <point x="107.15789473684211" y="1050.6315789473683"/>
      <point x="107.15789473684211" y="647.1789473684211" type="curve" smooth="yes"/>
      <point x="107.15789473684211" y="244.90526315789475"/>
      <point x="334.46315789473687" y="-45.83157894736841"/>
    </contour>
  </outline>
</glyph>
<glyph name="asterisk" format="2">
  <advance width="961.1578947368421"/>
  <unicode hex="002A"/>
  <outline>
    <contour>
      <point x="830.6736842105263" y="728.1263157894738" type="curve"/>
      <point x="913.0105263157894" y="867.7684210526315" type="line"/>
      <point x="774.8" y="933.5578947368421"/>
      <point x="639.0526315789474" y="1002.9894736842106"/>
      <point x="505.66315789473686" y="1074.421052631579" type="curve"/>
      <point x="377.66315789473686" y="1161.3473684210526"/>
      <point x="253.66315789473686" y="1249.0947368421052"/>
      <point x="130.4842105263158" y="1340.4842105263158" type="curve"/>
      <point x="48.14736842105263" y="1200.842105263158" type="line"/>
      <point x="186.3578947368421" y="1135.0526315789473"/>
      <point x="322.9263157894737" y="1065.6210526315788"/>
      <point x="457.4947368421053" y="992.1894736842105" type="curve"/>
      <point x="583.4947368421052" y="907.2631578947369"/>
      <point x="707.4947368421052" y="818.6947368421053"/>
    </contour>
    <contour>
      <point x="131.30526315789476" y="728.1263157894738" type="line"/>
      <point x="253.66315789473686" y="819.5157894736842"/>
      <point x="378.4842105263158" y="907.2631578947369"/>
      <point x="505.66315789473686" y="994.1894736842105" type="curve"/>
      <point x="639.0526315789474" y="1065.6210526315788"/>
      <point x="775.6210526315789" y="1135.0526315789473"/>
      <point x="913.0105263157894" y="1201.663157894737" type="curve"/>
      <point x="830.6736842105263" y="1340.4842105263158" type="line"/>
      <point x="707.4947368421052" y="1249.0947368421052"/>
      <point x="583.4947368421052" y="1161.3473684210526"/>
      <point x="457.4947368421053" y="1075.6" type="curve"/>
      <point x="322.10526315789474" y="1002.9894736842106"/>
      <point x="186.3578947368421" y="933.5578947368421"/>
      <point x="48.14736842105263" y="867.7684210526315" type="curve"/>
    </contour>
    <contour>
      <point x="399.01052631578943" y="577.3263157894737" type="curve"/>
      <point x="562.1473684210526" y="577.3263157894737" type="line"/>
      <point x="547.1157894736842" y="729.7894736842105"/>
      <point x="536.5473684210526" y="882.2526315789473"/>
      <point x="527.1578947368421" y="1035.8947368421052" type="curve"/>
      <point x="536.5473684210526" y="1187.178947368421"/>
      <point x="547.1157894736842" y="1339.6421052631579"/>
      <point x="561.3263157894737" y="1492.1052631578948" type="curve"/>
      <point x="399.01052631578943" y="1492.1052631578948" type="line"/>
      <point x="414.0421052631579" y="1339.6421052631579"/>
      <point x="424.61052631578946" y="1187.178947368421"/>
      <point x="434.0" y="1035.8947368421052" type="curve"/>
      <point x="424.61052631578946" y="882.2526315789473"/>
      <point x="414.0421052631579" y="729.7894736842105"/>
    </contour>
  </outline>
</glyph>
<glyph name="comma" format="2">
  <advance width="475.62105263157895"/>
  <unicode hex="002C"/>
  <outline>
    <contour>
      <point x="48.126315789473686" y="-314.0" type="curve"/>
      <point x="168.16842105263157" y="-311.17894736842106" type="line"/>
      <point x="247.2" y="-218.10526315789474"/>
      <point x="380.82105263157894" y="-23.684210526315788"/>
      <point x="380.82105263157894" y="123.30526315789473" type="curve" smooth="yes"/>
      <point x="380.82105263157894" y="208.2526315789474"/>
      <point x="343.57894736842104" y="272.63157894736844"/>
      <point x="256.06315789473683" y="282.021052631579" type="curve"/>
      <point x="130.98947368421054" y="273.4526315789474" type="line"/>
      <point x="146.02105263157895" y="200.0"/>
      <point x="152.1263157894737" y="126.54736842105262"/>
      <point x="152.1263157894737" y="58.02105263157895" type="curve"/>
      <point x="152.1263157894737" y="-60.90526315789473"/>
      <point x="113.81052631578947" y="-196.82105263157897"/>
    </contour>
  </outline>
</glyph>
<glyph name="period" format="2">
  <advance width="493.32631578947365"/>
  <unicode hex="002E"/>
  <outline>
    <contour>
      <point x="246.8421052631579" y="-23.74736842105263" type="curve" smooth="yes"/>
      <point x="343.0736842105263" y="-23.74736842105263"/>
      <point x="400.88421052631577" y="28.063157894736843"/>
      <point x="400.88421052631577" y="138.75789473684213" type="curve" smooth="yes"/>
      <point x="400.88421052631577" y="227.13684210526318"/>
      <point x="343.0736842105263" y="275.30526315789473"/>
      <point x="247.66315789473686" y="275.30526315789473" type="curve" smooth="yes"/>
      <point x="152.61052631578949" y="275.30526315789473"/>
      <point x="93.62105263157895" y="227.13684210526318"/>
      <point x="93.62105263157895" y="138.75789473684213" type="curve" smooth="yes"/>
      <point x="93.62105263157895" y="28.063157894736843"/>
      <point x="152.61052631578949" y="-23.74736842105263"/>
    </contour>
  </outline>
</glyph>
<glyph name="slash" format="2">
  <advance width="914.5894736842105"/>
  <unicode hex="002F"/>
  <outline>
    <contour>
      <point x="41.51578947368421" y="0.0" type="curve"/>
      <point x="285.4736842105263" y="0.0" type="line"/>
      <point x="333.05263157894734" y="148.0"/>
      <point x="382.4842105263158" y="274.0"/>
      <point x="458.2736842105263" y="456.0" type="curve"/>
      <point x="660.9263157894736" y="948.0" type="line"/>
      <point x="740.7157894736843" y="1142.0"/>
      <point x="795.7894736842105" y="1272.0"/>
      <point x="873.0736842105263" y="1426.0" type="curve"/>
      <point x="629.9368421052632" y="1426.0" type="line"/>
      <point x="579.1789473684211" y="1272.0"/>
      <point x="527.7473684210527" y="1141.178947368421"/>
      <point x="449.9578947368421" y="952.0" type="curve"/>
      <point x="245.30526315789473" y="456.0" type="line"/>
      <point x="169.5157894736842" y="274.0"/>
      <point x="114.44210526315788" y="148.0"/>
    </contour>
  </outline>
</glyph>
<glyph name="one" format="2">
  <advance width="883.3263157894737"/>
  <unicode hex="0031"/>
  <outline>
    <contour>
      <point x="113.9578947368421" y="924.4842105263158" type="line"/>
      <point x="260.42105263157896" y="1016.5894736842105"/>
      <point x="410.1684210526316" y="1096.842105263158"/>
      <point x="561.9157894736842" y="1175.0947368421052" type="curve"/>
      <point x="569.3052631578947" y="1380.2105263157894" type="line"/>
      <point x="397.6" y="1292.2105263157894"/>
      <point x="226.2526315789474" y="1205.3894736842105"/>
      <point x="50.90526315789473" y="1131.6" type="curve"/>
    </contour>
    <contour>
      <point x="437.13684210526316" y="0.0" type="curve"/>
      <point x="696.8" y="0.0" type="line"/>
      <point x="683.4105263157895" y="145.07368421052632"/>
      <point x="678.4842105263158" y="270.9684210526316"/>
      <point x="678.4842105263158" y="435.4315789473684" type="curve"/>
      <point x="678.4842105263158" y="895.6421052631579" type="line"/>
      <point x="678.4842105263158" y="1060.7157894736843"/>
      <point x="682.9473684210526" y="1219.8947368421052"/>
      <point x="696.8" y="1372.9263157894736" type="curve"/>
      <point x="569.3052631578947" y="1380.2105263157894" type="line"/>
      <point x="444.88421052631577" y="1277.7052631578947" type="line"/>
      <point x="451.4526315789474" y="1136.2736842105264"/>
      <point x="454.2736842105263" y="995.6631578947369"/>
      <point x="454.2736842105263" y="855.4105263157895" type="curve"/>
      <point x="454.2736842105263" y="435.4315789473684" type="line"/>
      <point x="454.2736842105263" y="270.9684210526316"/>
      <point x="448.5263157894737" y="145.07368421052632"/>
    </contour>
  </outline>
</glyph>
<glyph name="two" format="2">
  <advance width="1120.4842105263158"/>
  <unicode hex="0032"/>
  <outline>
    <contour>
      <point x="92.86315789473684" y="0.0" type="line"/>
      <point x="1021.0105263157894" y="0.0" type="line"/>
      <point x="1021.0105263157894" y="216.25263157894736" type="line"/>
      <point x="875.8947368421052" y="197.4736842105263"/>
      <point x="729.6" y="194.65263157894736"/>
      <point x="584.4842105263158" y="194.65263157894736" type="curve"/>
      <point x="317.7894736842105" y="194.65263157894736" type="line"/>
      <point x="348.5684210526316" y="149.9157894736842" type="line"/>
      <point x="561.0105263157894" y="325.6842105263158" type="line"/>
      <point x="851.3473684210526" y="565.6"/>
      <point x="998.5052631578948" y="778.0"/>
      <point x="998.5052631578948" y="999.578947368421" type="curve" smooth="yes"/>
      <point x="998.5052631578948" y="1247.6421052631579"/>
      <point x="838.5473684210526" y="1400.2105263157894"/>
      <point x="550.8842105263158" y="1400.2105263157894" type="curve" smooth="yes"/>
      <point x="409.0315789473684" y="1400.2105263157894"/>
      <point x="200.25263157894736" y="1330.421052631579"/>
      <point x="86.0421052631579" y="1289.7052631578947" type="curve"/>
      <point x="107.89473684210526" y="1067.0947368421052" type="line"/>
      <point x="271.83157894736837" y="1156.1684210526316"/>
      <point x="441.83157894736837" y="1206.4842105263158"/>
      <point x="509.8315789473684" y="1206.4842105263158" type="curve"/>
      <point x="681.6421052631579" y="1202.842105263158"/>
      <point x="767.3684210526316" y="1127.578947368421"/>
      <point x="767.3684210526316" y="972.1263157894737" type="curve" smooth="yes"/>
      <point x="767.3684210526316" y="778.6105263157895"/>
      <point x="600.6105263157895" y="596.2736842105263"/>
      <point x="327.66315789473686" y="358.14736842105265" type="curve"/>
      <point x="249.5157894736842" y="290.82105263157894"/>
      <point x="171.01052631578946" y="229.2421052631579"/>
      <point x="92.86315789473684" y="171.66315789473686" type="curve"/>
    </contour>
  </outline>
</glyph>
<glyph name="three" format="2">
  <advance width="1150.6896551724137"/>
  <unicode hex="0033"/>
  <outline>
    <contour>
      <point x="555.1724137931035" y="-23.379310344827587" type="curve" smooth="yes"/>
      <point x="896.6206896551724" y="-23.379310344827587"/>
      <point x="1057.5862068965516" y="146.41379310344828"/>
      <point x="1057.5862068965516" y="370.55172413793105" type="curve" smooth="yes"/>
      <point x="1057.5862068965516" y="589.3793103448276"/>
      <point x="899.3103448275862" y="696.2068965517242"/>
      <point x="755.1034482758621" y="722.0" type="curve"/>
      <point x="755.1034482758621" y="741.1724137931035" type="line"/>
      <point x="897.5172413793103" y="773.5862068965517"/>
      <point x="1014.551724137931" y="885.448275862069"/>
      <point x="1014.551724137931" y="1057.448275862069" type="curve" smooth="yes"/>
      <point x="1014.551724137931" y="1268.2068965517242"/>
      <point x="840.7586206896551" y="1400.9655172413793"/>
      <point x="565.1724137931035" y="1400.9655172413793" type="curve" smooth="yes"/>
      <point x="426.2068965517241" y="1400.9655172413793"/>
      <point x="221.86206896551724" y="1325.7241379310346"/>
      <point x="110.6896551724138" y="1283.103448275862" type="curve"/>
      <point x="133.44827586206895" y="1069.2413793103449" type="line"/>
      <point x="295.51724137931035" y="1158.6896551724137"/>
      <point x="465.3103448275862" y="1206.0689655172414"/>
      <point x="531.3103448275862" y="1206.0689655172414" type="curve"/>
      <point x="677.8620689655173" y="1202.2758620689656"/>
      <point x="784.0" y="1145.7931034482758"/>
      <point x="784.0" y="1016.2068965517242" type="curve" smooth="yes"/>
      <point x="784.0" y="890.6206896551724"/>
      <point x="688.0689655172414" y="802.6206896551724"/>
      <point x="464.13793103448273" y="799.0344827586207" type="curve"/>
      <point x="419.58620689655174" y="799.0344827586207"/>
      <point x="375.0344827586207" y="800.8275862068965"/>
      <point x="332.2758620689655" y="808.2068965517242" type="curve"/>
      <point x="332.2758620689655" y="609.7241379310345" type="line"/>
      <point x="380.41379310344826" y="615.3103448275863"/>
      <point x="426.7586206896552" y="617.1034482758621"/>
      <point x="476.6896551724138" y="617.1034482758621" type="curve"/>
      <point x="698.6206896551724" y="613.5172413793103"/>
      <point x="827.0344827586207" y="536.551724137931"/>
      <point x="827.0344827586207" y="386.6896551724138" type="curve" smooth="yes"/>
      <point x="827.0344827586207" y="260.48275862068965"/>
      <point x="741.3103448275862" y="173.51724137931035"/>
      <point x="533.448275862069" y="169.72413793103448" type="curve"/>
      <point x="410.6206896551724" y="169.72413793103448"/>
      <point x="248.06896551724137" y="221.31034482758622"/>
      <point x="103.0344827586207" y="291.93103448275866" type="curve"/>
      <point x="82.06896551724138" y="76.48275862068967" type="line"/>
      <point x="188.06896551724137" y="41.44827586206897"/>
      <point x="351.65517241379314" y="-23.379310344827587"/>
    </contour>
  </outline>
</glyph>
<glyph name="five" format="2">
  <advance width="1155.7241379310344"/>
  <unicode hex="0035"/>
  <outline>
    <contour>
      <point x="549.3793103448276" y="-23.379310344827587" type="curve" smooth="yes"/>
      <point x="890.6206896551724" y="-23.379310344827587"/>
      <point x="1062.6206896551723" y="169.17241379310346"/>
      <point x="1062.6206896551723" y="453.7241379310345" type="curve" smooth="yes"/>
      <point x="1062.6206896551723" y="751.5172413793103"/>
      <point x="872.9655172413793" y="892.8965517241379"/>
      <point x="639.9310344827586" y="892.8965517241379" type="curve" smooth="yes"/>
      <point x="557.5862068965517" y="892.8965517241379"/>
      <point x="467.3103448275862" y="867.2413793103449"/>
      <point x="398.48275862068965" y="835.7931034482758" type="curve"/>
      <point x="379.3103448275862" y="835.7931034482758" type="line"/>
      <point x="379.3103448275862" y="917.3103448275862" type="line"/>
      <point x="381.1034482758621" y="1027.448275862069"/>
      <point x="386.6896551724138" y="1139.5862068965516"/>
      <point x="395.6551724137931" y="1251.7241379310344" type="curve"/>
      <point x="304.8965517241379" y="1178.896551724138" type="line"/>
      <point x="505.7241379310345" y="1178.896551724138" type="line"/>
      <point x="664.1379310344828" y="1178.896551724138"/>
      <point x="826.551724137931" y="1177.103448275862"/>
      <point x="985.1724137931035" y="1156.7586206896551" type="curve"/>
      <point x="985.1724137931035" y="1373.3793103448277" type="line"/>
      <point x="148.3448275862069" y="1373.3793103448277" type="line"/>
      <point x="163.10344827586206" y="1215.0344827586207"/>
      <point x="165.10344827586206" y="1040.6896551724137"/>
      <point x="165.10344827586206" y="854.551724137931" type="curve"/>
      <point x="165.10344827586206" y="634.6206896551724" type="line"/>
      <point x="263.44827586206895" y="627.0344827586207" type="line"/>
      <point x="356.9655172413793" y="688.1379310344828"/>
      <point x="461.6551724137931" y="708.7586206896551"/>
      <point x="539.5172413793103" y="708.7586206896551" type="curve"/>
      <point x="706.2758620689656" y="704.9655172413793"/>
      <point x="832.0689655172414" y="634.2758620689656"/>
      <point x="832.0689655172414" y="444.7586206896552" type="curve" smooth="yes"/>
      <point x="832.0689655172414" y="270.6896551724138"/>
      <point x="733.5172413793103" y="173.51724137931035"/>
      <point x="529.6551724137931" y="169.72413793103448" type="curve"/>
      <point x="408.6206896551724" y="169.72413793103448"/>
      <point x="248.06896551724137" y="221.31034482758622"/>
      <point x="103.0344827586207" y="291.93103448275866" type="curve"/>
      <point x="82.06896551724138" y="76.48275862068967" type="line"/>
      <point x="188.06896551724137" y="41.44827586206897"/>
      <point x="349.65517241379314" y="-23.379310344827587"/>
    </contour>
  </outline>
</glyph>
<glyph name="six" format="2">
  <advance width="1221.3103448275863"/>
  <unicode hex="0036"/>
  <outline>
    <contour>
      <point x="640.1379310344828" y="-23.379310344827587" type="curve" smooth="yes"/>
      <point x="970.2068965517242" y="-23.379310344827587"/>
      <point x="1128.2068965517242" y="212.9655172413793"/>
      <point x="1128.2068965517242" y="465.3103448275862" type="curve" smooth="yes"/>
      <point x="1128.2068965517242" y="723.8620689655172"/>
      <point x="960.6206896551724" y="896.8965517241379"/>
      <point x="702.3448275862069" y="896.8965517241379" type="curve" smooth="yes"/>
      <point x="554.2068965517242" y="896.8965517241379"/>
      <point x="433.51724137931035" y="826.4137931034483"/>
      <point x="344.2758620689655" y="749.3793103448276" type="curve"/>
      <point x="313.1034482758621" y="751.3793103448276" type="line"/>
      <point x="267.8620689655172" y="669.5862068965517"/>
      <point x="266.0689655172414" y="637.1724137931035"/>
      <point x="314.8965517241379" y="562.8965517241379" type="curve"/>
      <point x="405.44827586206895" y="662.2758620689656"/>
      <point x="527.448275862069" y="712.551724137931"/>
      <point x="637.7931034482758" y="714.551724137931" type="curve"/>
      <point x="821.3103448275863" y="708.9655172413793"/>
      <point x="904.8275862068965" y="598.9655172413793"/>
      <point x="904.8275862068965" y="452.7586206896552" type="curve" smooth="yes"/>
      <point x="904.8275862068965" y="304.7586206896552"/>
      <point x="819.3103448275863" y="175.51724137931035"/>
      <point x="631.1724137931035" y="169.72413793103448" type="curve"/>
      <point x="433.2413793103448" y="180.89655172413794"/>
      <point x="321.1034482758621" y="325.9310344827586"/>
      <point x="321.1034482758621" y="658.1379310344828" type="curve" smooth="yes"/>
      <point x="321.1034482758621" y="1021.0344827586207"/>
      <point x="423.6551724137931" y="1198.4827586206898"/>
      <point x="675.6551724137931" y="1206.0689655172414" type="curve"/>
      <point x="733.448275862069" y="1206.0689655172414"/>
      <point x="880.6206896551723" y="1166.6896551724137"/>
      <point x="1023.6551724137931" y="1097.448275862069" type="curve"/>
      <point x="1046.6206896551723" y="1309.3103448275863" type="line"/>
      <point x="951.448275862069" y="1341.9310344827586"/>
      <point x="778.4827586206897" y="1400.9655172413793"/>
      <point x="661.3103448275862" y="1400.9655172413793" type="curve" smooth="yes"/>
      <point x="315.7241379310345" y="1400.9655172413793"/>
      <point x="101.3103448275862" y="1158.2068965517242"/>
      <point x="101.3103448275862" y="663.7241379310345" type="curve" smooth="yes"/>
      <point x="101.3103448275862" y="214.41379310344828"/>
      <point x="288.6896551724138" y="-23.379310344827587"/>
    </contour>
  </outline>
</glyph>
<glyph name="seven" format="2">
  <advance width="1072.9052631578948"/>
  <unicode hex="0037"/>
  <outline>
    <contour>
      <point x="196.73684210526315" y="0.0" type="curve"/>
      <point x="475.4315789473684" y="0.0" type="line"/>
      <point x="528.9052631578948" y="159.68421052631578"/>
      <point x="594.1263157894737" y="318.0842105263158"/>
      <point x="664.7368421052631" y="475.41052631578947" type="curve"/>
      <point x="786.7789473684211" y="746.8842105263158" type="line"/>
      <point x="859.7473684210527" y="910.1052631578948"/>
      <point x="927.5368421052632" y="1057.6842105263158"/>
      <point x="999.3263157894737" y="1201.0526315789475" type="curve"/>
      <point x="999.3263157894737" y="1372.9263157894736" type="line"/>
      <point x="50.0" y="1372.9263157894736" type="line"/>
      <point x="50.0" y="1154.2105263157896" type="line"/>
      <point x="212.4" y="1173.3473684210528"/>
      <point x="373.9789473684211" y="1178.2736842105264"/>
      <point x="534.378947368421" y="1178.2736842105264" type="curve"/>
      <point x="806.1052631578948" y="1178.2736842105264" type="line"/>
      <point x="747.4105263157895" y="1225.3684210526317" type="line"/>
      <point x="713.3684210526316" y="1126.4"/>
      <point x="671.9368421052632" y="1027.7894736842104"/>
      <point x="626.8631578947368" y="928.8210526315789" type="curve"/>
      <point x="442.5684210526316" y="524.4842105263158" type="line"/>
      <point x="364.77894736842103" y="352.4421052631579"/>
      <point x="282.16842105263163" y="174.4"/>
    </contour>
  </outline>
</glyph>
<glyph name="at" format="2">
  <advance width="1772.1684210526316"/>
  <unicode hex="0040"/>
  <outline>
    <contour>
      <point x="948.2105263157895" y="-272.7368421052632" type="curve" smooth="yes"/>
      <point x="1117.8526315789475" y="-272.7368421052632"/>
      <point x="1348.5684210526317" y="-201.7684210526316"/>
      <point x="1513.8526315789475" y="-132.2315789473684" type="curve"/>
      <point x="1513.8526315789475" y="27.515789473684208" type="line"/>
      <point x="1301.178947368421" y="-77.05263157894737"/>
      <point x="1077.0736842105264" y="-130.02105263157895"/>
      <point x="948.2105263157895" y="-137.66315789473686" type="curve"/>
      <point x="403.7684210526316" y="-130.02105263157895"/>
      <point x="159.26315789473685" y="235.6421052631579"/>
      <point x="252.54736842105262" y="670.1052631578947" type="curve" smooth="yes"/>
      <point x="330.69473684210527" y="1035.9157894736843"/>
      <point x="582.0" y="1224.0842105263157"/>
      <point x="938.2105263157895" y="1231.7263157894736" type="curve"/>
      <point x="1360.2947368421053" y="1224.0842105263157"/>
      <point x="1603.157894736842" y="932.9894736842106"/>
      <point x="1522.8" y="528.021052631579" type="curve" smooth="yes"/>
      <point x="1494.9052631578948" y="387.7263157894737"/>
      <point x="1374.463157894737" y="271.38947368421054"/>
      <point x="1290.8842105263159" y="268.10526315789474" type="curve"/>
      <point x="1196.5894736842106" y="273.7473684210526"/>
      <point x="1162.9052631578948" y="337.0315789473684"/>
      <point x="1186.4421052631578" y="451.4315789473684" type="curve"/>
      <point x="1222.2315789473685" y="623.2" type="line"/>
      <point x="1249.0526315789475" y="737.8105263157895"/>
      <point x="1279.5157894736842" y="851.7052631578947"/>
      <point x="1320.8000000000002" y="965.8526315789474" type="curve"/>
      <point x="1144.6736842105263" y="955.7473684210527" type="line"/>
      <point x="1111.8526315789475" y="849.8526315789474" type="line"/>
      <point x="1095.2842105263157" y="849.8526315789474" type="line"/>
      <point x="1040.6736842105263" y="924.0631578947368"/>
      <point x="936.6315789473684" y="977.0315789473684"/>
      <point x="847.4105263157895" y="977.0315789473684" type="curve" smooth="yes"/>
      <point x="661.0526315789474" y="977.0315789473684"/>
      <point x="523.7263157894737" y="825.0736842105263"/>
      <point x="479.8315789473684" y="611.4947368421052" type="curve" smooth="yes"/>
      <point x="429.0105263157895" y="364.82105263157894"/>
      <point x="530.8631578947368" y="141.07368421052632"/>
      <point x="761.3684210526316" y="141.07368421052632" type="curve" smooth="yes"/>
      <point x="837.0526315789474" y="141.07368421052632"/>
      <point x="932.2315789473683" y="186.7157894736842"/>
      <point x="1013.5578947368421" y="274.61052631578946" type="curve"/>
      <point x="1029.3052631578948" y="274.61052631578946" type="line"/>
      <point x="1056.9052631578948" y="195.6842105263158"/>
      <point x="1140.1052631578948" y="122.71578947368421"/>
      <point x="1294.2105263157894" y="122.71578947368421" type="curve" smooth="yes"/>
      <point x="1396.421052631579" y="122.71578947368421"/>
      <point x="1615.8736842105263" y="257.57894736842104"/>
      <point x="1663.2631578947369" y="499.6" type="curve" smooth="yes"/>
      <point x="1755.8315789473686" y="975.7684210526315"/>
      <point x="1444.1263157894737" y="1366.8"/>
      <point x="941.0315789473684" y="1366.8" type="curve" smooth="yes"/>
      <point x="554.4631578947368" y="1366.8"/>
      <point x="207.4736842105263" y="1159.8736842105263"/>
      <point x="111.72631578947369" y="698.6315789473684" type="curve" smooth="yes"/>
      <point x="6.231578947368419" y="194.29473684210527"/>
      <point x="312.7578947368421" y="-272.7368421052632"/>
    </contour>
    <contour>
      <point x="811.2421052631579" y="300.42105263157896" type="curve"/>
      <point x="674.9263157894736" y="304.42105263157896"/>
      <point x="622.2736842105263" y="428.5473684210526"/>
      <point x="654.3157894736842" y="581.6842105263158" type="curve" smooth="yes"/>
      <point x="682.4631578947368" y="714.5263157894736"/>
      <point x="760.5473684210526" y="809.2210526315789"/>
      <point x="888.3578947368421" y="814.0421052631579" type="curve"/>
      <point x="959.1578947368421" y="813.578947368421"/>
      <point x="1021.4947368421052" y="776.4631578947368"/>
      <point x="1067.221052631579" y="727.9157894736842" type="curve"/>
      <point x="1002.1052631578948" y="424.9473684210526" type="line"/>
      <point x="940.9473684210526" y="338.82105263157894"/>
      <point x="871.4315789473684" y="304.42105263157896"/>
    </contour>
  </outline>
</glyph>
<glyph name="A" format="2">
  <advance width="1405.7894736842104"/>
  <unicode hex="0041"/>
  <anchor x="703.3052631578947" y="0.0" name="bottom"/>
  <anchor x="1366.8842105263159" y="0.0" name="ogonek"/>
  <anchor x="703.3052631578947" y="1426.0" name="top"/>
  <outline>
    <contour>
      <point x="33.26315789473684" y="0.0" type="curve"/>
      <point x="317.6" y="0.0" type="line"/>
      <point x="356.5052631578948" y="160.29473684210527"/>
      <point x="405.8736842105263" y="337.0526315789474"/>
      <point x="457.4526315789474" y="494.9894736842105" type="curve"/>
      <point x="693.9157894736842" y="1216.8842105263159" type="line"/>
      <point x="714.1263157894737" y="1216.8842105263159" type="line"/>
      <point x="948.5894736842105" y="488.1684210526316" type="line"/>
      <point x="996.9894736842105" y="337.41052631578947"/>
      <point x="1048.463157894737" y="160.7578947368421"/>
      <point x="1084.5473684210526" y="0.0" type="curve"/>
      <point x="1372.9894736842107" y="0.0" type="line"/>
      <point x="1306.9894736842105" y="152.0"/>
      <point x="1241.8105263157895" y="324.0"/>
      <point x="1187.5578947368422" y="482.0" type="curve"/>
      <point x="1018.4421052631578" y="973.1789473684211" type="line"/>
      <point x="957.8315789473684" y="1147.536842105263"/>
      <point x="917.6842105263158" y="1278.7157894736843"/>
      <point x="883.642105263158" y="1426.0" type="curve"/>
      <point x="529.3263157894737" y="1426.0" type="line"/>
      <point x="494.92631578947373" y="1282.0"/>
      <point x="453.9578947368421" y="1150.0"/>
      <point x="392.52631578947364" y="973.1789473684211" type="curve"/>
      <point x="222.23157894736843" y="483.17894736842106" type="line"/>
      <point x="168.8" y="330.0"/>
      <point x="100.90526315789474" y="153.17894736842106"/>
    </contour>
    <contour>
      <point x="349.53684210526313" y="334.5684210526316" type="line"/>
      <point x="1080.421052631579" y="334.5684210526316" type="line"/>
      <point x="1061.536842105263" y="517.7263157894737" type="line"/>
      <point x="372.52631578947364" y="517.7263157894737" type="line"/>
    </contour>
  </outline>
</glyph>
<glyph name="B" format="2">
  <advance width="1309.0344827586207"/>
  <unicode hex="0042"/>
  <outline>
    <contour>
      <point x="637.9310344827586" y="-9.172413793103448" type="curve"/>
      <point x="1092.9655172413793" y="-9.172413793103448"/>
      <point x="1234.344827586207" y="165.0344827586207"/>
      <point x="1234.344827586207" y="394.9655172413793" type="curve" smooth="yes"/>
      <point x="1234.344827586207" y="612.2068965517242"/>
      <point x="1099.8620689655174" y="704.0"/>
      <point x="943.1724137931035" y="736.7586206896551" type="curve"/>
      <point x="943.1724137931035" y="757.7241379310345" type="line"/>
      <point x="1088.344827586207" y="798.7586206896551"/>
      <point x="1197.7241379310346" y="910.9655172413793"/>
      <point x="1197.7241379310346" y="1092.9655172413793" type="curve" smooth="yes"/>
      <point x="1197.7241379310346" y="1305.3793103448277"/>
      <point x="1063.3103448275863" y="1433.3793103448277"/>
      <point x="716.551724137931" y="1433.3793103448277" type="curve"/>
      <point x="520.6206896551724" y="1433.3793103448277"/>
      <point x="326.34482758620686" y="1426.0"/>
      <point x="153.24137931034483" y="1426.0" type="curve"/>
      <point x="166.20689655172413" y="1267.5862068965516"/>
      <point x="171.58620689655172" y="1129.3793103448277"/>
      <point x="171.58620689655172" y="950.0" type="curve"/>
      <point x="171.58620689655172" y="468.82758620689657" type="line"/>
      <point x="171.58620689655172" y="291.2413793103448"/>
      <point x="166.20689655172413" y="156.6206896551724"/>
      <point x="153.24137931034483" y="0.0" type="curve"/>
      <point x="306.9655172413793" y="0.0"/>
      <point x="432.0" y="-9.172413793103448"/>
    </contour>
    <contour>
      <point x="411.7241379310345" y="194.6896551724138" type="line"/>
      <point x="407.7241379310345" y="296.62068965517244"/>
      <point x="405.9310344827586" y="393.9310344827586"/>
      <point x="405.9310344827586" y="519.0344827586207" type="curve"/>
      <point x="405.9310344827586" y="896.2068965517242" type="line"/>
      <point x="405.9310344827586" y="1024.896551724138"/>
      <point x="407.7241379310345" y="1125.7931034482758"/>
      <point x="411.7241379310345" y="1231.3103448275863" type="curve"/>
      <point x="698.2068965517242" y="1231.3103448275863" type="line" smooth="yes"/>
      <point x="866.0689655172414" y="1231.3103448275863"/>
      <point x="950.6206896551724" y="1167.448275862069"/>
      <point x="950.6206896551724" y="1033.7931034482758" type="curve" smooth="yes"/>
      <point x="950.6206896551724" y="912.4137931034483"/>
      <point x="867.5172413793103" y="813.3793103448276"/>
      <point x="675.3793103448276" y="813.3793103448276" type="curve" smooth="yes"/>
      <point x="350.8965517241379" y="813.3793103448276" type="line"/>
      <point x="350.8965517241379" y="626.0689655172414" type="line"/>
      <point x="681.5172413793103" y="626.0689655172414" type="line" smooth="yes"/>
      <point x="875.0344827586207" y="626.0689655172414"/>
      <point x="985.448275862069" y="563.5862068965517"/>
      <point x="985.448275862069" y="414.6896551724138" type="curve" smooth="yes"/>
      <point x="985.448275862069" y="275.8620689655172"/>
      <point x="893.3103448275862" y="194.6896551724138"/>
      <point x="659.655172413793" y="194.6896551724138" type="curve" smooth="yes"/>
    </contour>
  </outline>
</glyph>
<glyph name="C" format="2">
  <advance width="1367.8947368421052"/>
  <unicode hex="0043"/>
  <anchor x="795.4315789473684" y="0.0" name="bottom"/>
  <anchor x="783.6421052631579" y="1426.0" name="top"/>
  <outline>
    <contour>
      <point x="829.8947368421053" y="-23.74736842105263" type="curve" smooth="yes"/>
      <point x="980.2105263157894" y="-23.74736842105263"/>
      <point x="1145.1368421052632" y="18.71578947368421"/>
      <point x="1263.957894736842" y="65.93684210526315" type="curve"/>
      <point x="1247.8526315789475" y="298.2947368421053" type="line"/>
      <point x="1124.2105263157896" y="221.36842105263156"/>
      <point x="972.1052631578948" y="177.7263157894737"/>
      <point x="855.4526315789474" y="177.7263157894737" type="curve"/>
      <point x="513.0947368421052" y="184.54736842105262"/>
      <point x="339.5368421052632" y="420.7157894736842"/>
      <point x="339.5368421052632" y="713.5368421052632" type="curve" smooth="yes"/>
      <point x="339.5368421052632" y="1046.9263157894736"/>
      <point x="543.8105263157895" y="1239.2421052631578"/>
      <point x="800.7157894736843" y="1246.0631578947368" type="curve"/>
      <point x="879.8947368421053" y="1246.0631578947368"/>
      <point x="1045.7894736842104" y="1208.421052631579"/>
      <point x="1253.6421052631579" y="1113.4947368421053" type="curve"/>
      <point x="1273.494736842105" y="1345.4947368421053" type="line"/>
      <point x="1155.8526315789475" y="1390.2105263157894"/>
      <point x="969.9578947368421" y="1453.2842105263157"/>
      <point x="803.5368421052632" y="1453.2842105263157" type="curve" smooth="yes"/>
      <point x="369.66315789473686" y="1453.2842105263157"/>
      <point x="90.4421052631579" y="1144.6105263157895"/>
      <point x="90.4421052631579" y="713.8947368421053" type="curve" smooth="yes"/>
      <point x="90.4421052631579" y="283.0105263157895"/>
      <point x="372.7578947368421" y="-23.74736842105263"/>
    </contour>
  </outline>
</glyph>
<glyph name="E" format="2">
  <advance width="1192.7586206896553"/>
  <unicode hex="0045"/>
  <anchor x="625.655172413793" y="0.0" name="bottom"/>
  <anchor x="1081.103448275862" y="0.0" name="ogonek"/>
  <anchor x="625.655172413793" y="1426.0" name="top"/>
  <anchor x="74.0" y="1426.0" name="topleft"/>
  <outline>
    <contour>
      <point x="153.24137931034483" y="0.0" type="curve"/>
      <point x="426.2758620689655" y="0.0" type="line"/>
      <point x="426.2758620689655" y="36.689655172413794" type="line"/>
      <point x="411.3103448275862" y="193.31034482758622"/>
      <point x="405.9310344827586" y="329.7241379310345"/>
      <point x="405.9310344827586" y="505.51724137931035" type="curve"/>
      <point x="405.9310344827586" y="913.5172413793103" type="line"/>
      <point x="405.9310344827586" y="1092.896551724138"/>
      <point x="411.3103448275862" y="1231.103448275862"/>
      <point x="426.2758620689655" y="1389.5172413793102" type="curve"/>
      <point x="426.2758620689655" y="1426.0" type="line"/>
      <point x="153.24137931034483" y="1426.0" type="line"/>
      <point x="166.20689655172413" y="1267.5862068965516"/>
      <point x="171.58620689655172" y="1129.3793103448277"/>
      <point x="171.58620689655172" y="950.0" type="curve"/>
      <point x="171.58620689655172" y="468.82758620689657" type="line"/>
      <point x="171.58620689655172" y="291.2413793103448"/>
      <point x="166.20689655172413" y="156.6206896551724"/>
    </contour>
    <contour>
      <point x="377.7931034482759" y="0.0" type="line"/>
      <point x="1086.4827586206898" y="0.0" type="line"/>
      <point x="1086.4827586206898" y="222.41379310344828" type="line"/>
      <point x="946.8275862068965" y="205.6551724137931"/>
      <point x="798.9655172413793" y="201.86206896551724"/>
      <point x="630.8965517241379" y="201.86206896551724" type="curve"/>
      <point x="377.7931034482759" y="201.86206896551724" type="line"/>
    </contour>
    <contour>
      <point x="352.6896551724138" y="624.0689655172414" type="line"/>
      <point x="622.7586206896551" y="624.0689655172414" type="line"/>
      <point x="798.2068965517242" y="624.0689655172414"/>
      <point x="917.0344827586207" y="622.2758620689656"/>
      <point x="1046.0689655172414" y="614.8965517241379" type="curve"/>
      <point x="1046.0689655172414" y="831.9310344827586" type="line"/>
      <point x="923.2413793103448" y="820.5517241379309"/>
      <point x="804.2068965517242" y="818.7586206896551"/>
      <point x="622.9655172413793" y="818.7586206896551" type="curve"/>
      <point x="352.6896551724138" y="818.7586206896551" type="line"/>
    </contour>
    <contour>
      <point x="365.2413793103448" y="1224.1379310344828" type="line"/>
      <point x="612.1379310344828" y="1224.1379310344828" type="line"/>
      <point x="812.4137931034483" y="1224.1379310344828"/>
      <point x="951.8620689655172" y="1218.5517241379312"/>
      <point x="1081.3103448275863" y="1203.5862068965519" type="curve"/>
      <point x="1081.3103448275863" y="1426.0" type="line"/>
      <point x="365.2413793103448" y="1426.0" type="line"/>
    </contour>
  </outline>
</glyph>
<glyph name="G" format="2">
  <advance width="1461.6842105263158"/>
  <unicode hex="0047"/>
  <anchor x="795.4315789473684" y="0.0" name="bottom"/>
  <anchor x="795.4315789473684" y="1426.0" name="top"/>
  <outline>
    <contour>
      <point x="853.9368421052632" y="-22.926315789473684" type="curve" smooth="yes"/>
      <point x="1040.5052631578947" y="-22.926315789473684"/>
      <point x="1241.7052631578947" y="21.789473684210527"/>
      <point x="1344.6315789473686" y="51.93684210526315" type="curve"/>
      <point x="1304.7157894736843" y="276.90526315789475" type="line"/>
      <point x="1170.6105263157895" y="203.26315789473682"/>
      <point x="1028.0631578947368" y="173.62105263157895"/>
      <point x="872.8210526315789" y="173.62105263157895" type="curve"/>
      <point x="504.021052631579" y="180.44210526315788"/>
      <point x="337.89473684210526" y="413.89473684210526"/>
      <point x="337.89473684210526" y="713.8947368421053" type="curve" smooth="yes"/>
      <point x="337.89473684210526" y="1050.9263157894736"/>
      <point x="547.5578947368421" y="1240.0631578947368"/>
      <point x="807.7894736842105" y="1246.0631578947368" type="curve"/>
      <point x="891.4315789473685" y="1246.0631578947368"/>
      <point x="1067.4315789473685" y="1208.421052631579"/>
      <point x="1289.8526315789475" y="1113.4947368421053" type="curve"/>
      <point x="1309.7052631578947" y="1344.6736842105265" type="line"/>
      <point x="1183.6" y="1389.3894736842105"/>
      <point x="986.778947368421" y="1453.2842105263157"/>
      <point x="809.4315789473684" y="1453.2842105263157" type="curve" smooth="yes"/>
      <point x="371.1578947368421" y="1453.2842105263157"/>
      <point x="90.4421052631579" y="1147.2842105263157"/>
      <point x="90.4421052631579" y="714.7157894736843" type="curve" smooth="yes"/>
      <point x="90.4421052631579" y="291.22105263157897"/>
      <point x="360.86315789473684" y="-22.926315789473684"/>
    </contour>
    <contour>
      <point x="1097.7473684210527" y="51.93684210526316" type="curve"/>
      <point x="1344.6315789473686" y="51.93684210526315" type="line"/>
      <point x="1334.8842105263159" y="194.96842105263158"/>
      <point x="1333.242105263158" y="297.53684210526313"/>
      <point x="1333.242105263158" y="405.7473684210526" type="curve"/>
      <point x="1333.242105263158" y="533.1368421052632"/>
      <point x="1338.1684210526316" y="622.8842105263158"/>
      <point x="1351.2" y="724.2736842105263" type="curve"/>
      <point x="1088.3578947368421" y="724.2736842105263" type="line"/>
      <point x="1100.5684210526317" y="622.8842105263158"/>
      <point x="1107.4947368421053" y="533.1368421052632"/>
      <point x="1107.4947368421053" y="405.7473684210526" type="curve"/>
      <point x="1107.4947368421053" y="297.53684210526313"/>
      <point x="1105.0315789473684" y="194.96842105263158"/>
    </contour>
  </outline>
</glyph>
<glyph name="H" format="2">
  <advance width="1509.0315789473684"/>
  <unicode hex="0048"/>
  <anchor x="754.9263157894736" y="0.0" name="bottom"/>
  <anchor x="754.9263157894736" y="714.0" name="center"/>
  <anchor x="754.9263157894736" y="1426.0" name="top"/>
  <anchor x="77.74736842105264" y="1426.0" name="topleft"/>
  <outline>
    <contour>
      <point x="1078.6315789473683" y="0.0" type="curve"/>
      <point x="1355.4315789473685" y="0.0" type="line"/>
      <point x="1341.221052631579" y="156.25263157894736"/>
      <point x="1336.2947368421053" y="291.3263157894737"/>
      <point x="1336.2947368421053" y="468.61052631578946" type="curve"/>
      <point x="1336.2947368421053" y="949.1789473684211" type="line"/>
      <point x="1336.2947368421053" y="1129.7473684210527"/>
      <point x="1341.221052631579" y="1267.2842105263157"/>
      <point x="1355.4315789473685" y="1426.0" type="curve"/>
      <point x="1078.6315789473683" y="1426.0" type="line"/>
      <point x="1090.842105263158" y="1267.2842105263157"/>
      <point x="1096.5894736842106" y="1129.7473684210527"/>
      <point x="1096.5894736842106" y="949.1789473684211" type="curve"/>
      <point x="1096.5894736842106" y="468.61052631578946" type="line"/>
      <point x="1096.5894736842106" y="291.3263157894737"/>
      <point x="1090.842105263158" y="156.25263157894736"/>
    </contour>
    <contour>
      <point x="153.6" y="0.0" type="curve"/>
      <point x="430.4" y="0.0" type="line"/>
      <point x="416.1894736842105" y="156.25263157894736"/>
      <point x="411.2631578947368" y="291.3263157894737"/>
      <point x="411.2631578947368" y="468.61052631578946" type="curve"/>
      <point x="411.2631578947368" y="949.1789473684211" type="line"/>
      <point x="411.2631578947368" y="1129.7473684210527"/>
      <point x="416.1894736842105" y="1267.2842105263157"/>
      <point x="430.4" y="1426.0" type="curve"/>
      <point x="153.6" y="1426.0" type="line"/>
      <point x="165.81052631578947" y="1267.2842105263157"/>
      <point x="171.55789473684212" y="1129.7473684210527"/>
      <point x="171.55789473684212" y="949.1789473684211" type="curve"/>
      <point x="171.55789473684212" y="468.61052631578946" type="line"/>
      <point x="171.55789473684212" y="291.3263157894737"/>
      <point x="165.81052631578947" y="156.25263157894736"/>
    </contour>
    <contour>
      <point x="336.42105263157896" y="619.2842105263157" type="line"/>
      <point x="1175.7894736842104" y="619.2842105263157" type="line"/>
      <point x="1175.7894736842104" y="821.6842105263158" type="line"/>
      <point x="336.42105263157896" y="821.6842105263158" type="line"/>
    </contour>
  </outline>
</glyph>
<glyph name="J" format="2">
  <advance width="612.6105263157895"/>
  <unicode hex="004A"/>
  <anchor x="312.2736842105263" y="0.0" name="bottom"/>
  <anchor x="312.2736842105263" y="1426.0" name="top"/>
  <outline>
    <contour>
      <point x="23.263157894736842" y="-313.4315789473684" type="curve"/>
      <point x="273.15789473684214" y="-313.4315789473684" type="line"/>
      <point x="346.79999999999995" y="-221.78947368421052"/>
      <point x="448.4421052631579" y="-75.43157894736842"/>
      <point x="448.4421052631579" y="130.88421052631577" type="curve" smooth="yes"/>
      <point x="448.4421052631579" y="282.2315789473684"/>
      <point x="435.76842105263154" y="445.57894736842104"/>
      <point x="435.76842105263154" y="618.4631578947368" type="curve"/>
      <point x="435.76842105263154" y="949.1789473684211" type="line"/>
      <point x="435.76842105263154" y="1129.7473684210527"/>
      <point x="440.6947368421052" y="1267.2842105263157"/>
      <point x="454.9052631578947" y="1426.0" type="curve"/>
      <point x="178.10526315789474" y="1426.0" type="line"/>
      <point x="190.31578947368422" y="1267.2842105263157"/>
      <point x="196.06315789473683" y="1129.7473684210527"/>
      <point x="196.06315789473683" y="949.1789473684211" type="curve"/>
      <point x="196.06315789473683" y="581.9157894736842" type="line"/>
      <point x="194.8842105263158" y="144.2736842105263" type="line"/>
      <point x="194.88421052631577" y="-38.694736842105264"/>
      <point x="129.05263157894737" y="-179.93684210526317"/>
    </contour>
  </outline>
</glyph>
<glyph name="K" format="2">
  <advance width="1365.4315789473685"/>
  <unicode hex="004B"/>
  <anchor x="700.1263157894737" y="0.0" name="bottom"/>
  <anchor x="700.1263157894737" y="1426.0" name="top"/>
  <outline>
    <contour>
      <point x="1002.9473684210526" y="0.0" type="curve"/>
      <point x="1337.0947368421052" y="0.0" type="line"/>
      <point x="1215.8736842105263" y="123.74736842105263"/>
      <point x="1036.2526315789473" y="329.4526315789474"/>
      <point x="905.7052631578947" y="482.58947368421053" type="curve"/>
      <point x="623.8947368421052" y="815.3263157894737" type="line"/>
      <point x="627.9999999999999" y="710.1473684210526" type="line"/>
      <point x="880.378947368421" y="985.8947368421053" type="line"/>
      <point x="1014.9263157894736" y="1132.0"/>
      <point x="1148.6526315789472" y="1276.463157894737"/>
      <point x="1302.1263157894737" y="1426.0" type="curve"/>
      <point x="979.8315789473684" y="1426.0" type="line"/>
      <point x="867.4105263157894" y="1281.6000000000001"/>
      <point x="782.357894736842" y="1181.4526315789474"/>
      <point x="682.1263157894737" y="1070.5894736842106" type="curve"/>
      <point x="469.41052631578947" y="834.9684210526316" type="line"/>
      <point x="387.87368421052633" y="834.9684210526316" type="line"/>
      <point x="387.87368421052633" y="643.2421052631579" type="line"/>
      <point x="471.5157894736842" y="643.2421052631579" type="line"/>
      <point x="714.5263157894736" y="359.1578947368421" type="line"/>
      <point x="809.1157894736841" y="249.83157894736843"/>
      <point x="901.7052631578947" y="137.3263157894737"/>
    </contour>
    <contour>
      <point x="153.6" y="0.0" type="curve"/>
      <point x="429.57894736842104" y="0.0" type="line"/>
      <point x="415.36842105263156" y="156.25263157894736"/>
      <point x="410.4421052631579" y="291.3263157894737"/>
      <point x="410.4421052631579" y="468.61052631578946" type="curve"/>
      <point x="410.4421052631579" y="949.1789473684211" type="line"/>
      <point x="410.4421052631579" y="1129.7473684210527"/>
      <point x="415.36842105263156" y="1267.2842105263157"/>
      <point x="429.57894736842104" y="1426.0" type="curve"/>
      <point x="153.6" y="1426.0" type="line"/>
      <point x="165.81052631578947" y="1267.2842105263157"/>
      <point x="171.55789473684212" y="1129.7473684210527"/>
      <point x="171.55789473684212" y="949.1789473684211" type="curve"/>
      <point x="171.55789473684212" y="468.61052631578946" type="line"/>
      <point x="171.55789473684212" y="291.3263157894737"/>
      <point x="165.81052631578947" y="156.25263157894736"/>
    </contour>
  </outline>
</glyph>
<glyph name="L" format="2">
  <advance width="1142.6736842105263"/>
  <unicode hex="004C"/>
  <anchor x="620.7578947368421" y="0.0" name="bottom"/>
  <anchor x="859.3052631578947" y="716.4631578947368" name="center"/>
  <anchor x="425.57894736842104" y="1426.0" name="top"/>
  <anchor x="583.621052631579" y="994.5684210526316" name="topright"/>
  <outline>
    <contour>
      <point x="153.6" y="0.0" type="curve"/>
      <point x="430.4" y="0.0" type="line"/>
      <point x="430.4" y="37.5578947368421" type="line"/>
      <point x="416.1894736842105" y="193.81052631578947"/>
      <point x="411.2631578947368" y="328.88421052631577"/>
      <point x="411.2631578947368" y="506.1684210526316" type="curve"/>
      <point x="411.2631578947368" y="949.1789473684211" type="line"/>
      <point x="411.2631578947368" y="1129.7473684210527"/>
      <point x="416.1894736842105" y="1267.2842105263157"/>
      <point x="430.4" y="1426.0" type="curve"/>
      <point x="153.6" y="1426.0" type="line"/>
      <point x="165.81052631578947" y="1267.2842105263157"/>
      <point x="171.55789473684212" y="1129.7473684210527"/>
      <point x="171.55789473684212" y="949.1789473684211" type="curve"/>
      <point x="171.55789473684212" y="468.61052631578946" type="line"/>
      <point x="171.55789473684212" y="291.3263157894737"/>
      <point x="165.81052631578947" y="156.25263157894736"/>
    </contour>
    <contour>
      <point x="377.91578947368424" y="0.0" type="line"/>
      <point x="1078.1684210526316" y="0.0" type="line"/>
      <point x="1078.1684210526316" y="235.85263157894738" type="line"/>
      <point x="928.2315789473683" y="218.35789473684213"/>
      <point x="801.0105263157894" y="210.61052631578949"/>
      <point x="581.2842105263157" y="210.61052631578949" type="curve"/>
      <point x="377.91578947368424" y="210.61052631578949" type="line"/>
    </contour>
  </outline>
</glyph>
<glyph name="M" format="2">
  <advance width="1917.2421052631578"/>
  <unicode hex="004D"/>
  <anchor x="958.2105263157895" y="0.0" name="bottom"/>
  <anchor x="958.2105263157895" y="1426.0" name="top"/>
  <outline>
    <contour>
      <point x="101.91578947368421" y="0.0" type="curve"/>
      <point x="368.7578947368421" y="0.0" type="line"/>
      <point x="379.0526315789474" y="231.6"/>
      <point x="397.09473684210525" y="442.12631578947367"/>
      <point x="419.3473684210526" y="623.6842105263158" type="curve"/>
      <point x="467.0315789473684" y="1015.4105263157894" type="line"/>
      <point x="483.7052631578947" y="1015.4105263157894" type="line"/>
      <point x="651.4105263157894" y="591.1789473684211" type="line"/>
      <point x="729.1368421052631" y="394.5473684210526"/>
      <point x="807.7263157894737" y="170.2315789473684"/>
      <point x="864.1684210526315" y="0.0" type="curve"/>
      <point x="1062.463157894737" y="0.0" type="line"/>
      <point x="1120.4421052631578" y="178.8421052631579"/>
      <point x="1193.8526315789472" y="390.5473684210526"/>
      <point x="1269.8315789473684" y="593.5368421052632" type="curve"/>
      <point x="1428.5052631578947" y="1015.4105263157894" type="line"/>
      <point x="1445.178947368421" y="1015.4105263157894" type="line"/>
      <point x="1492.8631578947368" y="623.6842105263158" type="line"/>
      <point x="1515.1157894736841" y="442.12631578947367"/>
      <point x="1531.9789473684211" y="230.77894736842106"/>
      <point x="1543.0947368421052" y="0.0" type="curve"/>
      <point x="1815.3263157894737" y="0.0" type="line"/>
      <point x="1783.9368421052632" y="155.43157894736842"/>
      <point x="1760.1894736842107" y="295.7894736842105"/>
      <point x="1739.3684210526314" y="468.61052631578946" type="curve"/>
      <point x="1680.0842105263157" y="945.1789473684211" type="line"/>
      <point x="1658.0842105263157" y="1119.536842105263"/>
      <point x="1644.5473684210526" y="1265.2842105263157"/>
      <point x="1635.1157894736843" y="1426.0" type="curve"/>
      <point x="1359.2421052631578" y="1426.0" type="line"/>
      <point x="1301.2631578947369" y="1235.5157894736842"/>
      <point x="1240.0" y="1067.6000000000001"/>
      <point x="1171.8105263157895" y="897.2210526315789" type="curve"/>
      <point x="971.6" y="390.8" type="line"/>
      <point x="954.5684210526316" y="390.8" type="line"/>
      <point x="750.2526315789473" y="897.2210526315789" type="line"/>
      <point x="681.2421052631579" y="1067.6000000000001"/>
      <point x="617.5157894736842" y="1236.3368421052633"/>
      <point x="559.5368421052632" y="1426.0" type="curve"/>
      <point x="278.37894736842105" y="1426.0" type="line"/>
      <point x="270.94736842105266" y="1263.2842105263157"/>
      <point x="258.2315789473684" y="1117.178947368421"/>
      <point x="236.23157894736843" y="945.1789473684211" type="curve"/>
      <point x="177.4105263157895" y="468.61052631578946" type="line"/>
      <point x="155.4105263157895" y="295.4315789473684"/>
      <point x="131.66315789473686" y="152.96842105263158"/>
    </contour>
  </outline>
</glyph>
<glyph name="N" format="2">
  <advance width="1514.3578947368421"/>
  <unicode hex="004E"/>
  <anchor x="758.0" y="0.0" name="bottom"/>
  <anchor x="758.0" y="1426.0" name="top"/>
  <outline>
    <contour>
      <point x="153.6" y="0.0" type="curve"/>
      <point x="416.4421052631579" y="0.0" type="line"/>
      <point x="402.2315789473684" y="156.25263157894736"/>
      <point x="397.30526315789473" y="291.3263157894737"/>
      <point x="397.30526315789473" y="468.61052631578946" type="curve"/>
      <point x="397.30526315789473" y="1021.8105263157895" type="line"/>
      <point x="415.15789473684214" y="1021.8105263157895" type="line"/>
      <point x="696.4842105263157" y="621.2210526315789" type="line"/>
      <point x="863.4736842105262" y="383.4736842105263"/>
      <point x="996.3157894736843" y="189.30526315789473"/>
      <point x="1111.8736842105263" y="0.0" type="curve"/>
      <point x="1360.757894736842" y="0.0" type="line"/>
      <point x="1346.5473684210526" y="156.25263157894736"/>
      <point x="1341.621052631579" y="291.3263157894737"/>
      <point x="1341.621052631579" y="468.61052631578946" type="curve"/>
      <point x="1341.621052631579" y="949.1789473684211" type="line"/>
      <point x="1341.621052631579" y="1129.7473684210527"/>
      <point x="1346.5473684210526" y="1267.2842105263157"/>
      <point x="1360.757894736842" y="1426.0" type="curve"/>
      <point x="1097.915789473684" y="1426.0" type="line"/>
      <point x="1110.1263157894737" y="1267.2842105263157"/>
      <point x="1115.8736842105263" y="1129.7473684210527"/>
      <point x="1115.8736842105263" y="949.1789473684211" type="curve"/>
      <point x="1115.8736842105263" y="408.90526315789475" type="line"/>
      <point x="1097.2" y="408.90526315789475" type="line"/>
      <point x="818.3368421052631" y="806.3157894736842" type="line"/>
      <point x="681.4947368421052" y="1000.0210526315789"/>
      <point x="548.4" y="1202.5473684210526"/>
      <point x="410.23157894736846" y="1426.0" type="curve"/>
      <point x="153.6" y="1426.0" type="line"/>
      <point x="165.81052631578947" y="1267.2842105263157"/>
      <point x="171.55789473684212" y="1129.7473684210527"/>
      <point x="171.55789473684212" y="949.1789473684211" type="curve"/>
      <point x="171.55789473684212" y="468.61052631578946" type="line"/>
      <point x="171.55789473684212" y="291.3263157894737"/>
      <point x="165.81052631578947" y="156.25263157894736"/>
    </contour>
  </outline>
</glyph>
<glyph name="P" format="2">
  <advance width="1275.5862068965519"/>
  <unicode hex="0050"/>
  <outline>
    <contour>
      <point x="685.2413793103448" y="537.5172413793103" type="curve"/>
      <point x="1068.344827586207" y="537.5172413793103"/>
      <point x="1200.689655172414" y="732.4827586206897"/>
      <point x="1200.689655172414" y="1001.5862068965517" type="curve" smooth="yes"/>
      <point x="1200.689655172414" y="1304.7586206896551"/>
      <point x="1035.5862068965519" y="1433.3793103448277"/>
      <point x="702.4827586206897" y="1433.3793103448277" type="curve"/>
      <point x="469.0344827586207" y="1433.3793103448277"/>
      <point x="282.7586206896552" y="1426.0"/>
      <point x="153.24137931034483" y="1426.0" type="curve"/>
      <point x="382.1379310344828" y="1231.3103448275863" type="line"/>
      <point x="685.9310344827586" y="1231.3103448275863" type="line" smooth="yes"/>
      <point x="808.4827586206897" y="1231.3103448275863"/>
      <point x="957.1724137931035" y="1204.344827586207"/>
      <point x="957.1724137931035" y="999.7931034482758" type="curve" smooth="yes"/>
      <point x="957.1724137931035" y="812.8965517241379"/>
      <point x="860.0" y="735.7931034482758"/>
      <point x="634.8275862068965" y="735.7931034482758" type="curve" smooth="yes"/>
      <point x="376.2068965517241" y="735.7931034482758" type="line"/>
      <point x="376.2068965517241" y="541.3103448275862" type="line"/>
      <point x="452.6206896551724" y="541.3103448275862"/>
      <point x="586.8275862068965" y="537.5172413793103"/>
    </contour>
    <contour>
      <point x="153.24137931034483" y="0.0" type="curve"/>
      <point x="426.2758620689655" y="0.0" type="line"/>
      <point x="411.3103448275862" y="156.6206896551724"/>
      <point x="407.7241379310345" y="291.2413793103448"/>
      <point x="407.7241379310345" y="468.82758620689657" type="curve"/>
      <point x="407.7241379310345" y="913.5172413793103" type="line"/>
      <point x="407.7241379310345" y="1092.896551724138"/>
      <point x="411.3103448275862" y="1231.103448275862"/>
      <point x="426.2758620689655" y="1389.5172413793102" type="curve"/>
      <point x="153.24137931034483" y="1426.0" type="line"/>
      <point x="166.20689655172413" y="1267.5862068965516"/>
      <point x="171.58620689655172" y="1129.3793103448277"/>
      <point x="171.58620689655172" y="950.0" type="curve"/>
      <point x="171.58620689655172" y="468.82758620689657" type="line"/>
      <point x="171.58620689655172" y="291.2413793103448"/>
      <point x="166.20689655172413" y="156.6206896551724"/>
    </contour>
  </outline>
</glyph>
<glyph name="R" format="2">
  <advance width="1366.0"/>
  <unicode hex="0052"/>
  <anchor x="684.8965517241379" y="0.0" name="bottom"/>
  <anchor x="680.9655172413793" y="1426.0" name="top"/>
  <outline>
    <contour>
      <point x="1014.2758620689656" y="0.0" type="curve"/>
      <point x="1329.448275862069" y="0.0" type="line"/>
      <point x="1234.206896551724" y="108.20689655172414"/>
      <point x="1100.5517241379312" y="279.37931034482756"/>
      <point x="1002.6896551724138" y="410.9655172413793" type="curve"/>
      <point x="790.3448275862069" y="694.551724137931" type="line"/>
      <point x="705.8620689655172" y="594.0" type="line"/>
      <point x="1059.9310344827588" y="596.0"/>
      <point x="1187.8620689655174" y="791.3793103448276"/>
      <point x="1187.8620689655174" y="1029.5172413793102" type="curve" smooth="yes"/>
      <point x="1187.8620689655174" y="1321.1724137931035"/>
      <point x="1015.5862068965516" y="1433.3793103448277"/>
      <point x="680.6896551724137" y="1433.3793103448277" type="curve"/>
      <point x="477.7241379310345" y="1433.3793103448277"/>
      <point x="291.7241379310345" y="1426.0"/>
      <point x="153.24137931034483" y="1426.0" type="curve"/>
      <point x="330.13793103448273" y="1231.3103448275863" type="line"/>
      <point x="671.3103448275862" y="1231.3103448275863" type="line" smooth="yes"/>
      <point x="793.8620689655172" y="1231.3103448275863"/>
      <point x="942.5517241379309" y="1209.5862068965516"/>
      <point x="942.5517241379309" y="1002.6206896551724" type="curve" smooth="yes"/>
      <point x="942.5517241379309" y="809.5862068965517"/>
      <point x="836.4137931034483" y="741.448275862069"/>
      <point x="622.0" y="741.448275862069" type="curve" smooth="yes"/>
      <point x="363.6551724137931" y="741.448275862069" type="line"/>
      <point x="363.6551724137931" y="546.9655172413793" type="line"/>
      <point x="693.0344827586207" y="546.9655172413793" type="line"/>
      <point x="548.6206896551724" y="670.9655172413793" type="line"/>
      <point x="798.8965517241379" y="327.7241379310345" type="line"/>
      <point x="874.2068965517241" y="224.27586206896552"/>
      <point x="942.1379310344828" y="120.62068965517243"/>
    </contour>
    <contour>
      <point x="153.24137931034483" y="0.0" type="curve"/>
      <point x="426.2758620689655" y="0.0" type="line"/>
      <point x="411.3103448275862" y="156.6206896551724"/>
      <point x="407.7241379310345" y="291.2413793103448"/>
      <point x="407.7241379310345" y="468.82758620689657" type="curve"/>
      <point x="407.7241379310345" y="913.5172413793103" type="line"/>
      <point x="407.7241379310345" y="1092.896551724138"/>
      <point x="411.3103448275862" y="1231.103448275862"/>
      <point x="426.2758620689655" y="1389.5172413793102" type="curve"/>
      <point x="153.24137931034483" y="1426.0" type="line"/>
      <point x="166.20689655172413" y="1267.5862068965516"/>
      <point x="171.58620689655172" y="1129.3793103448277"/>
      <point x="171.58620689655172" y="950.0" type="curve"/>
      <point x="171.58620689655172" y="468.82758620689657" type="line"/>
      <point x="171.58620689655172" y="291.2413793103448"/>
      <point x="166.20689655172413" y="156.6206896551724"/>
    </contour>
  </outline>
</glyph>
<glyph name="S" format="2">
  <advance width="1184.0689655172414"/>
  <unicode hex="0053"/>
  <anchor x="598.551724137931" y="0.0" name="bottom"/>
  <anchor x="598.551724137931" y="1426.0" name="top"/>
  <outline>
    <contour>
      <point x="596.8275862068965" y="-23.379310344827587" type="curve" smooth="yes"/>
      <point x="955.448275862069" y="-23.379310344827587"/>
      <point x="1111.3793103448277" y="151.0344827586207"/>
      <point x="1111.3793103448277" y="395.1034482758621" type="curve" smooth="yes"/>
      <point x="1111.3793103448277" y="620.551724137931"/>
      <point x="1001.5862068965517" y="716.551724137931"/>
      <point x="659.3793103448276" y="823.3793103448276" type="curve" smooth="yes"/>
      <point x="443.51724137931035" y="890.4827586206897"/>
      <point x="350.41379310344826" y="941.9310344827586"/>
      <point x="350.41379310344826" y="1061.3103448275863" type="curve" smooth="yes"/>
      <point x="350.41379310344826" y="1188.6206896551726"/>
      <point x="466.8275862068965" y="1247.3103448275863"/>
      <point x="603.448275862069" y="1251.3103448275863" type="curve"/>
      <point x="677.448275862069" y="1251.3103448275863"/>
      <point x="832.4137931034483" y="1215.5172413793105"/>
      <point x="1005.7931034482758" y="1137.103448275862" type="curve"/>
      <point x="1026.7586206896551" y="1365.7241379310344" type="line"/>
      <point x="919.1724137931035" y="1396.9655172413793"/>
      <point x="728.8965517241379" y="1453.5862068965516"/>
      <point x="578.9655172413793" y="1453.5862068965516" type="curve" smooth="yes"/>
      <point x="259.3103448275862" y="1453.5862068965516"/>
      <point x="97.93103448275862" y="1284.6206896551723"/>
      <point x="97.93103448275862" y="1050.551724137931" type="curve" smooth="yes"/>
      <point x="97.93103448275862" y="810.8965517241379"/>
      <point x="252.55172413793105" y="717.5172413793103"/>
      <point x="520.2068965517242" y="636.2758620689656" type="curve" smooth="yes"/>
      <point x="734.2068965517242" y="571.7931034482758"/>
      <point x="860.6896551724138" y="516.1379310344828"/>
      <point x="860.6896551724138" y="380.7586206896552" type="curve" smooth="yes"/>
      <point x="860.6896551724138" y="237.79310344827587"/>
      <point x="742.4827586206898" y="180.68965517241378"/>
      <point x="595.0344827586207" y="177.10344827586206" type="curve"/>
      <point x="466.41379310344826" y="177.10344827586206"/>
      <point x="292.89655172413796" y="222.6896551724138"/>
      <point x="138.48275862068965" y="290.68965517241384" type="curve"/>
      <point x="119.3103448275862" y="60.689655172413794" type="line"/>
      <point x="227.31034482758622" y="31.655172413793103"/>
      <point x="391.3103448275862" y="-23.379310344827587"/>
    </contour>
  </outline>
</glyph>
<glyph name="U" format="2">
  <advance width="1459.0736842105264"/>
  <unicode hex="0055"/>
  <anchor x="731.5368421052632" y="0.0" name="bottom"/>
  <anchor x="931.6631578947369" y="0.0" name="ogonek"/>
  <anchor x="731.5368421052632" y="1426.0" name="top"/>
  <anchor x="1400.1684210526316" y="1426.0" name="topright"/>
  <outline>
    <contour>
      <point x="731.1789473684211" y="-23.74736842105263" type="curve" smooth="yes"/>
      <point x="1131.9157894736843" y="-23.74736842105263"/>
      <point x="1312.336842105263" y="184.39999999999998"/>
      <point x="1312.336842105263" y="536.5263157894736" type="curve" smooth="yes"/>
      <point x="1312.336842105263" y="614.6736842105263"/>
      <point x="1307.0526315789473" y="787.4947368421052"/>
      <point x="1307.0526315789473" y="949.1789473684211" type="curve"/>
      <point x="1307.0526315789473" y="1129.7473684210527"/>
      <point x="1311.978947368421" y="1267.2842105263157"/>
      <point x="1326.1894736842105" y="1426.0" type="curve"/>
      <point x="1050.2105263157896" y="1426.0" type="line"/>
      <point x="1062.421052631579" y="1267.2842105263157"/>
      <point x="1068.1684210526316" y="1129.7473684210527"/>
      <point x="1068.1684210526316" y="949.1789473684211" type="curve"/>
      <point x="1068.1684210526316" y="556.5263157894736" type="line" smooth="yes"/>
      <point x="1068.1684210526316" y="311.38947368421054"/>
      <point x="980.1894736842105" y="183.0105263157895"/>
      <point x="730.3578947368421" y="177.7263157894737" type="curve"/>
      <point x="483.81052631578945" y="183.0105263157895"/>
      <point x="389.7263157894737" y="312.5684210526316"/>
      <point x="389.7263157894737" y="555.3473684210526" type="curve" smooth="yes"/>
      <point x="389.7263157894737" y="949.1789473684211" type="line"/>
      <point x="389.7263157894737" y="1129.7473684210527"/>
      <point x="394.65263157894736" y="1267.2842105263157"/>
      <point x="408.86315789473684" y="1426.0" type="curve"/>
      <point x="132.8842105263158" y="1426.0" type="line"/>
      <point x="145.09473684210525" y="1267.2842105263157"/>
      <point x="150.8421052631579" y="1129.7473684210527"/>
      <point x="150.8421052631579" y="949.1789473684211" type="curve"/>
      <point x="150.8421052631579" y="787.4947368421052"/>
      <point x="145.5578947368421" y="617.9578947368421"/>
      <point x="145.5578947368421" y="537.3473684210526" type="curve" smooth="yes"/>
      <point x="145.5578947368421" y="189.32631578947368"/>
      <point x="317.66315789473686" y="-23.74736842105263"/>
    </contour>
  </outline>
</glyph>
<glyph name="V" format="2">
  <advance width="1395.1157894736841"/>
  <unicode hex="0056"/>
  <anchor x="698.7368421052631" y="0.0" name="bottom"/>
  <anchor x="698.7368421052631" y="1426.0" name="top"/>
  <outline>
    <contour>
      <point x="519.8315789473684" y="0.0" type="curve"/>
      <point x="875.8947368421052" y="0.0" type="line"/>
      <point x="915.578947368421" y="145.17894736842106"/>
      <point x="964.8" y="312.821052631579"/>
      <point x="1012.2315789473685" y="450.82105263157894" type="curve"/>
      <point x="1164.0631578947368" y="900.0" type="line"/>
      <point x="1216.6736842105263" y="1054.821052631579"/>
      <point x="1293.3894736842105" y="1260.9263157894736"/>
      <point x="1365.8526315789472" y="1426.0" type="curve"/>
      <point x="1062.9894736842105" y="1426.0" type="line"/>
      <point x="1012.2947368421053" y="1227.5578947368422"/>
      <point x="948.3157894736842" y="1001.1157894736842"/>
      <point x="886.9473684210526" y="805.1368421052632" type="curve"/>
      <point x="708.378947368421" y="245.2421052631579" type="line"/>
      <point x="688.1684210526315" y="245.2421052631579" type="line"/>
      <point x="513.3473684210526" y="803.1368421052632" type="line"/>
      <point x="452.4421052631579" y="996.4"/>
      <point x="382.9263157894737" y="1229.915789473684"/>
      <point x="334.5894736842105" y="1426.0" type="curve"/>
      <point x="27.263157894736842" y="1426.0" type="line"/>
      <point x="102.90526315789474" y="1258.9263157894736"/>
      <point x="178.8" y="1053.642105263158"/>
      <point x="230.58947368421053" y="900.0" type="curve"/>
      <point x="383.13684210526316" y="452.0" type="line"/>
      <point x="428.9263157894737" y="316.82105263157894"/>
      <point x="480.9684210526316" y="142.82105263157894"/>
    </contour>
  </outline>
</glyph>
<glyph name="W" format="2">
  <advance width="2061.221052631579"/>
  <unicode hex="0057"/>
  <anchor x="1025.0947368421052" y="0.0" name="bottom"/>
  <anchor x="1025.0947368421052" y="1426.0" name="top"/>
  <outline>
    <contour>
      <point x="430.42105263157896" y="0.0" type="curve"/>
      <point x="750.8631578947368" y="0.0" type="line"/>
      <point x="785.0526315789473" y="178.94736842105263"/>
      <point x="833.1368421052632" y="394.04210526315785"/>
      <point x="878.2526315789473" y="570.5263157894736" type="curve"/>
      <point x="1009.2421052631579" y="1086.1894736842105" type="line"/>
      <point x="1029.4526315789474" y="1086.1894736842105" type="line"/>
      <point x="1163.2631578947369" y="571.3473684210526" type="line"/>
      <point x="1209.2" y="394.04210526315785"/>
      <point x="1257.284210526316" y="180.1263157894737"/>
      <point x="1292.6526315789474" y="0.0" type="curve"/>
      <point x="1627.8736842105263" y="0.0" type="line"/>
      <point x="1652.842105263158" y="137.64210526315787"/>
      <point x="1697.4526315789474" y="310.82105263157894"/>
      <point x="1737.3473684210526" y="451.17894736842106" type="curve"/>
      <point x="1864.6736842105263" y="900.0" type="line"/>
      <point x="1908.5684210526315" y="1057.1789473684212"/>
      <point x="1969.3894736842105" y="1258.1052631578948"/>
      <point x="2037.6" y="1426.0" type="curve"/>
      <point x="1729.8105263157895" y="1426.0" type="line"/>
      <point x="1693.2631578947369" y="1236.4842105263158"/>
      <point x="1642.821052631579" y="1011.8947368421053"/>
      <point x="1596.9894736842105" y="826.021052631579" type="curve"/>
      <point x="1464.2105263157894" y="283.36842105263156" type="line"/>
      <point x="1444.0" y="283.36842105263156" type="line"/>
      <point x="1310.1894736842105" y="824.021052631579" type="line"/>
      <point x="1261.8947368421052" y="1014.2526315789474"/>
      <point x="1214.9894736842107" y="1234.126315789474"/>
      <point x="1178.442105263158" y="1426.0" type="curve"/>
      <point x="879.6" y="1426.0" type="line"/>
      <point x="845.4105263157894" y="1237.6631578947367"/>
      <point x="795.3263157894737" y="1009.5368421052632"/>
      <point x="750.2105263157895" y="826.021052631579" type="curve"/>
      <point x="619.2210526315789" y="283.36842105263156" type="line"/>
      <point x="599.0105263157894" y="283.36842105263156" type="line"/>
      <point x="467.41052631578947" y="821.6631578947369" type="line"/>
      <point x="420.4" y="1011.8947368421053"/>
      <point x="371.13684210526316" y="1234.126315789474"/>
      <point x="333.4105263157895" y="1426.0" type="curve"/>
      <point x="24.799999999999997" y="1426.0" type="line"/>
      <point x="91.4736842105263" y="1259.6421052631579"/>
      <point x="153.3684210526316" y="1054.8210526315788"/>
      <point x="197.26315789473685" y="897.6421052631579" type="curve"/>
      <point x="321.7684210526316" y="450.0" type="line"/>
      <point x="359.66315789473686" y="312.82105263157894"/>
      <point x="402.2736842105263" y="142.82105263157897"/>
    </contour>
  </outline>
</glyph>
<glyph name="X" format="2">
  <advance width="1399.2842105263157"/>
  <unicode hex="0058"/>
  <outline>
    <contour>
      <point x="49.515789473684215" y="0.0" type="curve"/>
      <point x="359.09473684210525" y="0.0" type="line"/>
      <point x="415.32631578947365" y="118.65263157894738"/>
      <point x="469.0526315789474" y="221.0526315789474"/>
      <point x="527.5999999999999" y="320.88421052631577" type="curve"/>
      <point x="669.3052631578947" y="564.9052631578948" type="line"/>
      <point x="689.5157894736842" y="564.9052631578948" type="line"/>
      <point x="841.1157894736841" y="322.06315789473683" type="line"/>
      <point x="901.6631578947369" y="225.7684210526316"/>
      <point x="966.5684210526315" y="118.65263157894738"/>
      <point x="1027.157894736842" y="0.0" type="curve"/>
      <point x="1352.2315789473685" y="0.0" type="line"/>
      <point x="1235.5157894736842" y="145.89473684210526"/>
      <point x="1141.7263157894736" y="281.53684210526313"/>
      <point x="1040.0421052631577" y="438.82105263157894" type="curve"/>
      <point x="837.957894736842" y="750.4631578947368" type="line"/>
      <point x="837.957894736842" y="681.1578947368421" type="line"/>
      <point x="1034.5052631578947" y="1012.7578947368421" type="line"/>
      <point x="1105.4736842105265" y="1132.5052631578947"/>
      <point x="1194.4421052631578" y="1276.7157894736843"/>
      <point x="1307.3684210526314" y="1426.0" type="curve"/>
      <point x="996.6105263157895" y="1426.0" type="line"/>
      <point x="937.0947368421052" y="1305.6000000000001"/>
      <point x="874.2947368421052" y="1185.3052631578946"/>
      <point x="813.7473684210526" y="1081.0105263157895" type="curve"/>
      <point x="695.3684210526316" y="876.6736842105263" type="line"/>
      <point x="675.1578947368421" y="876.6736842105263" type="line"/>
      <point x="552.778947368421" y="1079.8315789473684" type="line"/>
      <point x="490.2315789473684" y="1182.9473684210525"/>
      <point x="424.61052631578946" y="1302.8842105263157"/>
      <point x="363.09473684210525" y="1426.0" type="curve"/>
      <point x="48.23157894736842" y="1426.0" type="line"/>
      <point x="168.23157894736843" y="1267.6421052631579"/>
      <point x="253.5578947368421" y="1131.536842105263"/>
      <point x="338.06315789473683" y="996.2526315789473" type="curve"/>
      <point x="520.9684210526316" y="701.7894736842105" type="line"/>
      <point x="520.9684210526316" y="764.5263157894736" type="line"/>
      <point x="312.9894736842105" y="410.3157894736842" type="line"/>
      <point x="225.30526315789473" y="260.5684210526316"/>
      <point x="143.15789473684208" y="130.10526315789474"/>
    </contour>
  </outline>
</glyph>
<glyph name="Y" format="2">
  <advance width="1328.6105263157895"/>
  <unicode hex="0059"/>
  <anchor x="667.7684210526315" y="0.0" name="bottom"/>
  <anchor x="667.7684210526315" y="1426.0" name="top"/>
  <anchor x="40.0" y="1426.0" name="topleft"/>
  <outline>
    <contour>
      <point x="553.1999999999999" y="535.9578947368421" type="line"/>
      <point x="781.5157894736842" y="535.9578947368421" type="line"/>
      <point x="1085.3473684210526" y="1076.5473684210526" type="line"/>
      <point x="1149.242105263158" y="1190.3999999999999"/>
      <point x="1218.778947368421" y="1307.7894736842106"/>
      <point x="1302.6315789473686" y="1426.0" type="curve"/>
      <point x="992.1263157894737" y="1426.0" type="line"/>
      <point x="916.6736842105264" y="1245.5578947368422"/>
      <point x="871.6631578947369" y="1152.6947368421052"/>
      <point x="795.7894736842105" y="1010.2526315789473" type="curve"/>
      <point x="678.6947368421053" y="788.8421052631579" type="line"/>
      <point x="656.8421052631579" y="788.8421052631579" type="line"/>
      <point x="537.0315789473684" y="1016.9684210526316" type="line"/>
      <point x="464.69473684210527" y="1153.8736842105263"/>
      <point x="422.0421052631579" y="1243.5578947368422"/>
      <point x="345.41052631578947" y="1426.0" type="curve"/>
      <point x="27.51578947368421" y="1426.0" type="line"/>
      <point x="125.36842105263158" y="1288.9684210526316"/>
      <point x="184.18947368421053" y="1191.578947368421"/>
      <point x="248.90526315789475" y="1076.5473684210526" type="curve"/>
    </contour>
    <contour>
      <point x="529.9578947368421" y="0.0" type="curve"/>
      <point x="806.7578947368421" y="0.0" type="line"/>
      <point x="792.5473684210526" y="156.25263157894736"/>
      <point x="787.6210526315789" y="291.3263157894737"/>
      <point x="787.6210526315789" y="468.61052631578946" type="curve"/>
      <point x="787.6210526315789" y="736.5684210526316" type="line"/>
      <point x="547.9157894736842" y="736.5684210526316" type="line"/>
      <point x="547.9157894736842" y="468.61052631578946" type="line"/>
      <point x="547.9157894736842" y="291.3263157894737"/>
      <point x="542.1684210526316" y="156.25263157894736"/>
    </contour>
  </outline>
</glyph>
<glyph name="Z" format="2">
  <advance width="1354.9473684210527"/>
  <unicode hex="005A"/>
  <anchor x="678.0631578947368" y="0.0" name="bottom"/>
  <anchor x="678.0631578947368" y="714.0" name="center"/>
  <anchor x="678.0631578947368" y="1426.0" name="top"/>
  <outline>
    <contour>
      <point x="89.47368421052632" y="0.0" type="line"/>
      <point x="1259.578947368421" y="0.0" type="line"/>
      <point x="1259.578947368421" y="228.82105263157894" type="line"/>
      <point x="1106.5684210526315" y="207.32631578947368"/>
      <point x="859.1578947368421" y="201.57894736842104"/>
      <point x="689.4315789473684" y="201.57894736842104" type="curve"/>
      <point x="335.62105263157895" y="201.57894736842104" type="line"/>
      <point x="361.978947368421" y="113.45263157894736" type="line"/>
      <point x="906.1263157894737" y="813.7263157894737" type="line"/>
      <point x="1019.2421052631579" y="960.6315789473684"/>
      <point x="1133.178947368421" y="1106.715789473684"/>
      <point x="1250.2947368421053" y="1239.663157894737" type="curve"/>
      <point x="1250.2947368421053" y="1426.0" type="line"/>
      <point x="107.22105263157894" y="1426.0" type="line"/>
      <point x="107.22105263157894" y="1195.0736842105264" type="line"/>
      <point x="300.4842105263158" y="1217.4947368421053"/>
      <point x="482.2105263157895" y="1224.421052631579"/>
      <point x="642.4" y="1224.421052631579" type="curve"/>
      <point x="1030.9263157894736" y="1224.421052631579" type="line"/>
      <point x="989.8526315789474" y="1303.1157894736841" type="line"/>
      <point x="472.10526315789474" y="628.5684210526316" type="line"/>
      <point x="357.7052631578947" y="479.5578947368421"/>
      <point x="196.69473684210527" y="273.22105263157897"/>
      <point x="89.47368421052632" y="157.8105263157895" type="curve"/>
    </contour>
  </outline>
</glyph>
<glyph name="bracketleft" format="2">
  <advance width="772.1052631578948"/>
  <unicode hex="005B"/>
  <outline>
    <contour>
      <point x="160.5263157894737" y="-238.77894736842106" type="curve"/>
      <point x="395.91578947368424" y="-238.77894736842106" type="line"/>
      <point x="395.91578947368424" y="-201.22105263157894" type="line"/>
      <point x="381.70526315789476" y="-44.96842105263158"/>
      <point x="376.7789473684211" y="90.10526315789474"/>
      <point x="376.7789473684211" y="267.38947368421054" type="curve"/>
      <point x="376.7789473684211" y="1025.6842105263158" type="line"/>
      <point x="376.7789473684211" y="1206.2526315789473"/>
      <point x="381.70526315789476" y="1343.7894736842106"/>
      <point x="395.91578947368424" y="1502.5052631578947" type="curve"/>
      <point x="395.91578947368424" y="1538.8842105263159" type="line"/>
      <point x="160.5263157894737" y="1538.8842105263159" type="line"/>
      <point x="170.2736842105263" y="1380.1684210526316"/>
      <point x="176.02105263157895" y="1242.6315789473683"/>
      <point x="176.02105263157895" y="1062.0631578947368" type="curve"/>
      <point x="176.02105263157895" y="229.83157894736843" type="line"/>
      <point x="176.02105263157895" y="52.54736842105263"/>
      <point x="170.2736842105263" y="-82.52631578947368"/>
    </contour>
    <contour>
      <point x="348.3578947368421" y="-238.77894736842106" type="line"/>
      <point x="734.5052631578948" y="-238.77894736842106" type="line"/>
      <point x="734.5052631578948" y="-49.51578947368421" type="line"/>
      <point x="642.2526315789473" y="-58.90526315789473"/>
      <point x="543.1789473684211" y="-61.368421052631575"/>
      <point x="431.7473684210526" y="-61.368421052631575" type="curve"/>
      <point x="348.3578947368421" y="-61.368421052631575" type="line"/>
    </contour>
    <contour>
      <point x="335.22105263157897" y="1361.4736842105262" type="line"/>
      <point x="418.35789473684207" y="1361.4736842105262" type="line"/>
      <point x="551.7894736842105" y="1361.4736842105262"/>
      <point x="644.5052631578948" y="1356.5473684210526"/>
      <point x="731.578947368421" y="1349.6210526315788" type="curve"/>
      <point x="731.578947368421" y="1538.8842105263159" type="line"/>
      <point x="335.22105263157897" y="1538.8842105263159" type="line"/>
    </contour>
  </outline>
</glyph>
<glyph name="backslash" format="2">
  <advance width="914.5894736842105"/>
  <unicode hex="005C"/>
  <outline>
    <contour>
      <point x="629.1157894736842" y="0.0" type="curve"/>
      <point x="873.0736842105263" y="0.0" type="line"/>
      <point x="800.1473684210526" y="148.0"/>
      <point x="745.0736842105263" y="274.0"/>
      <point x="669.2842105263157" y="456.0" type="curve"/>
      <point x="464.63157894736844" y="952.0" type="line"/>
      <point x="386.8421052631579" y="1141.178947368421"/>
      <point x="335.41052631578947" y="1272.0"/>
      <point x="284.65263157894736" y="1426.0" type="curve"/>
      <point x="41.51578947368421" y="1426.0" type="line"/>
      <point x="118.8" y="1272.0"/>
      <point x="173.87368421052633" y="1142.0"/>
      <point x="253.66315789473686" y="948.0" type="curve"/>
      <point x="456.3157894736842" y="456.0" type="line"/>
      <point x="532.1052631578947" y="274.0"/>
      <point x="581.5368421052632" y="148.0"/>
    </contour>
  </outline>
</glyph>
<glyph name="asciicircum" format="2">
  <advance width="1235.8315789473684"/>
  <unicode hex="005E"/>
  <outline>
    <contour>
      <point x="928.9473684210526" y="742.8421052631579" type="curve"/>
      <point x="1126.9263157894736" y="745.6631578947369" type="line"/>
      <point x="1000.421052631579" y="954.0842105263158"/>
      <point x="876.7368421052631" y="1164.5052631578947"/>
      <point x="770.0842105263158" y="1372.9263157894736" type="curve"/>
      <point x="465.7473684210526" y="1372.9263157894736" type="line"/>
      <point x="359.09473684210525" y="1164.5052631578947"/>
      <point x="235.41052631578947" y="958.0842105263158"/>
      <point x="108.90526315789475" y="749.6631578947369" type="curve"/>
      <point x="307.7052631578947" y="749.6631578947369" type="line"/>
      <point x="412.7157894736842" y="894.5684210526316"/>
      <point x="510.08421052631576" y="1041.4736842105262"/>
      <point x="607.8105263157895" y="1186.378947368421" type="curve"/>
      <point x="628.021052631579" y="1186.378947368421" type="line"/>
      <point x="725.7473684210527" y="1038.6526315789474"/>
      <point x="823.9368421052632" y="890.5684210526316"/>
    </contour>
  </outline>
</glyph>
<glyph name="underscore" format="2">
  <advance width="992.3578947368421"/>
  <unicode hex="005F"/>
  <outline>
    <contour>
      <point x="-20.0" y="-283.4526315789474" type="line"/>
      <point x="109.9578947368421" y="-278.63157894736844"/>
      <point x="237.2" y="-276.1684210526316"/>
      <point x="339.41052631578947" y="-274.5263157894737" type="curve"/>
      <point x="486.2736842105263" y="-274.5263157894737" type="line"/>
      <point x="588.4842105263158" y="-276.1684210526316"/>
      <point x="715.7263157894737" y="-278.63157894736844"/>
      <point x="845.6842105263158" y="-283.4526315789474" type="curve"/>
      <point x="845.6842105263158" y="-86.44210526315788" type="line"/>
      <point x="715.7263157894737" y="-91.26315789473684"/>
      <point x="588.4842105263158" y="-93.72631578947367"/>
      <point x="486.2736842105263" y="-95.36842105263158" type="curve"/>
      <point x="339.41052631578947" y="-95.36842105263158" type="line"/>
      <point x="237.2" y="-93.72631578947367"/>
      <point x="109.9578947368421" y="-91.26315789473684"/>
      <point x="-20.0" y="-86.44210526315788" type="curve"/>
    </contour>
  </outline>
</glyph>
<glyph name="a" format="2">
  <advance width="1062.4827586206895"/>
  <unicode hex="0061"/>
  <anchor x="527.7931034482758" y="0.0" name="bottom"/>
  <anchor x="921.9310344827586" y="0.0" name="ogonek"/>
  <anchor x="527.7931034482758" y="995.1724137931035" name="top"/>
  <outline>
    <contour>
      <point x="387.17241379310343" y="-21.586206896551722" type="curve" smooth="yes"/>
      <point x="508.96551724137936" y="-21.586206896551722"/>
      <point x="642.4137931034484" y="59.172413793103445"/>
      <point x="707.3103448275862" y="126.13793103448278" type="curve"/>
      <point x="726.4827586206897" y="126.13793103448278" type="line"/>
      <point x="765.3103448275863" y="0.0" type="line"/>
      <point x="985.5172413793102" y="0.0" type="line"/>
      <point x="942.5517241379309" y="118.55172413793103"/>
      <point x="921.7241379310344" y="222.6896551724138"/>
      <point x="921.7241379310344" y="317.0344827586207" type="curve"/>
      <point x="921.7241379310344" y="422.0" type="line" smooth="yes"/>
      <point x="921.7241379310344" y="503.2413793103448"/>
      <point x="927.5172413793102" y="604.8275862068965"/>
      <point x="927.5172413793102" y="668.0" type="curve" smooth="yes"/>
      <point x="927.5172413793102" y="914.9655172413793"/>
      <point x="783.5862068965517" y="1018.7586206896551"/>
      <point x="542.551724137931" y="1018.7586206896551" type="curve" smooth="yes"/>
      <point x="400.48275862068965" y="1018.7586206896551"/>
      <point x="227.93103448275863" y="974.344827586207"/>
      <point x="134.55172413793102" y="948.3448275862069" type="curve"/>
      <point x="144.13793103448276" y="743.6551724137931" type="line"/>
      <point x="281.7931034482759" y="798.0689655172414"/>
      <point x="437.9310344827586" y="836.4137931034483"/>
      <point x="490.55172413793105" y="836.4137931034483" type="curve" smooth="yes"/>
      <point x="608.0689655172414" y="836.4137931034483"/>
      <point x="717.7241379310344" y="794.2068965517242"/>
      <point x="711.3103448275862" y="636.551724137931" type="curve"/>
      <point x="417.3103448275862" y="591.448275862069" type="line" smooth="yes"/>
      <point x="259.58620689655174" y="567.0344827586207"/>
      <point x="90.55172413793103" y="494.2758620689655"/>
      <point x="90.55172413793103" y="273.7241379310345" type="curve" smooth="yes"/>
      <point x="90.55172413793103" y="84.82758620689656"/>
      <point x="216.68965517241378" y="-21.586206896551722"/>
    </contour>
    <contour>
      <point x="458.8965517241379" y="151.58620689655174" type="curve" smooth="yes"/>
      <point x="379.8620689655172" y="151.58620689655174"/>
      <point x="312.1379310344828" y="186.48275862068965"/>
      <point x="312.1379310344828" y="282.8965517241379" type="curve" smooth="yes"/>
      <point x="312.1379310344828" y="372.3448275862069"/>
      <point x="370.2068965517241" y="426.7586206896552"/>
      <point x="466.41379310344826" y="444.0" type="curve" smooth="yes"/>
      <point x="635.0344827586207" y="473.44827586206895"/>
      <point x="676.8965517241379" y="484.6896551724138"/>
      <point x="705.9310344827586" y="502.6896551724138" type="curve"/>
      <point x="705.7241379310344" y="328.9655172413793" type="line"/>
      <point x="645.2413793103449" y="220.0"/>
      <point x="528.8275862068965" y="151.58620689655174"/>
    </contour>
  </outline>
</glyph>
<glyph name="b" format="2">
  <advance width="1186.5684210526315"/>
  <unicode hex="0062"/>
  <outline>
    <contour>
      <point x="682.1473684210526" y="-23.74736842105263" type="curve" smooth="yes"/>
      <point x="961.8315789473685" y="-23.74736842105263"/>
      <point x="1097.0526315789473" y="221.6421052631579"/>
      <point x="1097.0526315789473" y="499.6421052631579" type="curve" smooth="yes"/>
      <point x="1097.0526315789473" y="795.2842105263157"/>
      <point x="947.9368421052632" y="1019.4947368421052"/>
      <point x="678.9684210526316" y="1019.4947368421052" type="curve" smooth="yes"/>
      <point x="561.6" y="1019.4947368421052"/>
      <point x="463.5578947368421" y="958.6315789473684"/>
      <point x="393.30526315789473" y="884.8842105263158" type="curve"/>
      <point x="373.09473684210525" y="884.8842105263158" type="line"/>
      <point x="373.09473684210525" y="987.1789473684211" type="line"/>
      <point x="373.09473684210525" y="1166.2105263157894"/>
      <point x="382.12631578947367" y="1329.9578947368423"/>
      <point x="396.33684210526314" y="1489.8526315789475" type="curve"/>
      <point x="119.6421052631579" y="1460.463157894737" type="line"/>
      <point x="145.70526315789476" y="1307.4315789473685"/>
      <point x="155.45263157894738" y="1152.2526315789473"/>
      <point x="155.45263157894738" y="987.1789473684211" type="curve"/>
      <point x="155.45263157894738" y="435.4315789473684" type="line"/>
      <point x="155.45263157894738" y="270.9684210526316"/>
      <point x="149.70526315789476" y="145.07368421052632"/>
      <point x="138.31578947368422" y="0.0" type="curve"/>
      <point x="327.3263157894737" y="0.0" type="line"/>
      <point x="352.2105263157895" y="130.50526315789475" type="line"/>
      <point x="369.9578947368421" y="130.50526315789475" type="line"/>
      <point x="463.38947368421054" y="27.326315789473686"/>
      <point x="576.0" y="-23.74736842105263"/>
    </contour>
    <contour>
      <point x="607.4315789473685" y="165.87368421052633" type="curve"/>
      <point x="515.1999999999999" y="168.33684210526317"/>
      <point x="435.4315789473684" y="217.81052631578947"/>
      <point x="373.09473684210525" y="307.93684210526317" type="curve"/>
      <point x="373.09473684210525" y="708.8842105263158" type="line"/>
      <point x="438.2526315789474" y="786.6526315789474"/>
      <point x="526.7368421052632" y="825.4105263157894"/>
      <point x="605.0736842105264" y="827.4105263157894" type="curve"/>
      <point x="787.4315789473685" y="821.4105263157894"/>
      <point x="874.1263157894738" y="678.3157894736842"/>
      <point x="874.1263157894738" y="498.0" type="curve" smooth="yes"/>
      <point x="874.1263157894738" y="326.0421052631579"/>
      <point x="792.5052631578948" y="171.87368421052633"/>
    </contour>
  </outline>
</glyph>
<glyph name="d" format="2">
  <advance width="1162.063157894737"/>
  <unicode hex="0064"/>
  <anchor x="625.1368421052632" y="0.0" name="bottom"/>
  <anchor x="583.7473684210527" y="497.2842105263158" name="center"/>
  <anchor x="625.1368421052632" y="1454.2105263157894" name="top"/>
  <anchor x="1116.2736842105264" y="994.5684210526316" name="topright"/>
  <outline>
    <contour>
      <point x="504.42105263157896" y="-23.74736842105263" type="curve" smooth="yes"/>
      <point x="610.5684210526316" y="-23.74736842105263"/>
      <point x="720.7157894736843" y="31.431578947368422"/>
      <point x="814.1473684210526" y="135.43157894736842" type="curve"/>
      <point x="831.8947368421052" y="135.43157894736842" type="line"/>
      <point x="846.5684210526316" y="0.0" type="line"/>
      <point x="1049.4315789473683" y="0.0" type="line"/>
      <point x="1036.0421052631577" y="145.07368421052632"/>
      <point x="1031.1157894736841" y="270.9684210526316"/>
      <point x="1031.1157894736841" y="435.4315789473684" type="curve"/>
      <point x="1031.1157894736841" y="987.1789473684211" type="line"/>
      <point x="1031.1157894736841" y="1166.2105263157894"/>
      <point x="1040.1473684210525" y="1329.9578947368423"/>
      <point x="1054.357894736842" y="1489.8526315789475" type="curve"/>
      <point x="777.6631578947369" y="1460.463157894737" type="line"/>
      <point x="803.7263157894737" y="1307.4315789473685"/>
      <point x="813.4736842105264" y="1152.2526315789473"/>
      <point x="813.4736842105264" y="987.1789473684211" type="curve"/>
      <point x="813.4736842105264" y="884.8842105263158" type="line"/>
      <point x="793.2631578947369" y="884.8842105263158" type="line"/>
      <point x="723.0105263157894" y="958.6315789473684"/>
      <point x="624.9684210526316" y="1019.4947368421052"/>
      <point x="507.6" y="1019.4947368421052" type="curve" smooth="yes"/>
      <point x="238.6315789473684" y="1019.4947368421052"/>
      <point x="89.51578947368421" y="795.2842105263157"/>
      <point x="89.51578947368421" y="499.6421052631579" type="curve" smooth="yes"/>
      <point x="89.51578947368421" y="221.6421052631579"/>
      <point x="224.73684210526315" y="-23.74736842105263"/>
    </contour>
    <contour>
      <point x="579.1368421052632" y="165.87368421052633" type="curve"/>
      <point x="394.06315789473683" y="171.87368421052633"/>
      <point x="312.4421052631579" y="326.0421052631579"/>
      <point x="312.4421052631579" y="498.0" type="curve" smooth="yes"/>
      <point x="312.4421052631579" y="678.3157894736842"/>
      <point x="399.13684210526316" y="821.4105263157894"/>
      <point x="581.4947368421052" y="827.4105263157894" type="curve"/>
      <point x="659.8315789473684" y="825.4105263157894"/>
      <point x="748.3157894736843" y="786.6526315789474"/>
      <point x="813.4736842105264" y="708.8842105263158" type="curve"/>
      <point x="813.4736842105264" y="307.93684210526317" type="line"/>
      <point x="751.1368421052632" y="217.81052631578947"/>
      <point x="671.3684210526316" y="168.33684210526317"/>
    </contour>
  </outline>
</glyph>
<glyph name="f" format="2">
  <advance width="800.4842105263158"/>
  <unicode hex="0066"/>
  <outline>
    <contour>
      <point x="205.81052631578947" y="0.0" type="curve"/>
      <point x="458.90526315789475" y="0.0" type="line"/>
      <point x="445.5157894736842" y="145.07368421052632"/>
      <point x="440.58947368421053" y="270.9684210526316"/>
      <point x="440.58947368421053" y="435.4315789473684" type="curve"/>
      <point x="440.58947368421053" y="951.7894736842105" type="line"/>
      <point x="446.33684210526314" y="994.5684210526316" type="line"/>
      <point x="429.09473684210525" y="1014.0"/>
      <point x="419.2421052631579" y="1069.936842105263"/>
      <point x="419.2421052631579" y="1112.4421052631578" type="curve" smooth="yes"/>
      <point x="419.2421052631579" y="1247.536842105263"/>
      <point x="486.5684210526316" y="1307.4105263157894"/>
      <point x="623.9157894736842" y="1307.4105263157894" type="curve" smooth="yes"/>
      <point x="664.5263157894738" y="1307.4105263157894"/>
      <point x="733.6631578947369" y="1294.1263157894737"/>
      <point x="777.7684210526315" y="1280.4842105263158" type="curve"/>
      <point x="795.621052631579" y="1475.2842105263157" type="line"/>
      <point x="754.3368421052631" y="1481.2842105263157"/>
      <point x="665.3473684210526" y="1492.1052631578948"/>
      <point x="600.9263157894737" y="1492.1052631578948" type="curve" smooth="yes"/>
      <point x="398.5052631578947" y="1492.1052631578948"/>
      <point x="211.9157894736842" y="1407.0315789473684"/>
      <point x="211.9157894736842" y="1111.621052631579" type="curve" smooth="yes"/>
      <point x="211.9157894736842" y="905.4526315789474"/>
      <point x="222.94736842105263" y="695.6842105263157"/>
      <point x="222.94736842105263" y="534.2526315789473" type="curve"/>
      <point x="222.94736842105263" y="435.4315789473684" type="line"/>
      <point x="222.94736842105263" y="270.9684210526316"/>
      <point x="217.2" y="145.07368421052632"/>
    </contour>
    <contour>
      <point x="44.04210526315789" y="809.4105263157895" type="line"/>
      <point x="285.2842105263158" y="833.3684210526316" type="line"/>
      <point x="378.4631578947368" y="833.3684210526316" type="line"/>
      <point x="502.14736842105265" y="831.7263157894737"/>
      <point x="622.5473684210526" y="824.8"/>
      <point x="752.6947368421053" y="809.4105263157895" type="curve"/>
      <point x="752.6947368421053" y="994.5684210526316" type="line"/>
      <point x="44.04210526315789" y="994.5684210526316" type="line"/>
    </contour>
  </outline>
</glyph>
<glyph name="k" format="2">
  <advance width="1114.9263157894736"/>
  <unicode hex="006B"/>
  <anchor x="565.5578947368421" y="0.0" name="bottom"/>
  <anchor x="565.5578947368421" y="1454.2105263157894" name="top"/>
  <outline>
    <contour>
      <point x="788.6105263157895" y="0.0" type="curve"/>
      <point x="1096.4842105263158" y="0.0" type="line"/>
      <point x="973.0105263157894" y="118.92631578947369"/>
      <point x="856.8210526315789" y="237.49473684210525"/>
      <point x="745.9157894736843" y="356.42105263157896" type="curve"/>
      <point x="553.8315789473685" y="568.9052631578948" type="line"/>
      <point x="562.8631578947369" y="468.5052631578947" type="line"/>
      <point x="722.3789473684211" y="641.0736842105263" type="line"/>
      <point x="832.5684210526316" y="759.1789473684211"/>
      <point x="942.4" y="875.2842105263157"/>
      <point x="1064.6947368421052" y="994.5684210526316" type="curve"/>
      <point x="773.1368421052631" y="994.5684210526316" type="line"/>
      <point x="706.1894736842105" y="903.9578947368421"/>
      <point x="629.6" y="812.9894736842106"/>
      <point x="550.0842105263158" y="722.378947368421" type="curve"/>
      <point x="419.9157894736842" y="574.6947368421053" type="line"/>
      <point x="351.70526315789476" y="574.6947368421053" type="line"/>
      <point x="351.70526315789476" y="425.09473684210525" type="line"/>
      <point x="411.66315789473686" y="425.09473684210525" type="line"/>
      <point x="564.5894736842106" y="261.9789473684211" type="line"/>
      <point x="644.821052631579" y="174.65263157894736"/>
      <point x="720.5894736842105" y="87.32631578947368"/>
    </contour>
    <contour>
      <point x="138.31578947368422" y="0.0" type="curve"/>
      <point x="391.41052631578947" y="0.0" type="line"/>
      <point x="378.0210526315789" y="135.22105263157894"/>
      <point x="373.09473684210525" y="252.90526315789475"/>
      <point x="373.09473684210525" y="396.8421052631579" type="curve"/>
      <point x="373.09473684210525" y="987.1789473684211" type="line"/>
      <point x="373.09473684210525" y="1166.2105263157894"/>
      <point x="382.12631578947367" y="1329.957894736842"/>
      <point x="397.978947368421" y="1489.8526315789475" type="curve"/>
      <point x="119.6421052631579" y="1460.463157894737" type="line"/>
      <point x="145.70526315789476" y="1307.4315789473683"/>
      <point x="155.45263157894738" y="1152.2526315789473"/>
      <point x="155.45263157894738" y="987.1789473684211" type="curve"/>
      <point x="155.45263157894738" y="435.4315789473684" type="line"/>
      <point x="155.45263157894738" y="270.9684210526316"/>
      <point x="149.70526315789476" y="145.07368421052632"/>
    </contour>
  </outline>
</glyph>
<glyph name="m" format="2">
  <advance width="1765.4947368421053"/>
  <unicode hex="006D"/>
  <anchor x="899.5368421052631" y="0.0" name="bottom"/>
  <anchor x="899.5368421052631" y="994.5684210526316" name="top"/>
  <outline>
    <contour>
      <point x="148.67368421052632" y="0.0" type="curve"/>
      <point x="401.7684210526316" y="0.0" type="line"/>
      <point x="388.37894736842105" y="145.07368421052632"/>
      <point x="383.4526315789474" y="270.9684210526316"/>
      <point x="383.4526315789474" y="424.7578947368421" type="curve"/>
      <point x="383.4526315789474" y="646.8421052631579" type="line"/>
      <point x="451.43157894736845" y="741.578947368421"/>
      <point x="556.378947368421" y="817.5578947368421"/>
      <point x="630.1473684210525" y="817.5578947368421" type="curve" smooth="yes"/>
      <point x="751.1368421052631" y="817.5578947368421"/>
      <point x="790.7157894736841" y="738.0842105263157"/>
      <point x="790.7157894736841" y="579.7473684210526" type="curve"/>
      <point x="790.7157894736841" y="424.7578947368421" type="line"/>
      <point x="790.7157894736841" y="270.9684210526316"/>
      <point x="785.7894736842105" y="145.07368421052632"/>
      <point x="776.0421052631579" y="0.0" type="curve"/>
      <point x="1027.494736842105" y="0.0" type="line"/>
      <point x="1011.6421052631579" y="145.07368421052632"/>
      <point x="1008.357894736842" y="270.9684210526316"/>
      <point x="1008.357894736842" y="435.4315789473684" type="curve"/>
      <point x="1008.357894736842" y="498.1052631578948"/>
      <point x="1013.6421052631579" y="579.1368421052631"/>
      <point x="1013.6421052631579" y="664.3157894736843" type="curve" smooth="yes"/>
      <point x="1013.6421052631579" y="708.0631578947368"/>
      <point x="1010.0" y="748.9894736842106"/>
      <point x="1002.3578947368421" y="784.2736842105263" type="curve"/>
      <point x="986.4000000000001" y="788.9894736842106" type="line"/>
      <point x="956.6526315789473" y="942.0631578947368"/>
      <point x="866.1894736842106" y="1019.4947368421052"/>
      <point x="715.4315789473684" y="1019.4947368421052" type="curve" smooth="yes"/>
      <point x="585.4947368421053" y="1019.4947368421052"/>
      <point x="459.2421052631579" y="919.3052631578947"/>
      <point x="381.4947368421053" y="825.4526315789474" type="curve"/>
      <point x="360.46315789473687" y="825.4526315789474" type="line"/>
      <point x="341.6421052631579" y="1006.3157894736842" type="line"/>
      <point x="127.2842105263158" y="994.5684210526316" type="line"/>
      <point x="156.8842105263158" y="839.1789473684211"/>
      <point x="165.8105263157895" y="684.0"/>
      <point x="165.8105263157895" y="535.4315789473684" type="curve"/>
      <point x="165.8105263157895" y="435.4315789473684" type="line"/>
      <point x="165.8105263157895" y="270.9684210526316"/>
      <point x="160.06315789473686" y="145.07368421052632"/>
    </contour>
    <contour>
      <point x="1395.0526315789473" y="0.0" type="curve"/>
      <point x="1646.5052631578947" y="0.0" type="line"/>
      <point x="1630.6526315789472" y="145.07368421052632"/>
      <point x="1627.3684210526314" y="270.9684210526316"/>
      <point x="1627.3684210526314" y="435.4315789473684" type="curve"/>
      <point x="1627.3684210526314" y="498.1052631578948"/>
      <point x="1632.6526315789472" y="577.4947368421052"/>
      <point x="1632.6526315789472" y="664.3157894736843" type="curve" smooth="yes"/>
      <point x="1632.6526315789472" y="897.2421052631579"/>
      <point x="1533.0526315789473" y="1019.4947368421052"/>
      <point x="1334.4421052631578" y="1019.4947368421052" type="curve" smooth="yes"/>
      <point x="1204.5052631578947" y="1019.4947368421052"/>
      <point x="1078.1473684210525" y="921.6631578947369"/>
      <point x="994.5052631578948" y="821.9157894736842" type="curve"/>
      <point x="971.0105263157894" y="821.9157894736842" type="line"/>
      <point x="1001.6421052631579" y="646.8421052631579" type="line"/>
      <point x="1069.621052631579" y="741.578947368421"/>
      <point x="1175.3894736842105" y="817.5578947368421"/>
      <point x="1249.157894736842" y="817.5578947368421" type="curve" smooth="yes"/>
      <point x="1368.9684210526316" y="817.5578947368421"/>
      <point x="1409.7263157894736" y="738.0842105263157"/>
      <point x="1409.7263157894736" y="579.7473684210526" type="curve"/>
      <point x="1409.7263157894736" y="424.7578947368421" type="line"/>
      <point x="1409.7263157894736" y="270.9684210526316"/>
      <point x="1404.8" y="145.07368421052632"/>
    </contour>
  </outline>
</glyph>
<glyph name="n" format="2">
  <advance width="1170.9894736842105"/>
  <unicode hex="006E"/>
  <anchor x="592.1052631578947" y="0.0" name="bottom"/>
  <anchor x="592.1052631578947" y="994.5684210526316" name="top"/>
  <outline>
    <contour>
      <point x="148.67368421052632" y="0.0" type="curve"/>
      <point x="401.7684210526316" y="0.0" type="line"/>
      <point x="388.37894736842105" y="145.07368421052632"/>
      <point x="383.4526315789474" y="270.9684210526316"/>
      <point x="383.4526315789474" y="424.7578947368421" type="curve"/>
      <point x="383.4526315789474" y="646.8421052631579" type="line"/>
      <point x="451.43157894736845" y="741.578947368421"/>
      <point x="569.3473684210526" y="817.5578947368421"/>
      <point x="643.9368421052632" y="817.5578947368421" type="curve" smooth="yes"/>
      <point x="773.2842105263157" y="817.5578947368421"/>
      <point x="815.2210526315789" y="738.0842105263157"/>
      <point x="815.2210526315789" y="579.7473684210526" type="curve"/>
      <point x="815.2210526315789" y="424.7578947368421" type="line"/>
      <point x="815.2210526315789" y="270.9684210526316"/>
      <point x="810.2947368421053" y="145.07368421052632"/>
      <point x="800.5473684210526" y="0.0" type="curve"/>
      <point x="1052.0" y="0.0" type="line"/>
      <point x="1036.1473684210525" y="145.07368421052632"/>
      <point x="1032.8631578947368" y="270.9684210526316"/>
      <point x="1032.8631578947368" y="435.4315789473684" type="curve"/>
      <point x="1032.8631578947368" y="498.1052631578948"/>
      <point x="1038.1473684210525" y="577.4947368421052"/>
      <point x="1038.1473684210525" y="664.3157894736843" type="curve" smooth="yes"/>
      <point x="1038.1473684210525" y="897.2421052631579"/>
      <point x="938.5473684210526" y="1019.4947368421052"/>
      <point x="728.8631578947368" y="1019.4947368421052" type="curve" smooth="yes"/>
      <point x="597.2842105263157" y="1019.4947368421052"/>
      <point x="459.2421052631579" y="919.3052631578947"/>
      <point x="381.4947368421053" y="825.4526315789474" type="curve"/>
      <point x="360.46315789473687" y="825.4526315789474" type="line"/>
      <point x="341.6421052631579" y="1006.3157894736842" type="line"/>
      <point x="127.2842105263158" y="994.5684210526316" type="line"/>
      <point x="156.8842105263158" y="839.1789473684211"/>
      <point x="165.8105263157895" y="684.0"/>
      <point x="165.8105263157895" y="535.4315789473684" type="curve"/>
      <point x="165.8105263157895" y="435.4315789473684" type="line"/>
      <point x="165.8105263157895" y="270.9684210526316"/>
      <point x="160.06315789473686" y="145.07368421052632"/>
    </contour>
  </outline>
</glyph>
<glyph name="o" format="2">
  <advance width="1194.821052631579"/>
  <unicode hex="006F"/>
  <anchor x="596.8210526315789" y="0.0" name="bottom"/>
  <anchor x="596.8210526315789" y="497.2842105263158" name="center"/>
  <anchor x="760.4842105263158" y="0.0" name="ogonek"/>
  <anchor x="596.8210526315789" y="994.5684210526316" name="top"/>
  <anchor x="1059.578947368421" y="994.5684210526316" name="topright"/>
  <outline>
    <contour>
      <point x="601.6421052631579" y="-23.74736842105263" type="curve" smooth="yes"/>
      <point x="916.9473684210526" y="-23.74736842105263"/>
      <point x="1106.9473684210527" y="204.61052631578949"/>
      <point x="1106.9473684210527" y="502.0" type="curve" smooth="yes"/>
      <point x="1106.9473684210527" y="794.1052631578947"/>
      <point x="928.2315789473685" y="1019.4947368421052"/>
      <point x="597.5368421052632" y="1019.4947368421052" type="curve" smooth="yes"/>
      <point x="275.66315789473686" y="1019.4947368421052"/>
      <point x="87.8736842105263" y="799.6421052631579"/>
      <point x="87.8736842105263" y="502.0" type="curve" smooth="yes"/>
      <point x="87.8736842105263" y="224.3578947368421"/>
      <point x="258.9473684210526" y="-23.74736842105263"/>
    </contour>
    <contour>
      <point x="600.8210526315789" y="159.30526315789473" type="curve"/>
      <point x="405.4947368421053" y="166.12631578947367"/>
      <point x="309.978947368421" y="323.0105263157895"/>
      <point x="309.978947368421" y="502.0" type="curve" smooth="yes"/>
      <point x="309.978947368421" y="689.7052631578947"/>
      <point x="408.5684210526316" y="828.8000000000001"/>
      <point x="600.8210526315789" y="836.4421052631579" type="curve"/>
      <point x="782.4631578947368" y="826.3368421052633"/>
      <point x="884.8421052631579" y="699.1368421052631"/>
      <point x="884.8421052631579" y="502.0" type="curve" smooth="yes"/>
      <point x="884.8421052631579" y="320.5473684210526"/>
      <point x="794.1473684210525" y="166.12631578947367"/>
    </contour>
  </outline>
</glyph>
<glyph name="p" format="2">
  <advance width="1196.9263157894736"/>
  <unicode hex="0070"/>
  <outline>
    <contour>
      <point x="147.49473684210528" y="-391.2842105263158" type="curve"/>
      <point x="405.87368421052633" y="-384.0" type="line"/>
      <point x="389.2" y="-238.92631578947368"/>
      <point x="383.4526315789474" y="-113.03157894736842"/>
      <point x="383.4526315789474" y="40.757894736842104" type="curve"/>
      <point x="383.4526315789474" y="120.65263157894736" type="line"/>
      <point x="401.2" y="120.65263157894736" type="line"/>
      <point x="487.70526315789476" y="24.042105263157893"/>
      <point x="592.9263157894737" y="-23.74736842105263"/>
      <point x="692.5052631578947" y="-23.74736842105263" type="curve" smooth="yes"/>
      <point x="972.1894736842105" y="-23.74736842105263"/>
      <point x="1107.4105263157894" y="221.6421052631579"/>
      <point x="1107.4105263157894" y="499.6421052631579" type="curve" smooth="yes"/>
      <point x="1107.4105263157894" y="795.2842105263157"/>
      <point x="958.2947368421052" y="1019.4947368421052"/>
      <point x="689.3263157894736" y="1019.4947368421052" type="curve" smooth="yes"/>
      <point x="564.2105263157895" y="1019.4947368421052"/>
      <point x="459.24210526315795" y="953.3473684210527"/>
      <point x="382.88421052631577" y="869.3894736842104" type="curve"/>
      <point x="362.6736842105263" y="869.3894736842104" type="line"/>
      <point x="349.0315789473684" y="1006.3157894736842" type="line"/>
      <point x="127.2842105263158" y="994.5684210526316" type="line"/>
      <point x="156.8842105263158" y="839.1789473684211"/>
      <point x="165.8105263157895" y="684.0"/>
      <point x="165.8105263157895" y="535.4315789473684" type="curve"/>
      <point x="165.8105263157895" y="51.43157894736842" type="line"/>
      <point x="165.8105263157895" y="-113.03157894736842"/>
      <point x="160.06315789473686" y="-246.21052631578948"/>
    </contour>
    <contour>
      <point x="617.7894736842105" y="165.87368421052633" type="curve"/>
      <point x="525.5578947368421" y="168.33684210526317"/>
      <point x="445.7894736842105" y="217.81052631578947"/>
      <point x="383.4526315789474" y="307.93684210526317" type="curve"/>
      <point x="383.4526315789474" y="708.8842105263158" type="line"/>
      <point x="448.61052631578946" y="786.6526315789474"/>
      <point x="537.0947368421052" y="825.4105263157894"/>
      <point x="615.4315789473684" y="827.4105263157894" type="curve"/>
      <point x="797.7894736842105" y="821.4105263157894"/>
      <point x="884.4842105263158" y="678.3157894736842"/>
      <point x="884.4842105263158" y="498.0" type="curve" smooth="yes"/>
      <point x="884.4842105263158" y="326.0421052631579"/>
      <point x="802.8631578947368" y="171.87368421052633"/>
    </contour>
  </outline>
</glyph>
<glyph name="q" format="2">
  <advance width="1174.1052631578948"/>
  <unicode hex="0071"/>
  <outline>
    <contour>
      <point x="795.1578947368422" y="-391.2842105263158" type="curve"/>
      <point x="1049.4315789473683" y="-384.0" type="line"/>
      <point x="1036.0421052631577" y="-238.92631578947368"/>
      <point x="1031.1157894736841" y="-113.03157894736842"/>
      <point x="1031.1157894736841" y="51.43157894736842" type="curve"/>
      <point x="1031.1157894736841" y="535.4315789473684" type="line"/>
      <point x="1031.1157894736841" y="687.6421052631579"/>
      <point x="1040.0421052631577" y="847.2842105263157"/>
      <point x="1061.4315789473683" y="1006.3157894736842" type="curve"/>
      <point x="847.8947368421052" y="994.5684210526316" type="line"/>
      <point x="834.2526315789473" y="869.3894736842104" type="line"/>
      <point x="814.042105263158" y="869.3894736842104" type="line"/>
      <point x="737.6842105263158" y="953.3473684210526"/>
      <point x="632.7157894736841" y="1019.4947368421052"/>
      <point x="507.6" y="1019.4947368421052" type="curve" smooth="yes"/>
      <point x="238.6315789473684" y="1019.4947368421052"/>
      <point x="89.51578947368421" y="795.2842105263157"/>
      <point x="89.51578947368421" y="499.6421052631579" type="curve" smooth="yes"/>
      <point x="89.51578947368421" y="221.6421052631579"/>
      <point x="224.73684210526315" y="-23.74736842105263"/>
      <point x="504.42105263157896" y="-23.74736842105263" type="curve" smooth="yes"/>
      <point x="604.0" y="-23.74736842105263"/>
      <point x="709.221052631579" y="24.042105263157893"/>
      <point x="795.7263157894737" y="120.65263157894736" type="curve"/>
      <point x="813.4736842105264" y="120.65263157894736" type="line"/>
      <point x="813.4736842105264" y="40.757894736842104" type="line"/>
      <point x="813.4736842105264" y="-113.03157894736842"/>
      <point x="807.7263157894737" y="-246.21052631578948"/>
    </contour>
    <contour>
      <point x="579.1368421052632" y="165.87368421052633" type="curve"/>
      <point x="394.06315789473683" y="171.87368421052633"/>
      <point x="312.4421052631579" y="326.0421052631579"/>
      <point x="312.4421052631579" y="498.0" type="curve" smooth="yes"/>
      <point x="312.4421052631579" y="678.3157894736842"/>
      <point x="399.13684210526316" y="821.4105263157894"/>
      <point x="581.4947368421052" y="827.4105263157894" type="curve"/>
      <point x="659.8315789473684" y="825.4105263157894"/>
      <point x="748.3157894736843" y="786.6526315789474"/>
      <point x="813.4736842105264" y="708.8842105263158" type="curve"/>
      <point x="813.4736842105264" y="307.93684210526317" type="line"/>
      <point x="751.1368421052632" y="217.81052631578947"/>
      <point x="671.3684210526316" y="168.33684210526317"/>
    </contour>
  </outline>
</glyph>
<glyph name="r" format="2">
  <advance width="824.1263157894738"/>
  <unicode hex="0072"/>
  <anchor x="261.34736842105264" y="0.0" name="bottom"/>
  <anchor x="468.10526315789474" y="994.5684210526316" name="top"/>
  <outline>
    <contour>
      <point x="148.67368421052632" y="0.0" type="curve"/>
      <point x="401.7684210526316" y="0.0" type="line"/>
      <point x="388.37894736842105" y="145.07368421052632"/>
      <point x="383.4526315789474" y="270.9684210526316"/>
      <point x="383.4526315789474" y="424.7578947368421" type="curve"/>
      <point x="383.4526315789474" y="595.3052631578947" type="line"/>
      <point x="463.2210526315789" y="770.6736842105264"/>
      <point x="568.0210526315789" y="798.6736842105263"/>
      <point x="634.1684210526315" y="798.6736842105263" type="curve" smooth="yes"/>
      <point x="668.1684210526315" y="798.6736842105263"/>
      <point x="718.021052631579" y="785.3894736842104"/>
      <point x="761.4105263157894" y="770.5684210526316" type="curve"/>
      <point x="780.5473684210526" y="1001.8526315789474" type="line"/>
      <point x="746.5473684210526" y="1015.1368421052631"/>
      <point x="707.2631578947368" y="1019.4947368421052"/>
      <point x="673.4736842105262" y="1019.4947368421052" type="curve" smooth="yes"/>
      <point x="587.4736842105264" y="1019.4947368421052"/>
      <point x="472.9263157894737" y="973.2842105263157"/>
      <point x="377.9578947368421" y="808.9473684210526" type="curve"/>
      <point x="358.10526315789474" y="808.9473684210526" type="line"/>
      <point x="341.6421052631579" y="1006.3157894736842" type="line"/>
      <point x="127.2842105263158" y="994.5684210526316" type="line"/>
      <point x="156.8842105263158" y="839.1789473684211"/>
      <point x="165.8105263157895" y="684.0"/>
      <point x="165.8105263157895" y="535.4315789473684" type="curve"/>
      <point x="165.8105263157895" y="435.4315789473684" type="line"/>
      <point x="165.8105263157895" y="270.9684210526316"/>
      <point x="160.06315789473686" y="145.07368421052632"/>
    </contour>
  </outline>
</glyph>
<glyph name="s" format="2">
  <advance width="918.8965517241379"/>
  <unicode hex="0073"/>
  <anchor x="461.9310344827586" y="0.0" name="bottom"/>
  <anchor x="461.9310344827586" y="995.1724137931035" name="top"/>
  <outline>
    <contour>
      <point x="456.2068965517241" y="-23.379310344827587" type="curve" smooth="yes"/>
      <point x="726.8275862068965" y="-23.379310344827587"/>
      <point x="840.7586206896551" y="106.62068965517241"/>
      <point x="840.7586206896551" y="292.2758620689655" type="curve" smooth="yes"/>
      <point x="840.7586206896551" y="475.2413793103448"/>
      <point x="730.0689655172414" y="523.0344827586207"/>
      <point x="526.3448275862069" y="580.8275862068965" type="curve" smooth="yes"/>
      <point x="366.0689655172414" y="625.8620689655172"/>
      <point x="329.9310344827586" y="657.3103448275862"/>
      <point x="329.9310344827586" y="722.8965517241379" type="curve" smooth="yes"/>
      <point x="329.9310344827586" y="808.4137931034483"/>
      <point x="414.55172413793105" y="832.4137931034483"/>
      <point x="486.6206896551724" y="836.4137931034483" type="curve"/>
      <point x="536.4137931034483" y="836.4137931034483"/>
      <point x="643.7931034482759" y="810.4137931034483"/>
      <point x="765.3793103448276" y="750.6206896551723" type="curve"/>
      <point x="780.551724137931" y="953.7241379310345" type="line"/>
      <point x="703.1724137931034" y="978.3448275862069"/>
      <point x="558.8965517241379" y="1018.7586206896551"/>
      <point x="447.17241379310343" y="1018.7586206896551" type="curve" smooth="yes"/>
      <point x="241.86206896551724" y="1018.7586206896551"/>
      <point x="106.55172413793103" y="905.5862068965517"/>
      <point x="106.55172413793103" y="712.3448275862069" type="curve" smooth="yes"/>
      <point x="106.55172413793103" y="532.2068965517242"/>
      <point x="215.24137931034483" y="467.2413793103448"/>
      <point x="380.55172413793105" y="423.2413793103448" type="curve" smooth="yes"/>
      <point x="559.5172413793103" y="374.9655172413793"/>
      <point x="619.1724137931035" y="351.3103448275862"/>
      <point x="619.1724137931035" y="282.13793103448273" type="curve" smooth="yes"/>
      <point x="619.1724137931035" y="178.0689655172414"/>
      <point x="537.0344827586207" y="162.9655172413793"/>
      <point x="441.8620689655172" y="158.9655172413793" type="curve"/>
      <point x="349.448275862069" y="158.9655172413793"/>
      <point x="227.3103448275862" y="196.3448275862069"/>
      <point x="117.10344827586208" y="250.3448275862069" type="curve"/>
      <point x="101.72413793103449" y="43.86206896551724" type="line"/>
      <point x="183.31034482758622" y="21.03448275862069"/>
      <point x="302.8965517241379" y="-23.379310344827587"/>
    </contour>
  </outline>
</glyph>
<glyph name="u" format="2">
  <advance width="1135.7684210526315"/>
  <unicode hex="0075"/>
  <anchor x="565.5999999999999" y="0.0" name="bottom"/>
  <anchor x="1006.9263157894736" y="0.0" name="ogonek"/>
  <anchor x="565.5999999999999" y="994.5684210526316" name="top"/>
  <anchor x="1082.8" y="994.5684210526316" name="topright"/>
  <outline>
    <contour>
      <point x="436.37894736842105" y="-23.74736842105263" type="curve" smooth="yes"/>
      <point x="557.9578947368421" y="-23.74736842105263"/>
      <point x="696.0" y="76.44210526315788"/>
      <point x="773.7473684210527" y="170.29473684210527" type="curve"/>
      <point x="794.7789473684211" y="170.29473684210527" type="line"/>
      <point x="806.5263157894736" y="0.0" type="line"/>
      <point x="1011.8526315789474" y="0.0" type="line"/>
      <point x="998.4631578947368" y="145.07368421052632"/>
      <point x="993.5368421052631" y="270.9684210526316"/>
      <point x="993.5368421052631" y="435.4315789473684" type="curve"/>
      <point x="993.5368421052631" y="543.6421052631579" type="line"/>
      <point x="993.5368421052631" y="721.2421052631579"/>
      <point x="1000.1052631578947" y="849.4947368421052"/>
      <point x="1013.4947368421052" y="994.5684210526316" type="curve"/>
      <point x="759.2210526315789" y="994.5684210526316" type="line"/>
      <point x="770.1473684210526" y="849.4947368421052"/>
      <point x="775.8947368421052" y="721.2421052631579"/>
      <point x="775.8947368421052" y="568.2736842105263" type="curve"/>
      <point x="775.8947368421052" y="344.8" type="line"/>
      <point x="707.9157894736843" y="250.06315789473683"/>
      <point x="590.0" y="174.0842105263158"/>
      <point x="521.3052631578947" y="174.0842105263158" type="curve" smooth="yes"/>
      <point x="391.9578947368421" y="174.0842105263158"/>
      <point x="350.0210526315789" y="253.55789473684212"/>
      <point x="350.0210526315789" y="411.89473684210526" type="curve"/>
      <point x="350.0210526315789" y="568.2736842105263" type="line"/>
      <point x="350.0210526315789" y="721.2421052631579"/>
      <point x="354.94736842105266" y="856.7789473684211"/>
      <point x="366.69473684210527" y="1001.8526315789474" type="curve"/>
      <point x="112.42105263157895" y="994.5684210526316" type="line"/>
      <point x="124.98947368421052" y="849.4947368421052"/>
      <point x="132.37894736842105" y="721.2421052631579"/>
      <point x="132.37894736842105" y="543.6421052631579" type="curve"/>
      <point x="132.37894736842105" y="477.4315789473684"/>
      <point x="128.73684210526315" y="418.2526315789474"/>
      <point x="128.73684210526315" y="331.4315789473684" type="curve" smooth="yes"/>
      <point x="128.73684210526315" y="98.50526315789473"/>
      <point x="226.69473684210524" y="-23.74736842105263"/>
    </contour>
  </outline>
</glyph>
<glyph name="v" format="2">
  <advance width="1063.4315789473685"/>
  <unicode hex="0076"/>
  <outline>
    <contour>
      <point x="400.7368421052631" y="0.0" type="curve"/>
      <point x="661.1578947368421" y="0.0" type="line"/>
      <point x="698.1263157894737" y="124.82105263157895"/>
      <point x="741.6631578947369" y="248.46315789473684"/>
      <point x="787.1999999999999" y="373.2842105263158" type="curve"/>
      <point x="851.9157894736842" y="550.9263157894737" type="line"/>
      <point x="905.4526315789474" y="697.7473684210527"/>
      <point x="960.9894736842105" y="847.7473684210527"/>
      <point x="1028.6315789473683" y="994.5684210526316" type="curve"/>
      <point x="772.4631578947369" y="994.5684210526316" type="line"/>
      <point x="733.5578947368421" y="844.6947368421053"/>
      <point x="686.5473684210526" y="692.2526315789473"/>
      <point x="636.3578947368421" y="534.2736842105263" type="curve"/>
      <point x="542.6947368421053" y="236.67368421052632" type="line"/>
      <point x="522.4842105263158" y="236.67368421052632" type="line"/>
      <point x="428.82105263157894" y="534.2736842105263" type="line"/>
      <point x="378.6315789473684" y="692.2526315789473"/>
      <point x="332.4421052631579" y="844.6947368421053"/>
      <point x="292.71578947368425" y="1001.8526315789474" type="curve"/>
      <point x="34.8" y="994.5684210526316" type="line"/>
      <point x="98.54736842105264" y="848.9263157894737"/>
      <point x="155.26315789473685" y="698.9263157894737"/>
      <point x="208.8" y="553.2842105263157" type="curve"/>
      <point x="273.5157894736842" y="376.46315789473687" type="line"/>
      <point x="317.8736842105263" y="254.0"/>
      <point x="362.94736842105266" y="124.82105263157895"/>
    </contour>
  </outline>
</glyph>
<glyph name="w" format="2">
  <advance width="1635.6842105263158"/>
  <unicode hex="0077"/>
  <anchor x="818.378947368421" y="0.0" name="bottom"/>
  <anchor x="818.378947368421" y="994.5684210526316" name="top"/>
  <outline>
    <contour>
      <point x="357.55789473684206" y="0.0" type="curve"/>
      <point x="615.5157894736842" y="0.0" type="line"/>
      <point x="647.3473684210526" y="140.58947368421053"/>
      <point x="688.3578947368421" y="293.89473684210526"/>
      <point x="726.2947368421053" y="430.12631578947367" type="curve"/>
      <point x="800.9894736842106" y="697.4105263157894" type="line"/>
      <point x="819.5578947368421" y="697.4105263157894" type="line"/>
      <point x="895.0736842105263" y="433.30526315789473" type="line"/>
      <point x="935.0105263157894" y="297.0736842105263"/>
      <point x="979.6631578947369" y="140.58947368421053"/>
      <point x="1013.4947368421052" y="0.0" type="curve"/>
      <point x="1281.6631578947367" y="0.0" type="line"/>
      <point x="1313.0947368421052" y="122.0"/>
      <point x="1350.9894736842105" y="251.6421052631579"/>
      <point x="1392.1684210526316" y="380.46315789473687" type="curve"/>
      <point x="1448.5263157894738" y="555.2842105263157" type="line"/>
      <point x="1495.7052631578947" y="700.9263157894737"/>
      <point x="1544.0631578947368" y="846.9263157894737"/>
      <point x="1604.1684210526316" y="994.5684210526316" type="curve"/>
      <point x="1344.2526315789473" y="994.5684210526316" type="line"/>
      <point x="1313.6000000000001" y="856.8421052631579"/>
      <point x="1271.0526315789473" y="682.1473684210526"/>
      <point x="1229.9368421052632" y="529.7052631578947" type="curve"/>
      <point x="1148.8842105263159" y="228.82105263157894" type="line"/>
      <point x="1130.6736842105263" y="228.82105263157894" type="line"/>
      <point x="1049.621052631579" y="526.8842105263158" type="line"/>
      <point x="1008.5052631578948" y="681.3263157894737"/>
      <point x="965.8526315789474" y="844.1263157894737"/>
      <point x="931.1999999999999" y="994.5684210526316" type="curve"/>
      <point x="708.2315789473685" y="994.5684210526316" type="line"/>
      <point x="672.4" y="836.5894736842105"/>
      <point x="632.1052631578947" y="679.7894736842105"/>
      <point x="590.9894736842106" y="524.5263157894736" type="curve"/>
      <point x="512.2947368421053" y="228.82105263157894" type="line"/>
      <point x="494.0842105263158" y="228.82105263157894" type="line"/>
      <point x="413.38947368421054" y="518.6315789473684" type="line"/>
      <point x="370.2736842105263" y="673.0736842105263"/>
      <point x="325.2631578947368" y="848.5894736842105"/>
      <point x="290.2526315789474" y="1001.8526315789474" type="curve"/>
      <point x="31.515789473684208" y="994.5684210526316" type="line"/>
      <point x="92.4421052631579" y="845.7473684210527"/>
      <point x="140.44210526315788" y="702.9263157894737"/>
      <point x="187.97894736842105" y="555.2842105263157" type="curve"/>
      <point x="244.69473684210527" y="378.46315789473687" type="line"/>
      <point x="286.2315789473684" y="250.46315789473684"/>
      <point x="324.94736842105266" y="124.82105263157895"/>
    </contour>
  </outline>
</glyph>
<glyph name="x" format="2">
  <advance width="1104.5684210526317"/>
  <unicode hex="0078"/>
  <outline>
    <contour>
      <point x="41.263157894736835" y="0.0" type="curve"/>
      <point x="310.7157894736842" y="0.0" type="line"/>
      <point x="352.4421052631579" y="84.86315789473684"/>
      <point x="386.7368421052631" y="145.36842105263156"/>
      <point x="435.2842105263158" y="229.41052631578947" type="curve"/>
      <point x="529.3052631578947" y="388.3157894736842" type="line"/>
      <point x="545.8736842105263" y="388.3157894736842" type="line"/>
      <point x="650.6105263157895" y="221.41052631578947" type="line"/>
      <point x="701.1578947368421" y="141.01052631578946"/>
      <point x="737.4526315789474" y="78.86315789473684"/>
      <point x="781.1789473684211" y="0.0" type="curve"/>
      <point x="1067.4105263157894" y="0.0" type="line"/>
      <point x="963.0526315789474" y="130.92631578947368"/>
      <point x="903.978947368421" y="211.38947368421051"/>
      <point x="836.5473684210526" y="306.6736842105263" type="curve"/>
      <point x="673.3263157894737" y="539.7052631578947" type="line"/>
      <point x="684.3578947368421" y="487.89473684210526" type="line"/>
      <point x="830.042105263158" y="702.0" type="line"/>
      <point x="898.2947368421053" y="802.4631578947368"/>
      <point x="941.0105263157894" y="864.1052631578947"/>
      <point x="1040.0842105263157" y="994.5684210526316" type="curve"/>
      <point x="768.6315789473683" y="994.5684210526316" type="line"/>
      <point x="726.9052631578948" y="908.8842105263158"/>
      <point x="690.9684210526316" y="846.7368421052631"/>
      <point x="644.3157894736842" y="766.5894736842105" type="curve"/>
      <point x="553.3684210526316" y="615.2210526315789" type="line"/>
      <point x="536.3368421052631" y="615.2210526315789" type="line"/>
      <point x="443.7473684210526" y="767.0526315789474" type="line"/>
      <point x="396.2736842105263" y="846.3789473684211"/>
      <point x="357.8736842105263" y="913.4526315789474"/>
      <point x="312.6105263157895" y="1001.8526315789474" type="curve"/>
      <point x="41.873684210526314" y="994.5684210526316" type="line"/>
      <point x="138.1263157894737" y="869.7473684210527"/>
      <point x="188.8421052631579" y="796.4631578947368"/>
      <point x="255.81052631578947" y="696.4631578947368" type="curve"/>
      <point x="397.38947368421054" y="483.17894736842106" type="line"/>
      <point x="396.2105263157895" y="537.3473684210526" type="line"/>
      <point x="252.73684210526315" y="310.3157894736842" type="line"/>
      <point x="187.7684210526316" y="208.21052631578948"/>
      <point x="139.5157894736842" y="135.74736842105264"/>
    </contour>
  </outline>
</glyph>
<glyph name="y" format="2">
  <advance width="1068.1473684210525"/>
  <unicode hex="0079"/>
  <anchor x="818.2315789473685" y="0.0" name="bottom"/>
  <anchor x="536.1263157894737" y="994.5684210526316" name="top"/>
  <outline>
    <contour>
      <point x="235.95789473684212" y="-391.2842105263158" type="curve"/>
      <point x="497.0526315789474" y="-384.0" type="line"/>
      <point x="543.2" y="-240.0"/>
      <point x="606.378947368421" y="-74.71578947368421"/>
      <point x="705.9157894736842" y="179.2842105263158" type="curve"/>
      <point x="815.4526315789474" y="458.9263157894737" type="line"/>
      <point x="912.9894736842106" y="709.7473684210527"/>
      <point x="962.1684210526316" y="832.5684210526316"/>
      <point x="1033.3473684210528" y="994.5684210526316" type="curve"/>
      <point x="778.821052631579" y="994.5684210526316" type="line"/>
      <point x="738.7368421052631" y="838.9473684210526"/>
      <point x="690.5473684210526" y="688.1473684210526"/>
      <point x="638.3578947368421" y="530.1684210526316" type="curve"/>
      <point x="538.3368421052631" y="230.10526315789474" type="line"/>
      <point x="518.1263157894737" y="230.10526315789474" type="line"/>
      <point x="426.82105263157894" y="529.8105263157895" type="line"/>
      <point x="377.8105263157895" y="690.6105263157895"/>
      <point x="333.1578947368421" y="841.0526315789474"/>
      <point x="291.89473684210526" y="1001.8526315789474" type="curve"/>
      <point x="34.8" y="994.5684210526316" type="line"/>
      <point x="97.26315789473684" y="852.5684210526316"/>
      <point x="153.62105263157895" y="700.5684210526316"/>
      <point x="205.97894736842105" y="556.9263157894737" type="curve"/>
      <point x="270.69473684210527" y="376.9263157894737" type="line"/>
      <point x="319.0526315789474" y="244.10526315789474"/>
      <point x="370.58947368421053" y="102.10526315789474"/>
      <point x="410.7368421052631" y="-34.71578947368421" type="curve"/>
      <point x="420.12631578947367" y="12.526315789473685" type="line"/>
      <point x="368.4842105263158" y="-120.0421052631579"/>
      <point x="307.5578947368421" y="-258.7157894736842"/>
    </contour>
  </outline>
</glyph>
<glyph name="z" format="2">
  <advance width="1008.3368421052631"/>
  <unicode hex="007A"/>
  <anchor x="500.9894736842105" y="0.0" name="bottom"/>
  <anchor x="500.9894736842105" y="497.2842105263158" name="center"/>
  <anchor x="500.9894736842105" y="994.5684210526316" name="top"/>
  <outline>
    <contour>
      <point x="71.57894736842105" y="0.0" type="line"/>
      <point x="941.4736842105264" y="0.0" type="line"/>
      <point x="941.4736842105264" y="188.44210526315788" type="line"/>
      <point x="814.0" y="172.1263157894737"/>
      <point x="641.9157894736842" y="164.37894736842105"/>
      <point x="538.3368421052631" y="164.37894736842105" type="curve"/>
      <point x="309.2842105263158" y="164.37894736842105" type="line"/>
      <point x="333.2421052631579" y="115.17894736842105" type="line"/>
      <point x="625.9157894736842" y="497.6842105263158" type="line"/>
      <point x="715.8526315789475" y="615.0526315789473"/>
      <point x="833.3263157894737" y="757.7473684210527"/>
      <point x="910.7578947368421" y="845.221052631579" type="curve"/>
      <point x="910.7578947368421" y="994.5684210526316" type="line"/>
      <point x="77.32631578947368" y="994.5684210526316" type="line"/>
      <point x="77.32631578947368" y="802.021052631579" type="line"/>
      <point x="215.97894736842105" y="821.978947368421"/>
      <point x="391.7052631578947" y="829.3684210526316"/>
      <point x="494.10526315789474" y="829.3684210526316" type="curve"/>
      <point x="702.9052631578948" y="829.3684210526316" type="line"/>
      <point x="672.4842105263158" y="895.7473684210527" type="line"/>
      <point x="372.77894736842103" y="502.10526315789474" type="line"/>
      <point x="288.0210526315789" y="390.27368421052637"/>
      <point x="183.26315789473682" y="262.18947368421055"/>
      <point x="71.57894736842105" y="132.21052631578948" type="curve"/>
    </contour>
  </outline>
</glyph>
<glyph name="cent" format="2">
  <advance width="981.0105263157894"/>
  <unicode hex="00A2"/>
  <anchor x="566.8631578947368" y="0.0" name="bottom"/>
  <anchor x="556.2526315789473" y="994.5684210526316" name="top"/>
  <outline>
    <contour>
      <point x="475.2" y="-274.0" type="curve"/>
      <point x="656.9684210526316" y="-274.0" type="line"/>
      <point x="645.578947368421" y="-38.0"/>
      <point x="644.7578947368421" y="168.0"/>
      <point x="644.7578947368421" y="384.0" type="curve"/>
      <point x="644.7578947368421" y="592.1052631578947" type="line"/>
      <point x="644.7578947368421" y="808.1052631578947"/>
      <point x="645.578947368421" y="1014.1052631578947"/>
      <point x="656.9684210526316" y="1250.1052631578948" type="curve"/>
      <point x="475.2" y="1250.1052631578948" type="line"/>
      <point x="486.58947368421053" y="1014.1052631578947"/>
      <point x="487.41052631578947" y="808.1052631578947"/>
      <point x="487.41052631578947" y="592.1052631578947" type="curve"/>
      <point x="487.41052631578947" y="384.0" type="line"/>
      <point x="487.41052631578947" y="168.0"/>
      <point x="486.58947368421053" y="-38.0"/>
    </contour>
    <contour>
      <point x="598.9684210526316" y="-20.46315789473684" type="curve" smooth="yes"/>
      <point x="713.3263157894737" y="-20.46315789473684"/>
      <point x="824.7157894736843" y="15.326315789473684"/>
      <point x="899.6421052631579" y="37.578947368421055" type="curve"/>
      <point x="884.8210526315789" y="233.55789473684212" type="line"/>
      <point x="801.6" y="188.1263157894737"/>
      <point x="714.9894736842106" y="163.41052631578947"/>
      <point x="648.2315789473685" y="163.41052631578947" type="curve" smooth="yes"/>
      <point x="427.4526315789474" y="167.76842105263157"/>
      <point x="309.978947368421" y="306.40000000000003"/>
      <point x="309.978947368421" y="502.5684210526316" type="curve" smooth="yes"/>
      <point x="309.978947368421" y="702.6736842105263"/>
      <point x="427.2842105263158" y="823.8736842105263"/>
      <point x="601.8526315789474" y="829.8736842105263" type="curve"/>
      <point x="650.5684210526316" y="829.8736842105263"/>
      <point x="753.1789473684211" y="805.8736842105263"/>
      <point x="880.3578947368421" y="747.0526315789474" type="curve"/>
      <point x="896.2105263157895" y="947.1368421052632" type="line"/>
      <point x="816.1052631578947" y="977.1368421052632"/>
      <point x="691.2842105263159" y="1018.6736842105263"/>
      <point x="578.5052631578947" y="1018.6736842105263" type="curve" smooth="yes"/>
      <point x="262.2315789473684" y="1018.6736842105263"/>
      <point x="87.8736842105263" y="795.0315789473684"/>
      <point x="87.8736842105263" y="496.82105263157894" type="curve" smooth="yes"/>
      <point x="87.8736842105263" y="200.61052631578949"/>
      <point x="274.1894736842105" y="-20.46315789473684"/>
    </contour>
  </outline>
</glyph>
<glyph name="sterling" format="2">
  <advance width="1194.1263157894737"/>
  <unicode hex="00A3"/>
  <outline>
    <contour>
      <point x="117.15789473684211" y="0.0" type="line"/>
      <point x="1128.2315789473685" y="0.0" type="line"/>
      <point x="1128.2315789473685" y="220.3578947368421" type="line"/>
      <point x="960.0842105263158" y="201.22105263157894"/>
      <point x="813.1157894736842" y="199.57894736842104"/>
      <point x="561.0736842105263" y="199.57894736842104" type="curve"/>
      <point x="282.3157894736842" y="199.57894736842104" type="line"/>
      <point x="300.5263157894737" y="152.54736842105262" type="line"/>
      <point x="483.9789473684211" y="298.9473684210526"/>
      <point x="497.62105263157895" y="420.6315789473684"/>
      <point x="497.62105263157895" y="529.1368421052632" type="curve" smooth="yes"/>
      <point x="497.62105263157895" y="883.978947368421" type="line" smooth="yes"/>
      <point x="497.62105263157895" y="1103.1157894736841"/>
      <point x="592.2736842105263" y="1199.557894736842"/>
      <point x="775.2631578947369" y="1204.0210526315789" type="curve"/>
      <point x="823.978947368421" y="1204.0210526315789"/>
      <point x="925.7684210526315" y="1180.842105263158"/>
      <point x="1052.1263157894737" y="1124.4842105263158" type="curve"/>
      <point x="1075.2631578947369" y="1328.3157894736842" type="line"/>
      <point x="994.8" y="1358.3157894736842"/>
      <point x="870.8" y="1400.2105263157894"/>
      <point x="757.6631578947369" y="1400.2105263157894" type="curve" smooth="yes"/>
      <point x="437.87368421052633" y="1400.2105263157894"/>
      <point x="263.6631578947368" y="1229.221052631579"/>
      <point x="263.6631578947368" y="894.4421052631579" type="curve" smooth="yes"/>
      <point x="263.6631578947368" y="751.3263157894737"/>
      <point x="268.12631578947367" y="610.2105263157895"/>
      <point x="268.12631578947367" y="467.9157894736842" type="curve"/>
      <point x="268.12631578947367" y="380.2315789473684"/>
      <point x="258.94736842105266" y="258.2947368421053"/>
      <point x="117.15789473684211" y="130.3578947368421" type="curve"/>
    </contour>
    <contour>
      <point x="113.1157894736842" y="657.6421052631579" type="line"/>
      <point x="243.07368421052632" y="665.7473684210527"/>
      <point x="366.2105263157895" y="666.5684210526316"/>
      <point x="472.5263157894737" y="666.5684210526316" type="curve"/>
      <point x="544.021052631579" y="666.5684210526316" type="line"/>
      <point x="650.3368421052631" y="666.5684210526316"/>
      <point x="773.4736842105264" y="665.7473684210527"/>
      <point x="903.4315789473684" y="657.6421052631579" type="curve"/>
      <point x="903.4315789473684" y="831.6631578947369" type="line"/>
      <point x="773.4736842105264" y="823.5578947368421"/>
      <point x="650.3368421052631" y="822.7368421052631"/>
      <point x="544.021052631579" y="822.7368421052631" type="curve"/>
      <point x="472.5263157894737" y="822.7368421052631" type="line"/>
      <point x="366.2105263157895" y="822.7368421052631"/>
      <point x="243.07368421052632" y="823.5578947368421"/>
      <point x="113.1157894736842" y="831.6631578947369" type="curve"/>
    </contour>
  </outline>
</glyph>
<glyph name="currency" format="2">
  <advance width="1268.9684210526316"/>
  <unicode hex="00A4"/>
  <outline>
    <contour>
      <point x="631.3052631578947" y="216.4842105263158" type="curve" smooth="yes"/>
      <point x="885.8947368421052" y="216.4842105263158"/>
      <point x="1069.242105263158" y="371.0526315789474"/>
      <point x="1069.242105263158" y="641.6421052631579" type="curve" smooth="yes"/>
      <point x="1069.242105263158" y="890.6315789473684"/>
      <point x="887.0736842105263" y="1064.6947368421052"/>
      <point x="635.3052631578947" y="1064.6947368421052" type="curve" smooth="yes"/>
      <point x="379.53684210526313" y="1064.6947368421052"/>
      <point x="197.3684210526316" y="893.5578947368421"/>
      <point x="197.3684210526316" y="641.6421052631579" type="curve" smooth="yes"/>
      <point x="197.3684210526316" y="371.87368421052633"/>
      <point x="379.53684210526313" y="216.4842105263158"/>
    </contour>
    <contour>
      <point x="223.6842105263158" y="78.92631578947368" type="line"/>
      <point x="309.0736842105263" y="176.06315789473686"/>
      <point x="395.2842105263158" y="263.9157894736842"/>
      <point x="470.3157894736842" y="338.9473684210526" type="curve"/>
      <point x="332.2526315789474" y="477.0105263157895" type="line"/>
      <point x="257.22105263157897" y="401.9789473684211"/>
      <point x="169.3684210526316" y="315.76842105263154"/>
      <point x="72.23157894736842" y="230.37894736842105" type="curve"/>
    </contour>
    <contour>
      <point x="632.1263157894737" y="398.7157894736842" type="curve"/>
      <point x="498.7157894736842" y="406.0"/>
      <point x="394.37894736842105" y="480.65263157894736"/>
      <point x="394.37894736842105" y="640.8210526315789" type="curve" smooth="yes"/>
      <point x="394.37894736842105" y="788.9894736842106"/>
      <point x="499.89473684210526" y="876.0"/>
      <point x="634.4842105263158" y="883.2842105263157" type="curve"/>
      <point x="768.7157894736843" y="876.0"/>
      <point x="872.2315789473685" y="787.3473684210527"/>
      <point x="872.2315789473685" y="640.8210526315789" type="curve" smooth="yes"/>
      <point x="872.2315789473685" y="480.65263157894736"/>
      <point x="767.8947368421053" y="406.0"/>
    </contour>
    <contour>
      <point x="333.89473684210526" y="806.9894736842106" type="curve"/>
      <point x="468.6736842105263" y="941.7684210526315" type="line"/>
      <point x="393.6421052631579" y="1016.8"/>
      <point x="307.4315789473684" y="1104.6526315789474"/>
      <point x="222.0421052631579" y="1201.7894736842106" type="curve"/>
      <point x="73.8736842105263" y="1053.621052631579" type="line"/>
      <point x="171.0105263157895" y="968.2315789473685"/>
      <point x="258.86315789473684" y="882.021052631579"/>
    </contour>
    <contour>
      <point x="1046.9263157894736" y="80.56842105263158" type="curve"/>
      <point x="1195.0947368421052" y="228.73684210526318" type="line"/>
      <point x="1097.9578947368423" y="314.12631578947367"/>
      <point x="1010.1052631578948" y="400.33684210526314"/>
      <point x="935.0736842105263" y="475.36842105263156" type="curve"/>
      <point x="800.2947368421053" y="340.58947368421053" type="line"/>
      <point x="875.3263157894737" y="265.5578947368421"/>
      <point x="961.5368421052632" y="177.70526315789476"/>
    </contour>
    <contour>
      <point x="936.7157894736843" y="805.3473684210526" type="line"/>
      <point x="1011.7473684210527" y="880.378947368421"/>
      <point x="1099.6000000000001" y="966.5894736842106"/>
      <point x="1196.7368421052631" y="1051.9789473684211" type="curve"/>
      <point x="1045.2842105263157" y="1203.4315789473685" type="line"/>
      <point x="959.8947368421053" y="1106.2947368421053"/>
      <point x="873.6842105263158" y="1018.4421052631579"/>
      <point x="798.6526315789474" y="943.4105263157895" type="curve"/>
    </contour>
  </outline>
</glyph>
<glyph name="yen" format="2">
  <advance width="1271.6842105263158"/>
  <unicode hex="00A5"/>
  <outline>
    <contour>
      <point x="528.0210526315789" y="520.1684210526316" type="line"/>
      <point x="746.9473684210526" y="520.1684210526316" type="line"/>
      <point x="1034.421052631579" y="1037.9368421052632" type="line"/>
      <point x="1094.3157894736842" y="1146.1473684210525"/>
      <point x="1161.3894736842105" y="1264.7157894736843"/>
      <point x="1240.421052631579" y="1372.9263157894736" type="curve"/>
      <point x="951.978947368421" y="1372.9263157894736" type="line"/>
      <point x="877.2421052631579" y="1202.4842105263158"/>
      <point x="833.7684210526315" y="1118.9052631578948"/>
      <point x="764.1473684210526" y="985.0736842105263" type="curve"/>
      <point x="648.2315789473683" y="762.021052631579" type="line"/>
      <point x="626.378947368421" y="762.021052631579" type="line"/>
      <point x="513.2842105263157" y="983.0736842105263" type="line"/>
      <point x="443.30526315789473" y="1118.4421052631578"/>
      <point x="401.8315789473684" y="1200.8421052631577"/>
      <point x="327.91578947368424" y="1372.9263157894736" type="curve"/>
      <point x="29.621052631578948" y="1372.9263157894736" type="line"/>
      <point x="141.3684210526316" y="1206.2526315789476"/>
      <point x="184.18947368421053" y="1134.5052631578947"/>
      <point x="238.90526315789475" y="1037.1157894736841" type="curve"/>
    </contour>
    <contour>
      <point x="506.4210526315789" y="0.0" type="curve"/>
      <point x="770.5473684210527" y="0.0" type="line"/>
      <point x="753.0526315789474" y="150.25263157894736"/>
      <point x="752.2315789473685" y="280.14736842105265"/>
      <point x="752.2315789473685" y="449.4315789473684" type="curve"/>
      <point x="752.2315789473685" y="706.4631578947368" type="line"/>
      <point x="523.5578947368421" y="706.4631578947368" type="line"/>
      <point x="523.5578947368421" y="449.4315789473684" type="line"/>
      <point x="523.5578947368421" y="280.14736842105265"/>
      <point x="522.7368421052631" y="150.25263157894736"/>
    </contour>
    <contour>
      <point x="154.29473684210527" y="256.9894736842105" type="line"/>
      <point x="284.25263157894733" y="265.09473684210525"/>
      <point x="407.3894736842105" y="265.9157894736842"/>
      <point x="513.7052631578947" y="265.9157894736842" type="curve"/>
      <point x="761.6210526315789" y="265.9157894736842" type="line"/>
      <point x="867.9368421052632" y="265.9157894736842"/>
      <point x="991.0736842105263" y="265.09473684210525"/>
      <point x="1121.0315789473684" y="256.9894736842105" type="curve"/>
      <point x="1121.0315789473684" y="410.4842105263158" type="line"/>
      <point x="991.0736842105263" y="406.4842105263158"/>
      <point x="867.9368421052632" y="405.66315789473686"/>
      <point x="761.6210526315789" y="405.66315789473686" type="curve"/>
      <point x="513.7052631578947" y="405.66315789473686" type="line"/>
      <point x="407.3894736842105" y="405.66315789473686"/>
      <point x="284.25263157894733" y="406.4842105263158"/>
      <point x="154.29473684210527" y="410.4842105263158" type="curve"/>
    </contour>
    <contour>
      <point x="154.29473684210527" y="561.3263157894737" type="line"/>
      <point x="284.25263157894733" y="565.3263157894737"/>
      <point x="407.3894736842105" y="566.1473684210526"/>
      <point x="513.7052631578947" y="566.1473684210526" type="curve"/>
      <point x="761.6210526315789" y="566.1473684210526" type="line"/>
      <point x="867.9368421052632" y="566.1473684210526"/>
      <point x="991.0736842105263" y="565.3263157894737"/>
      <point x="1121.0315789473684" y="561.3263157894737" type="curve"/>
      <point x="1121.0315789473684" y="714.8210526315789" type="line"/>
      <point x="991.0736842105263" y="706.7157894736841"/>
      <point x="867.9368421052632" y="705.8947368421052"/>
      <point x="761.6210526315789" y="705.8947368421052" type="curve"/>
      <point x="513.7052631578947" y="705.8947368421052" type="line"/>
      <point x="407.3894736842105" y="705.8947368421052"/>
      <point x="284.25263157894733" y="706.7157894736841"/>
      <point x="154.29473684210527" y="714.8210526315789" type="curve"/>
    </contour>
  </outline>
</glyph>
<glyph name="ordfeminine" format="2">
  <advance width="797.5172413793103"/>
  <unicode hex="00AA"/>
  <outline>
    <contour>
      <point x="291.1034482758621" y="662.8275862068965" type="curve" smooth="yes"/>
      <point x="385.51724137931035" y="662.8275862068965"/>
      <point x="482.9655172413793" y="724.6206896551724"/>
      <point x="537.7931034482758" y="797.0344827586207" type="curve"/>
      <point x="551.3793103448276" y="797.0344827586207" type="line"/>
      <point x="581.7931034482758" y="678.6206896551724" type="line"/>
      <point x="744.2068965517242" y="678.6206896551724" type="line"/>
      <point x="712.8275862068966" y="769.5862068965517"/>
      <point x="696.2068965517242" y="849.9310344827586"/>
      <point x="696.2068965517242" y="921.1034482758621" type="curve"/>
      <point x="696.2068965517242" y="1000.4137931034483" type="line" smooth="yes"/>
      <point x="696.2068965517242" y="1061.448275862069"/>
      <point x="700.2068965517242" y="1139.0344827586207"/>
      <point x="700.2068965517242" y="1186.6206896551723" type="curve" smooth="yes"/>
      <point x="700.2068965517242" y="1374.0"/>
      <point x="591.2413793103449" y="1453.5862068965516"/>
      <point x="419.51724137931035" y="1453.5862068965516" type="curve" smooth="yes"/>
      <point x="310.6206896551724" y="1453.5862068965516"/>
      <point x="183.44827586206898" y="1417.7931034482758"/>
      <point x="107.86206896551725" y="1397.5862068965516" type="curve"/>
      <point x="115.44827586206897" y="1234.7586206896553" type="line"/>
      <point x="220.48275862068965" y="1282.3448275862067"/>
      <point x="341.448275862069" y="1311.103448275862"/>
      <point x="377.86206896551727" y="1311.103448275862" type="curve" smooth="yes"/>
      <point x="482.2758620689655" y="1311.103448275862"/>
      <point x="551.3793103448276" y="1282.896551724138"/>
      <point x="545.1724137931035" y="1173.1724137931035" type="curve"/>
      <point x="310.2758620689655" y="1126.344827586207" type="line" smooth="yes"/>
      <point x="208.89655172413794" y="1106.344827586207"/>
      <point x="73.86206896551724" y="1043.5862068965516"/>
      <point x="73.86206896551724" y="870.6206896551724" type="curve" smooth="yes"/>
      <point x="73.86206896551724" y="752.2068965517242"/>
      <point x="150.68965517241378" y="662.8275862068965"/>
    </contour>
    <contour>
      <point x="356.48275862068965" y="798.1379310344828" type="curve" smooth="yes"/>
      <point x="286.55172413793105" y="798.1379310344828"/>
      <point x="232.48275862068965" y="829.3793103448276"/>
      <point x="232.48275862068965" y="905.3103448275862" type="curve" smooth="yes"/>
      <point x="232.48275862068965" y="985.6551724137931"/>
      <point x="303.7931034482759" y="1016.6896551724138"/>
      <point x="375.51724137931035" y="1031.3103448275863" type="curve" smooth="yes"/>
      <point x="489.3103448275862" y="1056.1379310344828"/>
      <point x="518.7586206896551" y="1068.551724137931"/>
      <point x="541.5862068965517" y="1082.344827586207" type="curve"/>
      <point x="541.3793103448276" y="909.7241379310344" type="line"/>
      <point x="499.51724137931035" y="835.7931034482759"/>
      <point x="412.9655172413793" y="798.1379310344828"/>
    </contour>
  </outline>
</glyph>
<glyph name="registered" format="2">
  <advance width="1145.3473684210526"/>
  <unicode hex="00AE"/>
  <outline>
    <contour>
      <point x="577.4947368421052" y="498.33684210526314" type="curve" smooth="yes"/>
      <point x="896.1263157894737" y="498.33684210526314"/>
      <point x="1077.6631578947367" y="710.5473684210526"/>
      <point x="1077.6631578947367" y="996.0421052631579" type="curve" smooth="yes"/>
      <point x="1077.6631578947367" y="1270.2526315789473"/>
      <point x="906.5894736842105" y="1492.1052631578948"/>
      <point x="571.3894736842105" y="1492.1052631578948" type="curve" smooth="yes"/>
      <point x="240.65263157894736" y="1492.1052631578948"/>
      <point x="67.6842105263158" y="1273.4315789473685"/>
      <point x="67.6842105263158" y="995.2210526315789" type="curve" smooth="yes"/>
      <point x="67.6842105263158" y="731.1157894736842"/>
      <point x="229.1157894736842" y="498.33684210526314"/>
    </contour>
    <contour>
      <point x="362.5052631578947" y="724.5052631578948" type="curve"/>
      <point x="483.1578947368421" y="724.5052631578948" type="line"/>
      <point x="475.8736842105263" y="788.5052631578948"/>
      <point x="474.2315789473684" y="842.5052631578948"/>
      <point x="474.2315789473684" y="912.5052631578948" type="curve"/>
      <point x="474.2315789473684" y="1096.5052631578947" type="line"/>
      <point x="474.2315789473684" y="1163.221052631579"/>
      <point x="475.8736842105263" y="1216.757894736842"/>
      <point x="482.33684210526314" y="1278.2947368421053" type="curve"/>
      <point x="360.0421052631579" y="1294.5052631578947" type="line"/>
      <point x="368.14736842105265" y="1230.5052631578947"/>
      <point x="368.9684210526316" y="1174.5052631578947"/>
      <point x="368.9684210526316" y="1104.5052631578947" type="curve"/>
      <point x="368.9684210526316" y="912.5052631578948" type="line"/>
      <point x="368.9684210526316" y="842.5052631578948"/>
      <point x="368.14736842105265" y="788.5052631578948"/>
    </contour>
    <contour>
      <point x="576.6736842105263" y="582.1473684210526" type="curve"/>
      <point x="290.86315789473684" y="588.6105263157895"/>
      <point x="157.2421052631579" y="757.8526315789474"/>
      <point x="157.2421052631579" y="995.2210526315789" type="curve" smooth="yes"/>
      <point x="157.2421052631579" y="1238.9052631578948"/>
      <point x="297.3263157894737" y="1402.6526315789472"/>
      <point x="572.2105263157895" y="1409.1157894736841" type="curve"/>
      <point x="848.7368421052631" y="1402.6526315789472"/>
      <point x="986.9263157894737" y="1238.8"/>
      <point x="986.9263157894737" y="996.0421052631579" type="curve" smooth="yes"/>
      <point x="986.9263157894737" y="748.7157894736843"/>
      <point x="842.1684210526316" y="588.6105263157895"/>
    </contour>
    <contour>
      <point x="697.6210526315789" y="724.5052631578948" type="curve"/>
      <point x="840.7368421052631" y="724.5052631578948" type="line"/>
      <point x="802.021052631579" y="768.5052631578948"/>
      <point x="754.9473684210526" y="833.3263157894737"/>
      <point x="713.8736842105263" y="890.1473684210526" type="curve"/>
      <point x="631.7263157894737" y="1003.7894736842105" type="line"/>
      <point x="590.378947368421" y="963.1157894736842" type="line"/>
      <point x="732.8421052631579" y="963.1157894736842"/>
      <point x="784.378947368421" y="1039.9368421052632"/>
      <point x="784.378947368421" y="1134.4" type="curve" smooth="yes"/>
      <point x="784.378947368421" y="1248.8631578947368"/>
      <point x="706.378947368421" y="1298.1473684210525"/>
      <point x="575.4947368421052" y="1298.1473684210525" type="curve"/>
      <point x="486.46315789473687" y="1298.1473684210525"/>
      <point x="415.89473684210526" y="1294.5052631578947"/>
      <point x="360.0421052631579" y="1294.5052631578947" type="curve"/>
      <point x="440.63157894736844" y="1207.6631578947367" type="line"/>
      <point x="571.0315789473684" y="1207.6631578947367" type="line" smooth="yes"/>
      <point x="609.5368421052632" y="1207.6631578947367"/>
      <point x="674.6526315789474" y="1204.4842105263158"/>
      <point x="674.6526315789474" y="1124.5473684210526" type="curve" smooth="yes"/>
      <point x="674.6526315789474" y="1049.7894736842106"/>
      <point x="624.6105263157895" y="1026.7157894736843"/>
      <point x="550.7789473684211" y="1026.7157894736843" type="curve" smooth="yes"/>
      <point x="453.5578947368421" y="1026.7157894736843" type="line"/>
      <point x="453.5578947368421" y="952.5473684210526" type="line"/>
      <point x="586.8421052631579" y="952.5473684210526" type="line"/>
      <point x="522.1052631578947" y="992.9684210526316" type="line"/>
      <point x="612.1473684210526" y="863.3263157894737" type="line"/>
      <point x="642.4" y="820.1473684210526"/>
      <point x="672.2947368421053" y="775.6842105263158"/>
    </contour>
  </outline>
</glyph>
<glyph name="plusminus" format="2">
  <advance width="1144.6315789473683"/>
  <unicode hex="00B1"/>
  <outline>
    <contour>
      <point x="115.36842105263158" y="-8.926315789473684" type="line"/>
      <point x="245.32631578947368" y="-0.8210526315789474"/>
      <point x="368.46315789473687" y="0.0"/>
      <point x="474.77894736842103" y="0.0" type="curve"/>
      <point x="669.8526315789474" y="0.0" type="line"/>
      <point x="776.1684210526316" y="0.0"/>
      <point x="899.3052631578947" y="-0.8210526315789474"/>
      <point x="1029.2631578947369" y="-8.926315789473684" type="curve"/>
      <point x="1029.2631578947369" y="200.29473684210527" type="line"/>
      <point x="899.3052631578947" y="192.18947368421053"/>
      <point x="776.1684210526316" y="191.3684210526316"/>
      <point x="669.8526315789474" y="191.3684210526316" type="curve"/>
      <point x="474.77894736842103" y="191.3684210526316" type="line"/>
      <point x="368.46315789473687" y="191.3684210526316"/>
      <point x="245.32631578947368" y="192.18947368421053"/>
      <point x="115.36842105263158" y="200.29473684210527" type="curve"/>
    </contour>
    <contour>
      <point x="115.36842105263158" y="714.3157894736842" type="line"/>
      <point x="245.32631578947368" y="722.421052631579"/>
      <point x="368.46315789473687" y="723.2421052631579"/>
      <point x="474.77894736842103" y="723.2421052631579" type="curve"/>
      <point x="669.8526315789474" y="723.2421052631579" type="line"/>
      <point x="776.1684210526316" y="723.2421052631579"/>
      <point x="899.3052631578947" y="722.421052631579"/>
      <point x="1029.2631578947369" y="714.3157894736842" type="curve"/>
      <point x="1029.2631578947369" y="923.5368421052632" type="line"/>
      <point x="899.3052631578947" y="915.4315789473684"/>
      <point x="776.1684210526316" y="914.6105263157895"/>
      <point x="669.8526315789474" y="914.6105263157895" type="curve"/>
      <point x="474.77894736842103" y="914.6105263157895" type="line"/>
      <point x="368.46315789473687" y="914.6105263157895"/>
      <point x="245.32631578947368" y="915.4315789473684"/>
      <point x="115.36842105263158" y="923.5368421052632" type="curve"/>
    </contour>
    <contour>
      <point x="465.2421052631579" y="346.61052631578946" type="curve"/>
      <point x="679.3894736842105" y="346.61052631578946" type="line"/>
      <point x="671.2842105263157" y="476.5684210526316"/>
      <point x="670.4631578947368" y="599.7052631578947"/>
      <point x="670.4631578947368" y="706.021052631579" type="curve"/>
      <point x="670.4631578947368" y="931.8315789473684" type="line"/>
      <point x="670.4631578947368" y="1038.1473684210525"/>
      <point x="671.2842105263157" y="1161.2842105263157"/>
      <point x="679.3894736842105" y="1291.242105263158" type="curve"/>
      <point x="465.2421052631579" y="1291.242105263158" type="line"/>
      <point x="473.34736842105264" y="1161.2842105263157"/>
      <point x="474.1684210526316" y="1038.1473684210525"/>
      <point x="474.1684210526316" y="931.8315789473684" type="curve"/>
      <point x="474.1684210526316" y="706.021052631579" type="line"/>
      <point x="474.1684210526316" y="599.7052631578947"/>
      <point x="473.34736842105264" y="476.5684210526316"/>
    </contour>
  </outline>
</glyph>
<glyph name="ordmasculine" format="2">
  <advance width="913.8526315789474"/>
  <unicode hex="00BA"/>
  <outline>
    <contour>
      <point x="459.7473684210526" y="660.9684210526316" type="curve" smooth="yes"/>
      <point x="699.5578947368421" y="660.9684210526316"/>
      <point x="844.378947368421" y="835.3263157894737"/>
      <point x="844.378947368421" y="1061.0736842105264" type="curve" smooth="yes"/>
      <point x="844.378947368421" y="1282.3578947368421"/>
      <point x="708.021052631579" y="1453.2842105263157"/>
      <point x="456.46315789473687" y="1453.2842105263157" type="curve" smooth="yes"/>
      <point x="211.7263157894737" y="1453.2842105263157"/>
      <point x="69.47368421052632" y="1285.8947368421052"/>
      <point x="69.47368421052632" y="1061.0736842105264" type="curve" smooth="yes"/>
      <point x="69.47368421052632" y="849.4315789473684"/>
      <point x="200.18947368421053" y="660.9684210526316"/>
    </contour>
    <contour>
      <point x="458.9263157894737" y="802.2526315789473" type="curve"/>
      <point x="312.5052631578948" y="807.8947368421052"/>
      <point x="239.49473684210528" y="924.021052631579"/>
      <point x="239.49473684210528" y="1061.0736842105264" type="curve" smooth="yes"/>
      <point x="239.49473684210528" y="1200.378947368421"/>
      <point x="314.4" y="1306.3578947368421"/>
      <point x="458.9263157894737" y="1312.0" type="curve"/>
      <point x="596.378947368421" y="1304.7157894736843"/>
      <point x="673.5368421052632" y="1208.2736842105262"/>
      <point x="673.5368421052632" y="1061.0736842105264" type="curve" smooth="yes"/>
      <point x="673.5368421052632" y="925.2"/>
      <point x="604.5263157894736" y="807.8947368421052"/>
    </contour>
  </outline>
</glyph>
<glyph name="AE" format="2">
  <advance width="1969.3793103448277"/>
  <unicode hex="00C6"/>
  <anchor x="1064.4827586206898" y="0.0" name="bottom"/>
  <anchor x="1064.4827586206898" y="1426.0" name="top"/>
  <outline>
    <contour>
      <point x="15.86206896551724" y="0.0" type="curve"/>
      <point x="303.1034482758621" y="0.0" type="line"/>
      <point x="371.0344827586207" y="162.0689655172414"/>
      <point x="451.17241379310343" y="336.7586206896552"/>
      <point x="531.6551724137931" y="494.62068965517244" type="curve"/>
      <point x="904.0689655172414" y="1231.3103448275863" type="line"/>
      <point x="948.4137931034484" y="1231.3103448275863" type="line"/>
      <point x="1108.2068965517242" y="1231.3103448275863" type="line"/>
      <point x="1131.5172413793105" y="1426.0" type="line"/>
      <point x="752.4827586206897" y="1426.0" type="line"/>
      <point x="692.6206896551723" y="1278.6206896551726"/>
      <point x="628.344827586207" y="1147.3793103448277"/>
      <point x="539.5172413793103" y="974.6206896551724" type="curve"/>
      <point x="284.9655172413793" y="484.0" type="line"/>
      <point x="205.72413793103448" y="330.2068965517241"/>
      <point x="108.48275862068965" y="152.0"/>
    </contour>
    <contour>
      <point x="395.9310344827586" y="334.2758620689655" type="line"/>
      <point x="1050.344827586207" y="334.2758620689655" type="line"/>
      <point x="1030.6206896551726" y="518.0" type="line"/>
      <point x="419.2413793103448" y="518.0" type="line"/>
    </contour>
    <contour>
      <point x="928.0689655172414" y="0.0" type="curve"/>
      <point x="1201.103448275862" y="0.0" type="line"/>
      <point x="1201.103448275862" y="36.689655172413794" type="line"/>
      <point x="1186.1379310344828" y="193.31034482758622"/>
      <point x="1180.7586206896553" y="329.7241379310345"/>
      <point x="1180.7586206896553" y="505.51724137931035" type="curve"/>
      <point x="1180.7586206896553" y="913.5172413793103" type="line"/>
      <point x="1180.7586206896553" y="1092.896551724138"/>
      <point x="1186.1379310344828" y="1231.103448275862"/>
      <point x="1201.103448275862" y="1389.5172413793102" type="curve"/>
      <point x="1201.103448275862" y="1426.0" type="line"/>
      <point x="928.0689655172414" y="1426.0" type="line"/>
      <point x="941.0344827586207" y="1267.5862068965516"/>
      <point x="946.4137931034484" y="1129.3793103448277"/>
      <point x="946.4137931034484" y="950.0" type="curve"/>
      <point x="946.4137931034484" y="468.82758620689657" type="line"/>
      <point x="946.4137931034484" y="291.2413793103448"/>
      <point x="941.0344827586207" y="156.6206896551724"/>
    </contour>
    <contour>
      <point x="1152.6206896551726" y="0.0" type="line"/>
      <point x="1861.3103448275863" y="0.0" type="line"/>
      <point x="1861.3103448275863" y="222.41379310344828" type="line"/>
      <point x="1721.6551724137933" y="205.6551724137931"/>
      <point x="1573.7931034482758" y="201.86206896551724"/>
      <point x="1405.7241379310344" y="201.86206896551724" type="curve"/>
      <point x="1152.6206896551726" y="201.86206896551724" type="line"/>
    </contour>
    <contour>
      <point x="1127.5172413793105" y="624.0689655172414" type="line"/>
      <point x="1397.5862068965519" y="624.0689655172414" type="line"/>
      <point x="1573.0344827586207" y="624.0689655172414"/>
      <point x="1691.8620689655172" y="622.2758620689656"/>
      <point x="1820.896551724138" y="614.8965517241379" type="curve"/>
      <point x="1820.896551724138" y="831.9310344827586" type="line"/>
      <point x="1698.0689655172414" y="820.5517241379309"/>
      <point x="1579.0344827586207" y="818.7586206896551"/>
      <point x="1397.7931034482758" y="818.7586206896551" type="curve"/>
      <point x="1127.5172413793105" y="818.7586206896551" type="line"/>
    </contour>
    <contour>
      <point x="1140.0689655172414" y="1224.1379310344828" type="line"/>
      <point x="1386.9655172413793" y="1224.1379310344828" type="line"/>
      <point x="1587.2413793103449" y="1224.1379310344828"/>
      <point x="1726.689655172414" y="1218.5517241379312"/>
      <point x="1856.1379310344828" y="1203.5862068965519" type="curve"/>
      <point x="1856.1379310344828" y="1426.0" type="line"/>
      <point x="1140.0689655172414" y="1426.0" type="line"/>
    </contour>
  </outline>
</glyph>
<glyph name="Oslash" format="2">
  <advance width="1631.4315789473685"/>
  <unicode hex="00D8"/>
  <anchor x="815.5368421052632" y="0.0" name="bottom"/>
  <anchor x="815.5368421052632" y="714.0" name="center"/>
  <anchor x="1018.378947368421" y="0.0" name="ogonek"/>
  <anchor x="815.5368421052632" y="1426.0" name="top"/>
  <anchor x="51.536842105263155" y="1426.0" name="topleft"/>
  <anchor x="1422.6526315789474" y="1426.0" name="topright"/>
  <outline>
    <contour>
      <point x="822.7157894736843" y="-23.74736842105263" type="curve" smooth="yes"/>
      <point x="1279.5578947368422" y="-23.74736842105263"/>
      <point x="1540.9894736842105" y="291.0736842105263"/>
      <point x="1540.9894736842105" y="714.3578947368421" type="curve" smooth="yes"/>
      <point x="1540.9894736842105" y="1124.0"/>
      <point x="1292.378947368421" y="1453.2842105263157"/>
      <point x="815.4315789473684" y="1453.2842105263157" type="curve" smooth="yes"/>
      <point x="345.66315789473686" y="1453.2842105263157"/>
      <point x="90.4421052631579" y="1128.3578947368421"/>
      <point x="90.4421052631579" y="713.5368421052632" type="curve" smooth="yes"/>
      <point x="90.4421052631579" y="318.46315789473687"/>
      <point x="325.7684210526316" y="-23.74736842105263"/>
    </contour>
    <contour>
      <point x="817.8947368421053" y="177.7263157894737" type="curve"/>
      <point x="488.37894736842105" y="189.0105263157895"/>
      <point x="339.5368421052632" y="425.6842105263158"/>
      <point x="339.5368421052632" y="714.3578947368421" type="curve" smooth="yes"/>
      <point x="339.5368421052632" y="1004.3157894736843"/>
      <point x="495.5578947368421" y="1240.5263157894738"/>
      <point x="817.8947368421053" y="1251.8105263157895" type="curve"/>
      <point x="1129.5157894736842" y="1240.5263157894738"/>
      <point x="1291.8947368421052" y="1018.4631578947369"/>
      <point x="1291.8947368421052" y="714.3578947368421" type="curve" smooth="yes"/>
      <point x="1291.8947368421052" y="430.4"/>
      <point x="1146.5894736842106" y="189.0105263157895"/>
    </contour>
    <contour>
      <point x="281.3052631578948" y="-146.02105263157895" type="line"/>
      <point x="407.5578947368421" y="28.800000000000004"/>
      <point x="525.9157894736842" y="191.7263157894737"/>
      <point x="671.9157894736842" y="380.5473684210526" type="curve"/>
      <point x="1067.5578947368422" y="901.3684210526316" type="line"/>
      <point x="1213.5578947368422" y="1091.3684210526317"/>
      <point x="1334.3789473684212" y="1244.5473684210526"/>
      <point x="1478.9473684210527" y="1416.4421052631578" type="curve"/>
      <point x="1338.842105263158" y="1522.021052631579" type="line"/>
      <point x="1212.9473684210527" y="1339.9157894736843"/>
      <point x="1095.4105263157896" y="1181.9157894736843"/>
      <point x="947.4105263157895" y="988.7368421052631" type="curve"/>
      <point x="556.5894736842105" y="475.5578947368421" type="line"/>
      <point x="413.41052631578947" y="288.37894736842105"/>
      <point x="294.58947368421053" y="141.2"/>
      <point x="147.66315789473683" y="-33.515789473684215" type="curve"/>
    </contour>
  </outline>
</glyph>
<glyph name="ae" format="2">
  <advance width="1619.103448275862"/>
  <unicode hex="00E6"/>
  <anchor x="800.4137931034484" y="0.0" name="bottom"/>
  <anchor x="800.4137931034484" y="995.1724137931035" name="top"/>
  <outline>
    <contour>
      <point x="1203.7241379310344" y="-23.379310344827587" type="curve" smooth="yes"/>
      <point x="1343.2413793103449" y="-23.379310344827587"/>
      <point x="1457.2413793103447" y="17.03448275862069"/>
      <point x="1536.8275862068965" y="41.241379310344826" type="curve"/>
      <point x="1529.0344827586207" y="235.37931034482756" type="line"/>
      <point x="1424.6206896551723" y="192.3448275862069"/>
      <point x="1304.2758620689656" y="160.75862068965517"/>
      <point x="1227.0344827586207" y="160.75862068965517" type="curve" smooth="yes"/>
      <point x="997.5862068965517" y="160.75862068965517"/>
      <point x="892.1379310344828" y="288.3448275862069"/>
      <point x="892.1379310344828" y="498.0" type="curve"/>
      <point x="892.1379310344828" y="523.5172413793103" type="line"/>
      <point x="892.1379310344828" y="709.5862068965517"/>
      <point x="990.2068965517242" y="841.1724137931035"/>
      <point x="1140.9655172413793" y="848.9655172413793" type="curve"/>
      <point x="1264.8275862068967" y="842.9655172413793"/>
      <point x="1355.1724137931035" y="756.6896551724138"/>
      <point x="1355.1724137931035" y="595.3793103448277" type="curve" smooth="yes"/>
      <point x="1355.1724137931035" y="577.1724137931035"/>
      <point x="1355.1724137931035" y="558.9655172413793"/>
      <point x="1353.1724137931035" y="540.551724137931" type="curve"/>
      <point x="1547.0344827586207" y="457.86206896551727" type="line"/>
      <point x="1553.0344827586207" y="497.6551724137931"/>
      <point x="1555.0344827586207" y="535.448275862069"/>
      <point x="1555.0344827586207" y="586.8275862068965" type="curve" smooth="yes"/>
      <point x="1555.0344827586207" y="871.9310344827586"/>
      <point x="1398.0689655172414" y="1018.7586206896551"/>
      <point x="1138.9655172413793" y="1018.7586206896551" type="curve" smooth="yes"/>
      <point x="869.7931034482759" y="1018.7586206896551"/>
      <point x="703.0344827586207" y="804.9655172413793"/>
      <point x="703.0344827586207" y="502.0" type="curve" smooth="yes"/>
      <point x="703.0344827586207" y="196.6206896551724"/>
      <point x="866.344827586207" y="-23.379310344827587"/>
    </contour>
    <contour>
      <point x="441.6551724137931" y="151.58620689655174" type="curve" smooth="yes"/>
      <point x="362.6206896551724" y="151.58620689655174"/>
      <point x="294.89655172413796" y="186.48275862068965"/>
      <point x="294.89655172413796" y="282.8965517241379" type="curve" smooth="yes"/>
      <point x="294.89655172413796" y="372.3448275862069"/>
      <point x="352.9655172413793" y="426.7586206896552"/>
      <point x="449.17241379310343" y="444.0" type="curve" smooth="yes"/>
      <point x="617.7931034482759" y="473.44827586206895"/>
      <point x="659.6551724137931" y="484.6896551724138"/>
      <point x="688.6896551724138" y="502.6896551724138" type="curve"/>
      <point x="688.4827586206898" y="328.9655172413793" type="line"/>
      <point x="628.0" y="220.0"/>
      <point x="511.58620689655174" y="151.58620689655174"/>
    </contour>
    <contour>
      <point x="386.0689655172414" y="-21.586206896551722" type="curve" smooth="yes"/>
      <point x="566.0" y="-21.586206896551722"/>
      <point x="710.6896551724138" y="80.82758620689656"/>
      <point x="829.1724137931035" y="233.44827586206898" type="curve"/>
      <point x="823.3103448275863" y="505.37931034482756" type="line"/>
      <point x="861.8620689655172" y="668.0" type="line"/>
      <point x="861.8620689655172" y="914.9655172413793"/>
      <point x="726.8965517241379" y="1018.7586206896551"/>
      <point x="500.20689655172407" y="1018.7586206896551" type="curve" smooth="yes"/>
      <point x="367.1034482758621" y="1018.7586206896551"/>
      <point x="205.3103448275862" y="974.344827586207"/>
      <point x="117.3103448275862" y="948.3448275862069" type="curve"/>
      <point x="126.89655172413794" y="743.6551724137931" type="line"/>
      <point x="264.55172413793105" y="798.0689655172414"/>
      <point x="420.68965517241384" y="836.4137931034483"/>
      <point x="473.3103448275862" y="836.4137931034483" type="curve" smooth="yes"/>
      <point x="590.8275862068965" y="836.4137931034483"/>
      <point x="700.4827586206898" y="794.2068965517242"/>
      <point x="694.0689655172414" y="636.551724137931" type="curve"/>
      <point x="400.0689655172414" y="591.448275862069" type="line" smooth="yes"/>
      <point x="242.3448275862069" y="567.0344827586207"/>
      <point x="73.3103448275862" y="494.2758620689655"/>
      <point x="73.3103448275862" y="273.7241379310345" type="curve" smooth="yes"/>
      <point x="73.3103448275862" y="84.82758620689656"/>
      <point x="199.44827586206895" y="-21.586206896551722"/>
    </contour>
    <contour>
      <point x="759.9310344827587" y="457.86206896551727" type="line"/>
      <point x="1547.0344827586207" y="457.86206896551727" type="line"/>
      <point x="1547.0344827586207" y="561.1034482758621" type="line"/>
      <point x="1416.9655172413793" y="618.2758620689656" type="line"/>
      <point x="759.9310344827587" y="609.3103448275862" type="line"/>
    </contour>
  </outline>
</glyph>
<glyph name="eth" format="2">
  <advance width="1184.9655172413793"/>
  <unicode hex="00F0"/>
  <outline>
    <contour>
      <point x="597.3793103448276" y="-23.379310344827587" type="curve" smooth="yes"/>
      <point x="940.0" y="-23.379310344827587"/>
      <point x="1096.8275862068965" y="221.58620689655172"/>
      <point x="1096.8275862068965" y="604.0" type="curve" smooth="yes"/>
      <point x="1096.8275862068965" y="896.2068965517242"/>
      <point x="987.8620689655172" y="1118.9655172413793"/>
      <point x="811.3103448275862" y="1298.9655172413793" type="curve"/>
      <point x="733.9310344827586" y="1378.9655172413793"/>
      <point x="648.1379310344828" y="1450.551724137931"/>
      <point x="565.7241379310344" y="1514.344827586207" type="curve"/>
      <point x="354.2758620689655" y="1429.3103448275863" type="line"/>
      <point x="473.58620689655174" y="1362.5517241379312"/>
      <point x="562.7586206896551" y="1295.1724137931035"/>
      <point x="634.1379310344828" y="1218.0" type="curve"/>
      <point x="790.4137931034483" y="1050.551724137931"/>
      <point x="873.448275862069" y="855.8620689655172"/>
      <point x="873.448275862069" y="625.3103448275862" type="curve" smooth="yes"/>
      <point x="873.448275862069" y="324.1379310344828"/>
      <point x="784.8965517241379" y="166.75862068965517"/>
      <point x="595.5862068965517" y="158.9655172413793" type="curve"/>
      <point x="405.86206896551727" y="166.75862068965517"/>
      <point x="309.7241379310345" y="316.0"/>
      <point x="309.7241379310345" y="475.44827586206895" type="curve" smooth="yes"/>
      <point x="309.7241379310345" y="632.8965517241379"/>
      <point x="401.8620689655172" y="771.3103448275862"/>
      <point x="591.1724137931035" y="777.3103448275862" type="curve"/>
      <point x="654.2758620689656" y="775.5172413793103"/>
      <point x="775.448275862069" y="752.4827586206897"/>
      <point x="890.4137931034483" y="626.4827586206898" type="curve"/>
      <point x="928.0689655172414" y="694.9655172413793"/>
      <point x="913.7241379310344" y="789.3793103448276"/>
      <point x="868.8965517241379" y="862.0689655172414" type="curve"/>
      <point x="826.6896551724138" y="843.9310344827586" type="line"/>
      <point x="735.1724137931035" y="919.0344827586207"/>
      <point x="605.9310344827586" y="959.6551724137931"/>
      <point x="506.8965517241379" y="959.6551724137931" type="curve" smooth="yes"/>
      <point x="257.58620689655174" y="959.6551724137931"/>
      <point x="88.13793103448276" y="756.4137931034483"/>
      <point x="88.13793103448276" y="484.41379310344826" type="curve" smooth="yes"/>
      <point x="88.13793103448276" y="216.6206896551724"/>
      <point x="258.7586206896552" y="-23.379310344827587"/>
    </contour>
    <contour>
      <point x="337.72413793103453" y="1054.551724137931" type="line"/>
      <point x="453.3103448275862" y="1103.103448275862"/>
      <point x="564.4827586206897" y="1138.4827586206898"/>
      <point x="659.2413793103449" y="1169.655172413793" type="curve"/>
      <point x="752.8275862068965" y="1199.2413793103449" type="line"/>
      <point x="847.5862068965517" y="1230.4137931034484"/>
      <point x="962.3448275862069" y="1263.7931034482758"/>
      <point x="1083.5172413793102" y="1295.5862068965516" type="curve"/>
      <point x="1031.6551724137933" y="1454.4137931034484" type="line"/>
      <point x="914.0689655172414" y="1407.655172413793"/>
      <point x="802.8965517241379" y="1370.4827586206898"/>
      <point x="708.1379310344828" y="1341.103448275862" type="curve"/>
      <point x="612.7586206896551" y="1309.7241379310344" type="line"/>
      <point x="518.0" y="1278.551724137931"/>
      <point x="404.82758620689657" y="1243.1724137931035"/>
      <point x="282.06896551724134" y="1215.1724137931035" type="curve"/>
    </contour>
  </outline>
</glyph>
<glyph name="divide" format="2">
  <advance width="1144.6315789473683"/>
  <unicode hex="00F7"/>
  <outline>
    <contour>
      <point x="115.36842105263158" y="496.8842105263158" type="line"/>
      <point x="245.32631578947368" y="504.98947368421057"/>
      <point x="368.46315789473687" y="505.8105263157895"/>
      <point x="474.77894736842103" y="505.8105263157895" type="curve"/>
      <point x="669.8526315789474" y="505.8105263157895" type="line"/>
      <point x="776.1684210526316" y="505.8105263157895"/>
      <point x="899.3052631578947" y="504.98947368421057"/>
      <point x="1029.2631578947369" y="496.8842105263158" type="curve"/>
      <point x="1029.2631578947369" y="706.1052631578948" type="line"/>
      <point x="899.3052631578947" y="698.0"/>
      <point x="776.1684210526316" y="697.1789473684211"/>
      <point x="669.8526315789474" y="697.1789473684211" type="curve"/>
      <point x="474.77894736842103" y="697.1789473684211" type="line"/>
      <point x="368.46315789473687" y="697.1789473684211"/>
      <point x="245.32631578947368" y="698.0"/>
      <point x="115.36842105263158" y="706.1052631578948" type="curve"/>
    </contour>
    <contour>
      <point x="569.9052631578948" y="89.38947368421053" type="curve" smooth="yes"/>
      <point x="655.8736842105263" y="89.38947368421053"/>
      <point x="707.9368421052632" y="135.45263157894738"/>
      <point x="707.9368421052632" y="234.65263157894736" type="curve" smooth="yes"/>
      <point x="707.9368421052632" y="314.41052631578947"/>
      <point x="655.8736842105263" y="357.65263157894736"/>
      <point x="570.7263157894737" y="357.65263157894736" type="curve" smooth="yes"/>
      <point x="485.5263157894737" y="357.65263157894736"/>
      <point x="432.69473684210527" y="314.41052631578947"/>
      <point x="432.69473684210527" y="234.65263157894736" type="curve" smooth="yes"/>
      <point x="432.69473684210527" y="135.45263157894738"/>
      <point x="485.5263157894737" y="89.38947368421053"/>
    </contour>
    <contour>
      <point x="569.9052631578948" y="843.3894736842105" type="curve" smooth="yes"/>
      <point x="655.8736842105263" y="843.3894736842105"/>
      <point x="707.9368421052632" y="889.4526315789474"/>
      <point x="707.9368421052632" y="988.6526315789473" type="curve" smooth="yes"/>
      <point x="707.9368421052632" y="1068.4105263157896"/>
      <point x="655.8736842105263" y="1111.6526315789474"/>
      <point x="570.7263157894737" y="1111.6526315789474" type="curve" smooth="yes"/>
      <point x="485.5263157894737" y="1111.6526315789474"/>
      <point x="432.69473684210527" y="1068.4105263157896"/>
      <point x="432.69473684210527" y="988.6526315789473" type="curve" smooth="yes"/>
      <point x="432.69473684210527" y="889.4526315789474"/>
      <point x="485.5263157894737" y="843.3894736842105"/>
    </contour>
  </outline>
</glyph>
<glyph name="thorn" format="2">
  <advance width="1186.5684210526315"/>
  <unicode hex="00FE"/>
  <outline>
    <contour>
      <point x="137.13684210526318" y="-391.2842105263158" type="curve"/>
      <point x="395.5157894736842" y="-384.0" type="line"/>
      <point x="378.84210526315786" y="-238.92631578947368"/>
      <point x="373.09473684210525" y="-113.03157894736842"/>
      <point x="373.09473684210525" y="40.757894736842104" type="curve"/>
      <point x="373.09473684210525" y="120.65263157894736" type="line"/>
      <point x="390.8421052631579" y="120.65263157894736" type="line"/>
      <point x="477.3473684210527" y="24.042105263157893"/>
      <point x="582.5684210526316" y="-23.74736842105263"/>
      <point x="682.1473684210526" y="-23.74736842105263" type="curve" smooth="yes"/>
      <point x="961.8315789473685" y="-23.74736842105263"/>
      <point x="1097.0526315789473" y="221.6421052631579"/>
      <point x="1097.0526315789473" y="499.6421052631579" type="curve" smooth="yes"/>
      <point x="1097.0526315789473" y="795.2842105263157"/>
      <point x="947.9368421052632" y="1019.4947368421052"/>
      <point x="684.7157894736841" y="1019.4947368421052" type="curve" smooth="yes"/>
      <point x="562.8842105263158" y="1019.4947368421052"/>
      <point x="464.7368421052632" y="954.8842105263158"/>
      <point x="394.12631578947367" y="877.4947368421052" type="curve"/>
      <point x="373.09473684210525" y="877.4947368421052" type="line"/>
      <point x="373.09473684210525" y="987.1789473684211" type="line"/>
      <point x="373.09473684210525" y="1166.2105263157894"/>
      <point x="382.12631578947367" y="1329.957894736842"/>
      <point x="397.978947368421" y="1489.8526315789475" type="curve"/>
      <point x="119.6421052631579" y="1460.463157894737" type="line"/>
      <point x="145.70526315789476" y="1307.4315789473683"/>
      <point x="155.45263157894738" y="1152.2526315789473"/>
      <point x="155.45263157894738" y="987.1789473684211" type="curve"/>
      <point x="155.45263157894738" y="51.43157894736842" type="line"/>
      <point x="155.45263157894738" y="-113.03157894736842"/>
      <point x="149.70526315789476" y="-246.21052631578948"/>
    </contour>
    <contour>
      <point x="607.4315789473685" y="165.87368421052633" type="curve"/>
      <point x="515.1999999999999" y="168.33684210526317"/>
      <point x="435.4315789473684" y="217.81052631578947"/>
      <point x="373.09473684210525" y="307.93684210526317" type="curve"/>
      <point x="373.09473684210525" y="708.8842105263158" type="line"/>
      <point x="438.2526315789474" y="786.6526315789474"/>
      <point x="526.7368421052632" y="825.4105263157894"/>
      <point x="605.0736842105264" y="827.4105263157894" type="curve"/>
      <point x="787.4315789473685" y="821.4105263157894"/>
      <point x="874.1263157894738" y="678.3157894736842"/>
      <point x="874.1263157894738" y="498.0" type="curve" smooth="yes"/>
      <point x="874.1263157894738" y="326.0421052631579"/>
      <point x="792.5052631578948" y="171.87368421052633"/>
    </contour>
  </outline>
</glyph>
<glyph name="hbar" format="2">
  <advance width="1160.6315789473683"/>
  <unicode hex="0127"/>
  <outline>
    <contour>
      <point x="-19.389473684210525" y="1162.5263157894738" type="line"/>
      <point x="97.17894736842105" y="1171.4526315789474"/>
      <point x="206.56842105263158" y="1173.0947368421052"/>
      <point x="300.77894736842103" y="1173.0947368421052" type="curve"/>
      <point x="389.70526315789476" y="1173.0947368421052" type="line"/>
      <point x="483.91578947368424" y="1173.0947368421052"/>
      <point x="593.3052631578947" y="1171.4526315789474"/>
      <point x="709.8736842105262" y="1162.5263157894738" type="curve"/>
      <point x="709.8736842105262" y="1332.4421052631578" type="line"/>
      <point x="593.3052631578947" y="1324.3368421052633"/>
      <point x="483.91578947368424" y="1321.8736842105263"/>
      <point x="389.70526315789476" y="1321.8736842105263" type="curve"/>
      <point x="300.77894736842103" y="1321.8736842105263" type="line"/>
      <point x="206.56842105263158" y="1321.8736842105263"/>
      <point x="97.17894736842105" y="1321.8736842105263"/>
      <point x="-19.389473684210525" y="1321.8736842105263" type="curve"/>
    </contour>
    <contour>
      <point x="138.31578947368422" y="0.0" type="curve"/>
      <point x="391.41052631578947" y="0.0" type="line"/>
      <point x="378.0210526315789" y="145.07368421052632"/>
      <point x="373.09473684210525" y="270.9684210526316"/>
      <point x="373.09473684210525" y="424.7578947368421" type="curve"/>
      <point x="373.09473684210525" y="646.8421052631579" type="line"/>
      <point x="441.0736842105263" y="741.578947368421"/>
      <point x="558.9894736842106" y="817.5578947368421"/>
      <point x="633.5789473684212" y="817.5578947368421" type="curve" smooth="yes"/>
      <point x="762.9263157894737" y="817.5578947368421"/>
      <point x="804.8631578947369" y="738.0842105263157"/>
      <point x="804.8631578947369" y="579.7473684210526" type="curve"/>
      <point x="804.8631578947369" y="424.7578947368421" type="line"/>
      <point x="804.8631578947369" y="270.9684210526316"/>
      <point x="799.9368421052632" y="145.07368421052632"/>
      <point x="790.1894736842105" y="0.0" type="curve"/>
      <point x="1041.6421052631579" y="0.0" type="line"/>
      <point x="1025.7894736842104" y="145.07368421052632"/>
      <point x="1022.5052631578948" y="270.9684210526316"/>
      <point x="1022.5052631578948" y="435.4315789473684" type="curve"/>
      <point x="1022.5052631578948" y="498.1052631578948"/>
      <point x="1027.7894736842104" y="577.4947368421052"/>
      <point x="1027.7894736842104" y="664.3157894736843" type="curve" smooth="yes"/>
      <point x="1027.7894736842104" y="897.2421052631579"/>
      <point x="928.1894736842106" y="1019.4947368421052"/>
      <point x="718.5052631578948" y="1019.4947368421052" type="curve" smooth="yes"/>
      <point x="595.1368421052632" y="1019.4947368421052"/>
      <point x="465.30526315789473" y="924.2315789473683"/>
      <point x="394.12631578947367" y="838.5894736842105" type="curve"/>
      <point x="373.09473684210525" y="838.5894736842105" type="line"/>
      <point x="373.09473684210525" y="987.1789473684211" type="line"/>
      <point x="373.09473684210525" y="1166.2105263157894"/>
      <point x="382.12631578947367" y="1329.957894736842"/>
      <point x="397.978947368421" y="1489.8526315789475" type="curve"/>
      <point x="148.37894736842108" y="1460.463157894737" type="line"/>
      <point x="153.09473684210528" y="1307.4315789473683"/>
      <point x="155.45263157894738" y="1152.2526315789473"/>
      <point x="155.45263157894738" y="987.1789473684211" type="curve"/>
      <point x="155.45263157894738" y="435.4315789473684" type="line"/>
      <point x="155.45263157894738" y="270.9684210526316"/>
      <point x="149.70526315789476" y="145.07368421052632"/>
    </contour>
  </outline>
</glyph>
<glyph name="idotless" format="2">
  <advance width="530.1894736842105"/>
  <unicode hex="0131"/>
  <anchor x="265.09473684210525" y="0.0" name="bottom"/>
  <anchor x="387.30526315789473" y="0.0" name="ogonek"/>
  <anchor x="265.09473684210525" y="994.5684210526316" name="top"/>
  <outline>
    <contour>
      <point x="139.13684210526316" y="0.0" type="curve"/>
      <point x="392.2315789473684" y="0.0" type="line"/>
      <point x="378.8421052631579" y="145.07368421052632"/>
      <point x="373.9157894736842" y="270.9684210526316"/>
      <point x="373.9157894736842" y="435.4315789473684" type="curve"/>
      <point x="373.9157894736842" y="535.4315789473684" type="line"/>
      <point x="373.9157894736842" y="721.2421052631579"/>
      <point x="380.4842105263158" y="849.4947368421052"/>
      <point x="393.87368421052633" y="994.5684210526316" type="curve"/>
      <point x="136.3157894736842" y="994.5684210526316" type="line"/>
      <point x="148.88421052631577" y="849.4947368421052"/>
      <point x="156.2736842105263" y="721.2421052631579"/>
      <point x="156.2736842105263" y="535.4315789473684" type="curve"/>
      <point x="156.2736842105263" y="435.4315789473684" type="line"/>
      <point x="156.2736842105263" y="270.9684210526316"/>
      <point x="150.52631578947367" y="145.07368421052632"/>
    </contour>
  </outline>
</glyph>
